<svg width="54" height="46" fill="none" xmlns="http://www.w3.org/2000/svg"><path d="M45.984 0c-9.597 0-17.718 6.982-20.566 16.634C21.516 10.576 15.188 6.57 7.91 6.57H0v2.465c0 13.143 9.598 23.821 21.516 23.821h2.953v11.5c0 .924.738 1.643 1.687 1.643h1.688c.843 0 1.687-.719 1.687-1.643v-18.07h2.848C44.297 26.286 54 15.607 54 2.464V0h-8.016zM21.516 27.929c-8.332 0-15.293-7.085-16.348-16.429H7.91c8.332 0 15.293 7.188 16.348 16.429h-2.742zm10.863-6.572h-2.742C30.69 12.117 37.652 4.93 45.984 4.93h2.743c-1.055 9.343-8.016 16.428-16.348 16.428z" fill="#40BF6A"/></svg>