<svg width="56" height="55" fill="none" xmlns="http://www.w3.org/2000/svg"><path d="M32.462 38.21v1.784h16.956a.892.892 0 00.893-.892V31.07a.892.892 0 00-.893-.893H32.462v1.785h16.064v6.247H32.462z" fill="#40BF6A"/><path d="M52.988 47.133H32.462v1.785h20.526a3.574 3.574 0 01-3.57 3.57H29.785c-.24 0-.48-.024-.715-.071l-.355 1.749c.352.071.71.107 1.07.107h19.633a5.361 5.361 0 005.355-5.355V31.962h-1.785v15.171zm-2.454-29.45h-.223v-2.677h.67a2.01 2.01 0 002.007-2.008V3.851A3.127 3.127 0 0049.865.727h-16.51v1.785h16.51a1.34 1.34 0 011.338 1.339v9.147a.224.224 0 01-.223.223H28.223a.224.224 0 01-.223-.223V3.851a1.34 1.34 0 011.339-1.339h2.23V.727h-2.23a3.127 3.127 0 00-3.124 3.124v9.147a2.01 2.01 0 002.008 2.008h.67v2.677h-.224a4.243 4.243 0 00-4.239 4.24v.222h1.785v-.223a2.457 2.457 0 012.454-2.454h21.865a2.457 2.457 0 012.454 2.454v3.793h-22.31V27.5h22.31v2.677h1.785v-8.255a4.243 4.243 0 00-4.24-4.239zm-19.857 0v-2.677h17.849v2.677H30.677z" fill="#40BF6A"/><path d="M29.785 4.297h1.785v7.14h-1.785v-7.14zm3.57 0h1.784v7.14h-1.784v-7.14zm3.569 0h1.785v7.14h-1.785v-7.14zm3.57 0h1.785v7.14h-1.785v-7.14zm3.57 0h1.785v7.14h-1.785v-7.14zm3.569 0h1.785v7.14h-1.785v-7.14zM32.462 42.671h5.355v1.785h-5.355v-1.785zm7.14 0H50.31v1.785H39.6v-1.785zm-26.309-25.99l2.655 1.453 1.452 2.655a.894.894 0 001.566 0l1.453-2.655 2.655-1.453a.892.892 0 000-1.566l-2.655-1.452-1.453-2.655a.893.893 0 00-1.566 0l-1.452 2.655-2.655 1.453a.892.892 0 000 1.566zm3.741-1.577a.893.893 0 00.355-.355l.794-1.453.795 1.453c.082.15.205.273.355.355l1.453.795-1.453.794a.893.893 0 00-.355.355l-.795 1.453-.794-1.453a.893.893 0 00-.355-.355l-1.453-.795 1.453-.794zm13.644 17.528a8.711 8.711 0 00-8.701-8.702h-.447a8.725 8.725 0 00-8.527 6.962l1.75.355a6.934 6.934 0 016.777-5.532h.447a6.924 6.924 0 016.916 6.917v4.685h-5.355v1.785h5.355v1.784h-4.462v1.785h4.462v2.9a6.925 6.925 0 01-6.916 6.917h-.447a6.912 6.912 0 01-2.174-.348l-.56 1.694c.882.292 1.805.44 2.734.439h.447a8.71 8.71 0 008.7-8.701v-12.94zM3.71 10.646l1.79.98.98 1.789a.893.893 0 001.565 0l.98-1.79 1.79-.979a.892.892 0 000-1.566l-1.79-.979-.98-1.79a.892.892 0 00-1.566 0l-.978 1.79-1.79.98a.892.892 0 000 1.565zm2.876-1.104a.893.893 0 00.355-.355l.321-.587.322.587c.082.15.205.273.354.355l.588.321-.588.321a.893.893 0 00-.354.355l-.322.588-.32-.588a.893.893 0 00-.356-.354L6 9.863l.587-.321z" fill="#40BF6A"/><path d="M22.645 43.564a10.708 10.708 0 10-10.709 10.709 10.721 10.721 0 0010.71-10.71zm-1.784 0a8.871 8.871 0 01-1.013 4.126L7.811 35.651a8.922 8.922 0 0113.05 7.912zm-3.28 6.907l-7.69-7.691-1.263 1.262 7.434 7.434A8.922 8.922 0 014.024 39.438l2.972 2.972 1.262-1.262-3.229-3.23a9 9 0 011.262-1.261l12.552 12.552c-.378.461-.8.884-1.262 1.262z" fill="#40BF6A"/></svg>