<svg width="40" height="40" fill="none" xmlns="http://www.w3.org/2000/svg"><path fill-rule="evenodd" clip-rule="evenodd" d="M11.667 23.285c0-6.39 7.363-15.896 7.676-16.298.316-.405.998-.405 1.314 0 .313.402 7.676 9.908 7.676 16.298 0 4.334-3.3 7.87-7.5 8.297v2.585a.833.833 0 11-1.666 0v-2.585c-4.2-.428-7.5-3.963-7.5-8.297zm1.666 0a6.685 6.685 0 005.834 6.63v-3.68l-5.67-4.536a9.01 9.01 0 00-.164 1.586zm.614-3.362l5.22 4.177v-4.543l-3.778-3.148c-.574 1.166-1.075 2.357-1.442 3.514zm2.23-5.027l2.99 2.491v-7.313a56.376 56.376 0 00-2.99 4.822zm7.645 0a56.378 56.378 0 00-2.989-4.822v7.313l2.99-2.491zm.789 1.513l-3.778 3.149V24.1l5.22-4.177c-.367-1.156-.868-2.348-1.442-3.514zm1.892 5.29l-5.67 4.535v3.681a6.686 6.686 0 005.834-6.63c0-.504-.065-1.038-.164-1.587z" fill="#303236"/><path fill-rule="evenodd" clip-rule="evenodd" d="M40 20c0 1.2-.715 2.21-1.346 3.1l-.002.003c-.413.584-.804 1.136-.94 1.644-.144.544-.083 1.241-.016 1.978.1 1.12.204 2.28-.374 3.278-.586 1.013-1.698 1.526-2.68 1.978l-.013.007c-.66.304-1.282.592-1.666.976-.385.385-.674 1.01-.98 1.672l-.002.007c-.452.981-.965 2.094-1.979 2.68-.999.579-2.156.474-3.274.373h-.003c-.738-.067-1.436-.13-1.979.016-.507.136-1.059.527-1.643.94l-.002.002C22.209 39.285 21.2 40 20 40s-2.21-.715-3.1-1.346l-.003-.001c-.584-.414-1.136-.805-1.644-.94-.545-.147-1.242-.084-1.978-.017h-.008c-1.118.1-2.273.202-3.27-.374-1.013-.586-1.526-1.698-1.978-2.68l-.007-.013c-.304-.66-.592-1.282-.976-1.666-.385-.385-1.01-.674-1.673-.98l-.006-.002c-.981-.452-2.094-.965-2.68-1.979-.577-.998-.474-2.157-.373-3.277v-.005c.066-.736.128-1.43-.016-1.974-.136-.507-.527-1.059-.94-1.643l-.002-.002C.715 22.209 0 21.2 0 20s.715-2.21 1.346-3.1l.001-.003c.414-.584.805-1.136.94-1.644.145-.543.083-1.241.017-1.978-.1-1.12-.204-2.28.374-3.278.586-1.013 1.698-1.526 2.68-1.978l.013-.007c.66-.304 1.282-.592 1.666-.976.385-.385.674-1.01.98-1.673l.002-.006c.452-.981.965-2.094 1.979-2.68.998-.577 2.153-.474 3.27-.374l.018.002c.733.065 1.425.126 1.968-.017.507-.136 1.059-.527 1.643-.94l.002-.002C17.791.715 18.8 0 20 0s2.21.715 3.1 1.346l.003.001c.584.414 1.136.805 1.644.94.54.144 1.23.083 1.963.018l.026-.002c1.117-.1 2.27-.202 3.267.375 1.013.586 1.526 1.698 1.978 2.68l.007.013c.304.66.592 1.282.976 1.666.385.385 1.01.674 1.672.98l.007.002c.981.452 2.094.965 2.68 1.979.578.998.474 2.157.373 3.277v.005c-.066.736-.128 1.43.016 1.974.136.507.527 1.059.94 1.643l.002.002C39.285 17.791 40 18.8 40 20zm-3.897 4.316c.213-.796.71-1.5 1.191-2.179.535-.754 1.04-1.468 1.04-2.137s-.505-1.383-1.04-2.137c-.48-.68-.978-1.383-1.191-2.179-.222-.83-.144-1.709-.067-2.558.081-.901.158-1.752-.156-2.293-.322-.557-1.105-.918-1.935-1.3-.768-.354-1.562-.72-2.16-1.318-.597-.597-.963-1.391-1.317-2.16-.383-.829-.744-1.613-1.3-1.935-.535-.31-1.375-.236-2.27-.158l-.024.002c-.85.076-1.73.155-2.558-.067-.796-.213-1.5-.71-2.179-1.191-.754-.535-1.468-1.04-2.137-1.04s-1.383.505-2.137 1.04c-.68.48-1.383.978-2.179 1.191-.831.222-1.71.143-2.558.067-.903-.083-1.754-.159-2.293.155-.557.323-.918 1.106-1.3 1.936-.354.768-.72 1.562-1.318 2.16-.597.597-1.391.963-2.16 1.317-.829.382-1.613.744-1.935 1.3-.313.54-.237 1.39-.156 2.29v.004c.076.85.155 1.728-.067 2.558-.213.796-.71 1.5-1.191 2.179-.535.754-1.04 1.468-1.04 2.137s.505 1.383 1.04 2.137c.48.68.978 1.383 1.191 2.179.222.83.143 1.709.067 2.558-.081.901-.158 1.752.155 2.294.323.556 1.106.918 1.936 1.3.768.353 1.562.72 2.16 1.317.597.597.963 1.391 1.317 2.16.382.829.744 1.613 1.3 1.935.542.313 1.391.237 2.294.156.434-.039.874-.078 1.313-.078.42 0 .839.036 1.245.145.796.213 1.5.71 2.179 1.191.754.535 1.468 1.04 2.137 1.04s1.383-.505 2.137-1.04c.68-.48 1.383-.978 2.179-1.191.83-.223 1.707-.144 2.558-.067h.007c.897.081 1.746.157 2.287-.155.556-.323.918-1.106 1.3-1.936.353-.768.72-1.562 1.317-2.16.597-.597 1.391-.963 2.16-1.317.829-.382 1.612-.744 1.935-1.3.313-.54.237-1.39.156-2.29v-.004c-.077-.85-.155-1.728.067-2.558z" fill="#303236"/></svg>