<svg width="39" height="40" fill="none" xmlns="http://www.w3.org/2000/svg"><path fill-rule="evenodd" clip-rule="evenodd" d="M19.53 4.63a2.58 2.58 0 00-1.486.475c-.44.309-.78.747-.98 1.257a2.93 2.93 0 00-.152 1.614c.103.541.355 1.04.728 1.432.372.392.848.66 1.367.77a2.55 2.55 0 001.546-.16 2.7 2.7 0 001.197-1.034 2.9 2.9 0 00.447-1.553c0-.74-.279-1.451-.778-1.977a2.606 2.606 0 00-1.89-.823zm-.214 1.655c.212-.045.432-.022.632.065s.372.236.494.428c.123.193.188.42.188.653 0 .313-.118.611-.325.83a1.052 1.052 0 01-1.384.144 1.156 1.156 0 01-.407-.524 1.234 1.234 0 01-.064-.68c.043-.228.15-.437.304-.6.155-.162.35-.272.562-.316z" fill="#303236"/><path fill-rule="evenodd" clip-rule="evenodd" d="M19.53 0a.761.761 0 00-.417.125L.897 12.032a.809.809 0 00-.316.4.848.848 0 00-.022.513.82.82 0 00.278.427.764.764 0 00.476.167h.791v25.645c0 .214.08.42.227.574a.768.768 0 00.557.242h33.3c.21 0 .411-.088.557-.242a.833.833 0 00.227-.574V13.54h.774c.172 0 .34-.06.475-.167a.818.818 0 00.28-.427.848.848 0 00-.023-.513.81.81 0 00-.316-.4L19.946.125A.76.76 0 0019.529 0zm0 1.78l15.494 10.128H4.034L19.53 1.779zM3.67 38.367V13.54h31.733v24.83H33.69V18.676c0-.213-.08-.42-.226-.574a.768.768 0 00-.557-.242H6.272a.768.768 0 00-.558.242.833.833 0 00-.226.574v19.691H3.671zm3.384 0V19.493h25.067v18.875h-1.538v-7.122c0-.214-.08-.42-.226-.574a.769.769 0 00-.558-.242h-2.985v-7.122c0-.214-.08-.42-.226-.574a.768.768 0 00-.558-.242H13.028a.769.769 0 00-.558.242.834.834 0 00-.226.574v7.122H9.259a.768.768 0 00-.558.242.833.833 0 00-.226.574v7.122h-1.42zm6.756-7.938v-6.306h4.935v6.306H13.81zm6.502 0v-6.306h4.935v6.306h-4.935zm-10.27 7.938v-6.306h5.506v6.306h-5.507zm7.073 0v-6.306h4.945v6.306h-4.945zm6.512 0v-6.306h5.389v6.306h-5.389z" fill="#303236"/></svg>