<svg width="39" height="42" fill="none" xmlns="http://www.w3.org/2000/svg"><path d="M23.49 6.128a.746.746 0 011.1 0 .86.86 0 010 1.166l-4.665 4.947a.747.747 0 01-1.1 0l-1.555-1.649a.86.86 0 010-1.166.747.747 0 011.1 0l1.005 1.066 4.115-4.364zM10.231 29.436c0-.456.348-.825.777-.825.43 0 .778.37.778.825 0 .455-.348.824-.777.824-.43 0-.778-.37-.778-.825zm3.986.317l1.73.688c.401.16.605.635.454 1.062-.15.425-.598.642-1 .482l-1.73-.688c-.402-.16-.605-.635-.455-1.061.151-.426.6-.642 1.001-.483zm1.729 4.21l-4.665-1.855c-.402-.16-.85.056-1 .483-.151.426.053.901.454 1.061l4.665 1.855c.09.036.182.053.273.053a.78.78 0 00.728-.535c.151-.426-.053-.902-.455-1.062z" fill="#303236"/><path fill-rule="evenodd" clip-rule="evenodd" d="M38.502 11.24l-4.341 4.604 4.341 4.604a.814.814 0 01.195.738.764.764 0 01-.495.56l-4.346 1.448V35.53a.779.779 0 01-.504.742l-13.26 4.687-.007.002a.694.694 0 01-.471-.007c-.038-.014-5.3-2.107-8.96-3.562l-2.84-1.13a.781.781 0 01-.479-.732V23.516L3.26 22.075a.758.758 0 01-.458-.47.823.823 0 01.06-.673l2.81-4.967-4.456-4.725a.814.814 0 01-.195-.74.764.764 0 01.496-.558l12.245-4.05C14.879 2.95 17.578 1 20.596 1c3.246 0 6.078 2.232 7.031 5.48L38.2 9.942c.246.08.435.293.497.558a.814.814 0 01-.194.74zM27.94 8.219a8.196 8.196 0 01-1.026 4.608l6.006 2.123 3.676-3.898-8.656-2.833zm-7.345-5.656c-2.516 0-4.756 1.694-5.574 4.216a6.572 6.572 0 00-.319 2.034c0 1.282.364 2.514 1.051 3.562 1.103 1.683 2.913 2.688 4.843 2.688 1.785 0 3.454-.845 4.58-2.317a6.41 6.41 0 001.313-3.933c0-.515-.059-1.027-.175-1.521-.656-2.785-3.007-4.73-5.718-4.73zM13.308 7.68L3.12 11.049l3.679 3.9 7.247-2.56a8.15 8.15 0 01-.816-3.577c0-.38.027-.76.078-1.132zm-6.38 9.103L4.596 20.9l11.828 4.182 2.33-4.117-11.829-4.182zm1.88 18.207l10.313 4.102v-15.74l-1.737 3.071a.729.729 0 01-.632.38h-.04c-.172-.002-.341-.107-7.904-2.767V34.99zm.12-19.146l10.93 3.864 10.93-3.864-4.809-1.7c-1.391 1.583-3.326 2.481-5.384 2.481-2.226 0-4.323-1.069-5.716-2.885l-5.952 2.104zm11.667 6.914v16.377l11.786-4.167V23.685l-8.379 2.792a.712.712 0 01-.796-.257l-2.611-3.462zm.498-1.84l2.949 3.909L36.6 20.64l-3.68-3.903-11.827 4.18z" fill="#303236"/><path d="M23.49 6.128a.746.746 0 011.1 0 .86.86 0 010 1.166l-4.665 4.947a.747.747 0 01-1.1 0l-1.555-1.649a.86.86 0 010-1.166.747.747 0 011.1 0l1.005 1.066 4.115-4.364zM10.231 29.436c0-.456.348-.825.777-.825.43 0 .778.37.778.825 0 .455-.348.824-.777.824-.43 0-.778-.37-.778-.825zm3.986.317l1.73.688c.401.16.605.635.454 1.062-.15.425-.598.642-1 .482l-1.73-.688c-.402-.16-.605-.635-.455-1.061.151-.426.6-.642 1.001-.483zm1.729 4.21l-4.665-1.855c-.402-.16-.85.056-1 .483-.151.426.053.901.454 1.061l4.665 1.855c.09.036.182.053.273.053a.78.78 0 00.728-.535c.151-.426-.053-.902-.455-1.062z" stroke="#303236" stroke-width=".2"/><path clip-rule="evenodd" d="M38.502 11.24l-4.341 4.604 4.341 4.604a.814.814 0 01.195.738.764.764 0 01-.495.56l-4.346 1.448V35.53a.779.779 0 01-.504.742l-13.26 4.687-.007.002a.694.694 0 01-.471-.007c-.038-.014-5.3-2.107-8.96-3.562l-2.84-1.13a.781.781 0 01-.479-.732V23.516L3.26 22.075a.758.758 0 01-.458-.47.823.823 0 01.06-.673l2.81-4.967-4.456-4.725a.814.814 0 01-.195-.74.764.764 0 01.496-.558l12.245-4.05C14.879 2.95 17.578 1 20.596 1c3.246 0 6.078 2.232 7.031 5.48L38.2 9.942c.246.08.435.293.497.558a.814.814 0 01-.194.74zM27.94 8.219a8.196 8.196 0 01-1.026 4.608l6.006 2.123 3.676-3.898-8.656-2.833zm-7.345-5.656c-2.516 0-4.756 1.694-5.574 4.216a6.572 6.572 0 00-.319 2.034c0 1.282.364 2.514 1.051 3.562 1.103 1.683 2.913 2.688 4.843 2.688 1.785 0 3.454-.845 4.58-2.317a6.41 6.41 0 001.313-3.933c0-.515-.059-1.027-.175-1.521-.656-2.785-3.007-4.73-5.718-4.73zM13.308 7.68L3.12 11.049l3.679 3.9 7.247-2.56a8.15 8.15 0 01-.816-3.577c0-.38.027-.76.078-1.132zm-6.38 9.103L4.596 20.9l11.828 4.182 2.33-4.117-11.829-4.182zm1.88 18.207l10.313 4.102v-15.74l-1.737 3.071a.729.729 0 01-.632.38h-.04c-.172-.002-.341-.107-7.904-2.767V34.99zm.12-19.146l10.93 3.864 10.93-3.864-4.809-1.7c-1.391 1.583-3.326 2.481-5.384 2.481-2.226 0-4.323-1.069-5.716-2.885l-5.952 2.104zm11.667 6.914v16.377l11.786-4.167V23.685l-8.379 2.792a.712.712 0 01-.796-.257l-2.611-3.462zm.498-1.84l2.949 3.909L36.6 20.64l-3.68-3.903-11.827 4.18z" stroke="#303236" stroke-width=".2"/></svg>