<svg width="41" height="32" fill="none" xmlns="http://www.w3.org/2000/svg"><path d="M32.61 10.62h-2.444l.736-8.965a.602.602 0 00.002-.048v-.004a.606.606 0 00-.343-.553l-.005-.003a.538.538 0 00-.039-.015l-.015-.005-.032-.01-.023-.005-.03-.005-.027-.004h-.005C30.375 1 30.365 1 30.355 1H21.19c-.314 0-.568.27-.568.603 0 .332.254.603.568.603h8.526l-1.13 13.777-.001.003-.286 3.476H8.543l.33-3.617h3.762c.314 0 .569-.27.569-.603 0-.333-.255-.603-.569-.603h-3.65l.697-7.637h5.986c.314 0 .569-.27.569-.603 0-.333-.255-.603-.569-.603H9.792l.328-3.59h6.306c.313 0 .569-.271.569-.603 0-.333-.256-.603-.569-.603H9.604c-.267 0-.5.2-.555.476l-.002.006a.688.688 0 00-.007.046l-.002.014v.003L8.65 5.796H1.758c-.314 0-.569.27-.569.603 0 .333.255.603.569.603h6.781l-.697 7.637H5.813c-.314 0-.568.27-.568.603 0 .333.254.602.568.602h1.919l-.38 4.158v.002l-.588 6.43v.004l-.001.025-.002.033v.002l.002.046.001.015a.618.618 0 00.007.046c0 .004 0 .009.002.013l.008.035c.002.007.003.016.006.023l.002.007a.61.61 0 00.135.236l.003.004.02.018c.038.038.083.07.131.096l.03.015.01.004a.592.592 0 00.043.017h.004a.59.59 0 00.052.014l.006.002a.555.555 0 00.05.007h.002a.52.52 0 00.055.003h2.532c.28 2.247 2.096 3.988 4.29 3.988s4.01-1.74 4.29-3.988h9.119c.28 2.247 2.096 3.988 4.29 3.988s4.01-1.74 4.29-3.988h2.533a.547.547 0 00.056-.003l.01-.001a.574.574 0 00.044-.007l.018-.005a.482.482 0 00.034-.009l.022-.008a.5.5 0 00.027-.01l.023-.011a.718.718 0 00.092-.056l.023-.017.018-.016a.513.513 0 00.023-.022l.015-.016a.656.656 0 00.023-.026l.012-.015a.578.578 0 00.024-.034l.008-.011a.613.613 0 00.026-.046l.001-.003a.633.633 0 00.024-.051l.005-.015a.646.646 0 00.013-.038l.007-.026.007-.03.005-.028.003-.024c.025-.205.47-3.993.669-6.442v-.007c.057-.706.094-1.3.094-1.665 0-4.322-3.315-7.838-7.39-7.838zm-2.543 1.205h2.326l-.297 3.618H29.77l.297-3.618zM14.152 29.881c-1.76 0-3.192-1.518-3.192-3.385 0-1.866 1.432-3.384 3.192-3.384 1.76 0 3.192 1.518 3.192 3.384 0 1.867-1.432 3.385-3.192 3.385zm17.7 0c-1.76 0-3.192-1.518-3.192-3.385 0-1.866 1.431-3.384 3.191-3.384 1.76 0 3.192 1.518 3.192 3.384 0 1.867-1.432 3.385-3.192 3.385zm6.319-3.988h-2.03c-.279-2.247-2.096-3.988-4.29-3.988s-4.01 1.74-4.29 3.988h-9.119c-.28-2.247-2.096-3.988-4.29-3.988s-4.01 1.74-4.29 3.988H7.956l.477-5.226H28.82c.02 0 .04 0 .058-.002l.01-.002a.55.55 0 00.044-.007l.019-.005a.524.524 0 00.034-.01l.022-.007.028-.011.024-.011a.529.529 0 00.07-.042l.022-.015a.625.625 0 00.146-.161.693.693 0 00.016-.028l.01-.022a.192.192 0 00.014-.029l.01-.023.01-.029.008-.026.007-.028.006-.03.005-.028.003-.03v-.004l.286-3.469h2.938c1.742 0 2.528.957 3.36 1.97.685.837 1.452 1.77 2.754 1.997a237.72 237.72 0 01-.552 5.278zm.65-6.486c-.846-.183-1.365-.813-1.995-1.58-.788-.96-1.75-2.13-3.592-2.348l.294-3.581c3.014.472 5.335 3.234 5.335 6.56 0 .225-.016.554-.043.949z" fill="#303236" stroke="#303236" stroke-width=".5"/></svg>