<svg width="16" height="19" fill="none" xmlns="http://www.w3.org/2000/svg"><path d="M8.015 7.746c-.704 0-1.275.556-1.275 1.243v5.261c0 .686.571 1.242 1.275 1.242s1.275-.556 1.275-1.242V8.99c0-.687-.57-1.243-1.275-1.243z" fill="#fff"/><path fill-rule="evenodd" clip-rule="evenodd" d="M3.714 19c-1.178 0-2.143-.95-2.143-2.111V5.278c0-.583.48-1.056 1.072-1.056h10.714c.592 0 1.072.473 1.072 1.056v11.61c0 1.162-.965 2.112-2.143 2.112H3.714zm8.572-12.667H3.714V16.89h8.572V6.333z" fill="#fff"/><path d="M11.436.746c.201.198.474.31.758.31h2.235c.591 0 1.071.472 1.071 1.055s-.48 1.056-1.071 1.056H1.57A1.064 1.064 0 01.5 2.11c0-.583.48-1.055 1.071-1.055h2.235c.284 0 .557-.112.758-.31L5.008.31c.2-.199.472-.31.757-.31h4.47c.284 0 .556.111.757.31l.444.436z" fill="#fff"/></svg>