<svg width="204" height="391" fill="none" xmlns="http://www.w3.org/2000/svg"><g opacity=".05" clip-path="url(#clip0_8_590)"><path d="M6.573 220.378c4.19-13.459 11.882-37.092 20.21-61.891C36.383 129.662 48 94.902 55.32 73.335l1.485-4.397-2.705-3.71a30.297 30.297 0 01-4.296-8.584 28.583 28.583 0 01-1.38-9.22 29.924 29.924 0 019.188-20.894 29.987 29.987 0 0121.26-8.355 29.983 29.983 0 0120.9 9.215 29.92 29.92 0 018.326 21.253 29.534 29.534 0 01-3.819 13.883 30.484 30.484 0 01-10.131 10.597l-3.236 2.014-29.333 141.108a449.568 449.568 0 01-55.218 4.08l.212.053zm136.268-31.846c0 5.299-15.913 12.876-41.745 19.764a310.763 310.763 0 01-20.421 4.61l15.913-77.68a251.798 251.798 0 0166.304 20.612c14.268 7.365 22.596 15.102 22.596 22.52v19.818a192.338 192.338 0 01-28.007 75.402 210.46 210.46 0 01-58.347 60.036l-3.978 2.702v14.89c0 2.437-11.352 7.312-28.909 12.452a246.8 246.8 0 01-132.13 0c-17.558-5.299-28.856-10.015-28.856-12.452v-14.89l-3.978-2.702a223.402 223.402 0 01-62.379-62.792A150.275 150.275 0 01-184.7 198.97v-20.347c0-12.081 19.414-24.11 50.391-33.806 34.478-11.022 82.217-17.805 134.305-18.175v-18.016c-53.839.371-103.646 7.577-139.821 18.969-38.722 12.188-63.122 30.045-63.122 51.028v20.824a168.494 168.494 0 0026.893 81.284 239.677 239.677 0 0063.652 65.282v5.299c0 10.597 16.443 22.308 41.904 29.779 46.546 13 95.769 13 142.314 0 25.461-7.471 41.905-19.182 41.905-29.779v-5.299a226.432 226.432 0 0059.567-62.473 210.07 210.07 0 0030.765-83.298v-21.619c0-14.89-11.935-27.978-32.409-38.522a268.005 268.005 0 00-70.972-22.202l6.365-31.793a48.82 48.82 0 0012.943-14.784 47.655 47.655 0 006.1-22.626 48.034 48.034 0 00-13.565-33.992A48.134 48.134 0 0078.925.106a47.783 47.783 0 00-18.412 3.313A47.744 47.744 0 0044.79 13.546a47.69 47.69 0 00-10.62 15.386 47.65 47.65 0 00-3.886 18.28c-.08 5.03.655 10.04 2.175 14.837a47.67 47.67 0 004.243 9.644c-6.63 19.711-16.815 49.968-27.105 81.072-9.6 28.825-18.353 55.425-21.96 67.454a398.662 398.662 0 01-90.173-11.711c-25.832-6.888-41.798-14.359-41.798-19.764h-18.088c0 14.095 21.217 28.083 55.271 37.091a459.156 459.156 0 00212.862 0c34.16-9.113 55.271-23.102 55.271-37.091l-18.141-.212z" fill="#535673"/></g><defs><clipPath id="clip0_8_590"><path fill="#fff" transform="matrix(-1 0 0 1 204 0)" d="M0 0h407v391H0z"/></clipPath></defs></svg>