<svg width="17" height="15" fill="none" xmlns="http://www.w3.org/2000/svg"><path fill-rule="evenodd" clip-rule="evenodd" d="M5.673 9.375h8.501c.21 0 .393-.139.45-.34L16.5 2.473a.469.469 0 00-.451-.598H4.592L4.256.367A.469.469 0 003.8 0H.986a.469.469 0 100 .938h2.437l1.692 7.615a1.408 1.408 0 00-.847 1.29c0 .776.63 1.407 1.406 1.407h.937a1.407 1.407 0 10.001 2.81 1.407 1.407 0 00-.001-2.81h6.625a1.407 1.407 0 10.001 2.81 1.407 1.407 0 00-.001-2.81h.938a.469.469 0 100-.938h-8.5a.47.47 0 01-.001-.937zm9.754-6.563L13.82 8.439H6.05L4.8 2.811h10.627zm-8.816 9.376a.47.47 0 110 .938.47.47 0 010-.938zm7.094.468a.47.47 0 10-.939.001.47.47 0 00.94 0z" fill="#7F878B"/></svg>