<svg width="17" height="14" fill="none" xmlns="http://www.w3.org/2000/svg"><path fill-rule="evenodd" clip-rule="evenodd" d="M.5 1.054C.5.748.755.5 1.07.5h2.036c.245 0 .463.153.54.379l.481 1.402H15.93c.183 0 .355.086.462.23a.54.54 0 01.079.5l-1.832 5.342a.569.569 0 01-.541.379h-8.55a.642.642 0 00-.651.633c0 .35.292.633.651.633h8.143c.315 0 .57.248.57.554a.557.557 0 01-.41.532c.154.242.243.527.243.833 0 .874-.729 1.583-1.628 1.583-.9 0-1.628-.709-1.628-1.583 0-.296.083-.573.229-.81H8.136c.145.237.229.514.229.81 0 .874-.73 1.583-1.629 1.583s-1.628-.709-1.628-1.583c0-.3.086-.582.236-.822-.893-.098-1.587-.835-1.587-1.73A1.74 1.74 0 014.81 7.778l-2.115-6.17H1.07a.562.562 0 01-.57-.554zm5.46 6.57h7.727l1.452-4.235H4.507L5.96 7.624zm1.265 4.293a.482.482 0 01-.489.475.482.482 0 01-.488-.475c0-.262.219-.475.488-.475.27 0 .489.213.489.475zm5.73 0a.482.482 0 01-.489.475.482.482 0 01-.489-.475c0-.262.22-.475.489-.475.27 0 .489.213.489.475z" fill="#fff"/></svg>