<svg width="10" height="14" fill="none" xmlns="http://www.w3.org/2000/svg"><path d="M5.01 5.8a.85.85 0 00-.85.85v3.6a.85.85 0 101.7 0v-3.6a.85.85 0 00-.85-.85z" fill="#7F878B"/><path fill-rule="evenodd" clip-rule="evenodd" d="M2.143 13.5a1.44 1.44 0 01-1.429-1.444V4.11c0-.399.32-.722.715-.722H8.57c.395 0 .715.323.715.722v7.945A1.44 1.44 0 017.857 13.5H2.143zm5.714-8.667H2.143v7.223h5.714V4.833z" fill="#7F878B"/><path d="M7.29 1.01a.71.71 0 00.506.212h1.49c.394 0 .714.324.714.722 0 .4-.32.723-.714.723H.714A.718.718 0 010 1.944c0-.398.32-.722.714-.722h1.49a.71.71 0 00.505-.211l.296-.3A.71.71 0 013.51.5h2.98a.71.71 0 01.505.212l.296.299z" fill="#7F878B"/></svg>