<svg width="16" height="16" fill="none" xmlns="http://www.w3.org/2000/svg"><path fill-rule="evenodd" clip-rule="evenodd" d="M0 1a1 1 0 011-1h5a1 1 0 011 1v5a1 1 0 01-1 1H1a1 1 0 01-1-1V1zm1.4 4.6V1.4h4.2v4.2H1.4zM0 10a1 1 0 011-1h5a1 1 0 011 1v5a1 1 0 01-1 1H1a1 1 0 01-1-1v-5zm1.4 4.6v-4.2h4.2v4.2H1.4zM10 0a1 1 0 00-1 1v5a1 1 0 001 1h5a1 1 0 001-1V1a1 1 0 00-1-1h-5zm.4 1.4v4.2h4.2V1.4h-4.2zM9 10a1 1 0 011-1h5a1 1 0 011 1v5a1 1 0 01-1 1h-5a1 1 0 01-1-1v-5zm1.4 4.6v-4.2h4.2v4.2h-4.2z" fill="#848AA5"/></svg>