<svg width="64" height="42" fill="none" xmlns="http://www.w3.org/2000/svg"><g clip-path="url(#clip0_8_604)"><path d="M48.476 41.827a18.92 18.92 0 00-.194-18.847 18.986 18.986 0 00-6.95-6.86 19.05 19.05 0 00-18.898 0 18.987 18.987 0 00-6.95 6.86 18.923 18.923 0 00-.194 18.847H9.758a23.867 23.867 0 012.14-22.507 23.967 23.967 0 018.644-7.842 24.04 24.04 0 0122.668 0 23.967 23.967 0 018.645 7.842 23.868 23.868 0 012.14 22.506h-5.518z" fill="#fff"/><path d="M60.191 41.827a29.65 29.65 0 00-4.17-26.715A29.783 29.783 0 0045.43 6.07a29.87 29.87 0 00-27.108 0 29.783 29.783 0 00-10.59 9.043 29.65 29.65 0 00-4.17 26.715H1.383A31.708 31.708 0 01.46 27.154a31.745 31.745 0 015.796-13.517A31.854 31.854 0 0117.53 4.166a31.945 31.945 0 0128.682 0 31.853 31.853 0 0111.275 9.471 31.744 31.744 0 015.795 13.517 31.71 31.71 0 01-.921 14.673h-2.17z" fill="#4FB26A"/></g><defs><clipPath id="clip0_8_604"><path fill="#fff" transform="rotate(-90 20.913 20.913)" d="M0 0h41.04v63.75H0z"/></clipPath></defs></svg>