<svg width="255" height="162" fill="none" xmlns="http://www.w3.org/2000/svg"><g clip-path="url(#clip0_5_223)"><path d="M193.905 162a73.92 73.92 0 009.67-37.299 73.967 73.967 0 00-10.446-37.096c-6.709-11.258-16.292-20.593-27.799-27.08a76.988 76.988 0 00-37.797-9.899 76.992 76.992 0 00-37.797 9.9c-11.506 6.486-21.09 15.821-27.798 27.079A73.952 73.952 0 0051.492 124.7a73.915 73.915 0 009.67 37.3H39.026a93.091 93.091 0 01-7.055-45.478c1.493-15.5 6.857-30.396 15.614-43.363 8.757-12.967 20.635-23.601 34.578-30.957A97.185 97.185 0 01127.5 30.997a97.181 97.181 0 0145.336 11.205c13.943 7.356 25.821 17.99 34.578 30.957 8.757 12.967 14.121 27.863 15.614 43.363A93.08 93.08 0 01215.973 162h-22.068z" fill="#fff"/><path d="M240.764 162a115.586 115.586 0 004.546-54.7c-2.9-18.331-10.175-35.724-21.227-50.752-11.053-15.028-25.569-27.262-42.356-35.699a120.779 120.779 0 00-54.218-12.835c-18.85 0-37.43 4.399-54.218 12.835-16.788 8.437-31.304 20.671-42.356 35.7C19.882 71.575 12.607 88.968 9.708 107.3a115.568 115.568 0 004.546 54.7H5.526a123.58 123.58 0 01-3.688-57.918c3.386-19.324 11.326-37.598 23.184-53.357C36.879 34.967 52.325 22.162 70.119 13.34A129.172 129.172 0 01127.483-.079c19.924 0 39.571 4.596 57.365 13.418 17.794 8.823 33.239 21.627 45.097 37.386 11.858 15.759 19.798 34.033 23.184 53.357A123.594 123.594 0 01249.442 162h-8.678z" fill="#4FB26A"/></g><defs><clipPath id="clip0_5_223"><path fill="#fff" transform="rotate(-90 81 81)" d="M0 0h162v255H0z"/></clipPath></defs></svg>