<?xml version="1.0" encoding="utf-8"?>
<!-- Generator: Adobe Illustrator 25.3.1, SVG Export Plug-In . SVG Version: 6.00 Build 0)  -->
<svg version="1.1" id="Слой_1" xmlns="http://www.w3.org/2000/svg" xmlns:xlink="http://www.w3.org/1999/xlink" x="0px" y="0px"
	 viewBox="0 0 60 60" style="enable-background:new 0 0 60 60;" xml:space="preserve">
<style type="text/css">
	.st0{fill:#848AA5;}
</style>
<path class="st0" d="M29.6,3.8l-1.1-1.3c-0.4-0.5-0.3-1.1,0.2-1.5c0.5-0.4,1.1-0.3,1.5,0.2l2.6,3.2c0.4,0.5,0.3,1.1-0.2,1.5
	l-3.2,2.6c-0.5,0.4-1.1,0.3-1.5-0.2c-0.4-0.5-0.3-1.1,0.2-1.5L29,5.9c-5.5,0.2-10.7,2.2-15,5.7c-10.9,8.9-12.5,25-3.6,35.8
	c8.9,10.9,25,12.5,35.8,3.6c10.9-8.9,12.5-25,3.6-35.8c-0.7-0.8-1.4-1.6-2.1-2.3c-0.4-0.4-0.4-1.1,0-1.5c0.4-0.4,1.1-0.4,1.5,0
	c0.8,0.8,1.6,1.6,2.3,2.5c4.7,5.7,6.8,12.9,6.1,20.2c-0.7,7.3-4.3,14-10,18.6s-12.9,6.8-20.2,6.1c-7.3-0.7-14-4.3-18.6-10
	C4.1,43.2,2,36,2.7,28.7c0.7-7.3,4.3-14,10-18.6C17.5,6.1,23.4,3.9,29.6,3.8z"/>
<path class="st0" d="M14.2,20c-0.5-0.3-1.2-0.2-1.5,0.3c-2.5,3.9-3.6,8.6-3.1,13.2c0.5,4.7,2.6,9.1,5.9,12.4c4,4,9.3,6,14.6,6
	s10.5-2,14.6-6c8-8,8-21.1,0-29.1c-3.3-3.3-7.7-5.4-12.4-5.9c-4.6-0.5-9.3,0.6-13.1,3c-0.5,0.3-0.7,1-0.3,1.5c0.3,0.5,1,0.7,1.5,0.3
	c7.3-4.6,16.7-3.6,22.9,2.6c7.2,7.2,7.2,18.9,0,26.1c-7.2,7.2-18.9,7.2-26.1,0c-6-6-7.1-15.7-2.6-22.9C14.9,21,14.8,20.4,14.2,20z"
	/>
<path class="st0" d="M44.2,32.5h1.3c0.6,0,1.1-0.5,1.1-1.1c0-0.6-0.5-1.1-1.1-1.1h-1.3c-0.6,0-1.1,0.5-1.1,1.1
	C43.1,32,43.6,32.5,44.2,32.5z"/>
<path class="st0" d="M13.7,31.4c0,0.6,0.5,1.1,1.1,1.1h1.3c0.6,0,1.1-0.5,1.1-1.1s-0.5-1.1-1.1-1.1h-1.3
	C14.2,30.3,13.7,30.8,13.7,31.4z"/>
<path class="st0" d="M31.3,17.4V16c0-0.6-0.5-1.1-1.1-1.1c-0.6,0-1.1,0.5-1.1,1.1v1.3c0,0.6,0.5,1.1,1.1,1.1
	C30.8,18.4,31.3,18,31.3,17.4z"/>
<path class="st0" d="M29.1,45.4v1.3c0,0.6,0.5,1.1,1.1,1.1s1.1-0.5,1.1-1.1v-1.3c0-0.6-0.5-1.1-1.1-1.1S29.1,44.8,29.1,45.4z"/>
<path class="st0" d="M24.8,24.5c-0.4-0.4-1.1-0.4-1.5,0c-0.4,0.4-0.4,1.1,0,1.5l3.7,3.7c-0.3,0.5-0.4,1.1-0.4,1.7
	c0,2,1.7,3.7,3.7,3.7s3.7-1.7,3.7-3.7c0-0.6-0.2-1.2-0.4-1.7l7.4-7.4c0.4-0.4,0.4-1.1,0-1.5c-0.4-0.4-1.1-0.4-1.5,0l-7.4,7.4
	c-0.5-0.3-1.1-0.4-1.7-0.4s-1.2,0.2-1.7,0.4L24.8,24.5z M31.7,31.4c0,0.9-0.7,1.6-1.6,1.6c-0.9,0-1.6-0.7-1.6-1.6
	c0-0.9,0.7-1.6,1.6-1.6C31,29.8,31.7,30.5,31.7,31.4z"/>
<path class="st0" d="M17.1,18.3c0.2-0.2,0.3-0.5,0.3-0.8s-0.1-0.6-0.3-0.8c-0.2-0.2-0.5-0.3-0.8-0.3c-0.3,0-0.6,0.1-0.8,0.3
	c-0.2,0.2-0.3,0.5-0.3,0.8c0,0.3,0.1,0.6,0.3,0.8c0.2,0.2,0.5,0.3,0.8,0.3C16.7,18.7,16.9,18.5,17.1,18.3z"/>
<path class="st0" d="M37.6,7c0.3,0,0.6-0.1,0.8-0.3c0.2-0.2,0.3-0.5,0.3-0.8c0-0.3-0.1-0.6-0.3-0.8c-0.2-0.2-0.5-0.3-0.8-0.3
	c-0.3,0-0.6,0.1-0.8,0.3c-0.2,0.2-0.3,0.5-0.3,0.8c0,0.3,0.1,0.6,0.3,0.8C37.1,6.9,37.4,7,37.6,7z"/>
</svg>
