<svg width="56" height="57" fill="none" xmlns="http://www.w3.org/2000/svg"><path d="M19.93 23.373h1.508a.752.752 0 010 1.503H19.93a.752.752 0 010-1.503z" fill="#40BF6A"/><path fill-rule="evenodd" clip-rule="evenodd" d="M24.208 41.996a.752.752 0 00-.751-.751 6.629 6.629 0 00-3.15.786 5.53 5.53 0 00-2.415-2.881.75.75 0 00-.754 0 5.528 5.528 0 00-2.414 2.881 6.63 6.63 0 00-3.15-.786.752.752 0 00-.751.752v.1c0 1.507.51 2.969 1.45 4.147a4.175 4.175 0 00-1.35 1.417.751.751 0 000 .753 4.177 4.177 0 006.592.846 4.175 4.175 0 006.59-.846.75.75 0 000-.753 4.174 4.174 0 00-1.348-1.417 6.656 6.656 0 001.451-4.147v-.1zm-3.572 1.586c.61-.399 1.3-.662 2.02-.773a5.24 5.24 0 01-2.752 3.892c.06-.031.112-.179.15-.285a.83.83 0 01.035-.093 5.509 5.509 0 00.545-2.741h.002zm-3.121-2.886a4.004 4.004 0 010 6.436 4.001 4.001 0 010-6.436zm-3.119 2.886a5.456 5.456 0 00.566 2.776c.06.11.113.224.16.34a5.239 5.239 0 01-2.748-3.89 5.12 5.12 0 012.022.774zM14.545 49a2.69 2.69 0 01-2.056-.964c.24-.288.54-.522.878-.687a6.777 6.777 0 002.58 1.255 2.678 2.678 0 01-1.4.396h-.002zm5.94 0c-.495 0-.98-.138-1.401-.398a6.782 6.782 0 002.58-1.255c.337.165.636.399.877.687a2.687 2.687 0 01-2.056.966zm21.692-11.946c-3.533 0-6.3-4.999-6.3-11.38 0-6.38 2.767-11.379 6.3-11.379 3.532 0 6.3 4.999 6.3 11.38 0 6.38-2.768 11.38-6.3 11.38zm0-1.503c2.6 0 4.796-4.523 4.796-9.876 0-5.354-2.196-9.877-4.796-9.877s-4.797 4.523-4.797 9.877c0 5.354 2.197 9.876 4.797 9.876z" fill="#40BF6A"/><path fill-rule="evenodd" clip-rule="evenodd" d="M29.64 1h25.074a.753.753 0 01.752.751v3.736c0 .007-.002.013-.003.02l-.002.02v.033l-3.993 40.374a.698.698 0 01-.074.25v7.312a2.47 2.47 0 01-2.469 2.47H35.352a2.473 2.473 0 01-2.47-2.47v-2.585a21.005 21.005 0 01-2.804 4.797.747.747 0 01-.592.292H5.546a.746.746 0 01-.593-.292A21.08 21.08 0 01.5 42.778v-8.472a.749.749 0 01.751-.752H3.06v-4.947a.752.752 0 01.752-.751H4.82v-.726a3.76 3.76 0 013.062-3.693 5.239 5.239 0 015.187-4.547 7.681 7.681 0 006.06-2.99l2.232-2.915a.707.707 0 01.605-.292.746.746 0 01.597.31l1.86 2.563a14.538 14.538 0 012.757 7.875 3.765 3.765 0 013.031 3.689v.726h.885L28.893 5.56a.094.094 0 010-.034.116.116 0 00-.002-.02l-.002-.019V1.751A.753.753 0 0129.64 1zM6.988 25.535a2.261 2.261 0 00-.665 1.595v.726h22.386v-.726a2.26 2.26 0 00-2.255-2.254h-.013a.379.379 0 01-.069-.009.427.427 0 01-.073.009h-2.087a.751.751 0 110-1.503h1.452c-.136-2.497-.99-4.9-2.46-6.923l-1.263-1.747-1.623 2.113a9.188 9.188 0 01-7.249 3.576 3.736 3.736 0 00-3.654 2.98h5.54a.752.752 0 010 1.504h-6.37a2.26 2.26 0 00-1.597.659zm6.717 6.67H4.562v1.35H30.47v-1.35h-9.142a.751.751 0 010-1.502h9.142v-1.344H4.562v1.344h9.143a.751.751 0 110 1.503zm19.28 11.762c.026-.399.043-.798.043-1.19v-7.72H2.003v7.72a19.606 19.606 0 003.912 11.72h23.197a19.593 19.593 0 003.865-10.358l.004-.086.004-.086zM49.608 54.18a.969.969 0 00.284-.683v-3.933H34.385v3.933a.968.968 0 00.967.967h13.573a.97.97 0 00.683-.284zm-15.223-6.12h15.507v-1.446H34.385v1.447zm.013-2.95h15.64l3.847-38.87H30.47l2.701 27.315h.61a.748.748 0 01.751.752v8.472a21.957 21.957 0 01-.034 1.127l-.004.06a19.628 19.628 0 01-.082.994l-.013.15zM30.392 4.737h23.57V2.503h-23.57v2.233z" fill="#40BF6A"/><path d="M19.93 23.373h1.508a.752.752 0 010 1.503H19.93a.752.752 0 010-1.503z" stroke="#40BF6A" stroke-width=".3"/><path clip-rule="evenodd" d="M24.208 41.996a.752.752 0 00-.751-.751 6.629 6.629 0 00-3.15.786 5.53 5.53 0 00-2.415-2.881.75.75 0 00-.754 0 5.528 5.528 0 00-2.414 2.881 6.63 6.63 0 00-3.15-.786.752.752 0 00-.751.752v.1c0 1.507.51 2.969 1.45 4.147a4.175 4.175 0 00-1.35 1.417.751.751 0 000 .753 4.177 4.177 0 006.592.846 4.175 4.175 0 006.59-.846.75.75 0 000-.753 4.174 4.174 0 00-1.348-1.417 6.656 6.656 0 001.451-4.147v-.1zm-3.572 1.586c.61-.399 1.3-.662 2.02-.773a5.24 5.24 0 01-2.752 3.892c.06-.031.112-.179.15-.285a.83.83 0 01.035-.093 5.509 5.509 0 00.545-2.741h.002zm-3.121-2.886a4.004 4.004 0 010 6.436 4.001 4.001 0 010-6.436zm-3.119 2.886a5.456 5.456 0 00.566 2.776c.06.11.113.224.16.34a5.239 5.239 0 01-2.748-3.89 5.12 5.12 0 012.022.774zM14.545 49a2.69 2.69 0 01-2.056-.964c.24-.288.54-.522.878-.687a6.777 6.777 0 002.58 1.255 2.678 2.678 0 01-1.4.396h-.002zm5.94 0c-.495 0-.98-.138-1.401-.398a6.782 6.782 0 002.58-1.255c.337.165.636.399.877.687a2.687 2.687 0 01-2.056.966zm21.692-11.946c-3.533 0-6.3-4.999-6.3-11.38 0-6.38 2.767-11.379 6.3-11.379 3.532 0 6.3 4.999 6.3 11.38 0 6.38-2.768 11.38-6.3 11.38zm0-1.503c2.6 0 4.796-4.523 4.796-9.876 0-5.354-2.196-9.877-4.796-9.877s-4.797 4.523-4.797 9.877c0 5.354 2.197 9.876 4.797 9.876z" stroke="#40BF6A" stroke-width=".3"/><path clip-rule="evenodd" d="M29.64 1h25.074a.753.753 0 01.752.751v3.736c0 .007-.002.013-.003.02l-.002.02v.033l-3.993 40.374a.698.698 0 01-.074.25v7.312a2.47 2.47 0 01-2.469 2.47H35.352a2.473 2.473 0 01-2.47-2.47v-2.585a21.005 21.005 0 01-2.804 4.797.747.747 0 01-.592.292H5.546a.746.746 0 01-.593-.292A21.08 21.08 0 01.5 42.778v-8.472a.749.749 0 01.751-.752H3.06v-4.947a.752.752 0 01.752-.751H4.82v-.726a3.76 3.76 0 013.062-3.693 5.239 5.239 0 015.187-4.547 7.681 7.681 0 006.06-2.99l2.232-2.915a.707.707 0 01.605-.292.746.746 0 01.597.31l1.86 2.563a14.538 14.538 0 012.757 7.875 3.765 3.765 0 013.031 3.689v.726h.885L28.893 5.56a.094.094 0 010-.034.116.116 0 00-.002-.02l-.002-.019V1.751A.753.753 0 0129.64 1zM6.988 25.535a2.261 2.261 0 00-.665 1.595v.726h22.386v-.726a2.26 2.26 0 00-2.255-2.254h-.013a.379.379 0 01-.069-.009.427.427 0 01-.073.009h-2.087a.751.751 0 110-1.503h1.452c-.136-2.497-.99-4.9-2.46-6.923l-1.263-1.747-1.623 2.113a9.188 9.188 0 01-7.249 3.576 3.736 3.736 0 00-3.654 2.98h5.54a.752.752 0 010 1.504h-6.37a2.26 2.26 0 00-1.597.659zm6.717 6.67H4.562v1.35H30.47v-1.35h-9.142a.751.751 0 010-1.502h9.142v-1.344H4.562v1.344h9.143a.751.751 0 110 1.503zm19.28 11.762c.026-.399.043-.798.043-1.19v-7.72H2.003v7.72a19.606 19.606 0 003.912 11.72h23.197a19.593 19.593 0 003.865-10.358l.004-.086.004-.086zM49.608 54.18a.969.969 0 00.284-.683v-3.933H34.385v3.933a.968.968 0 00.967.967h13.573a.97.97 0 00.683-.284zm-15.223-6.12h15.507v-1.446H34.385v1.447zm.013-2.95h15.64l3.847-38.87H30.47l2.701 27.315h.61a.748.748 0 01.751.752v8.472a21.957 21.957 0 01-.034 1.127l-.004.06a19.628 19.628 0 01-.082.994l-.013.15zM30.392 4.737h23.57V2.503h-23.57v2.233z" stroke="#40BF6A" stroke-width=".3"/></svg>