<svg width="104" height="104" fill="none" xmlns="http://www.w3.org/2000/svg"><g clip-path="url(#clip0)" fill="#000"><path d="M66.93 46.653c0 12.073 5.235 21.532 11.92 21.532 6.684 0 11.919-9.459 11.919-21.532s-5.236-21.53-11.92-21.53-11.92 9.457-11.92 21.53zm20.995 0c0 10.13-4.156 18.688-9.076 18.688-4.92 0-9.076-8.557-9.076-18.688 0-10.13 4.156-18.687 9.076-18.687 4.92 0 9.076 8.557 9.076 18.687z"/><path d="M102.571-.034H55.129a1.423 1.423 0 00-1.422 1.422v7.07c0 .023.008.048.008.072a.178.178 0 000 .065l4.168 42.185H56.21v-1.373a7.122 7.122 0 00-5.736-6.98 27.507 27.507 0 00-5.216-14.9l-3.518-4.851a1.412 1.412 0 00-1.13-.585 1.337 1.337 0 00-1.145.552L35.24 28.16a14.53 14.53 0 01-11.464 5.655 9.912 9.912 0 00-9.816 8.605 7.116 7.116 0 00-5.793 6.987v1.373h-1.91a1.423 1.423 0 00-1.42 1.422v9.36H1.413a1.417 1.417 0 00-1.421 1.422v16.03a39.885 39.885 0 008.425 24.465 1.414 1.414 0 001.121.553h45.297a1.412 1.412 0 001.122-.553 39.746 39.746 0 005.305-9.076v4.891a4.679 4.679 0 004.672 4.671h25.683a4.672 4.672 0 004.672-4.67V85.457a1.32 1.32 0 00.138-.472l7.556-76.39V8.53c0-.024.009-.049.009-.073V1.388a1.424 1.424 0 00-1.422-1.422zm-91.56 49.441a4.279 4.279 0 014.28-4.265h12.05a1.422 1.422 0 100-2.844h-10.48a7.069 7.069 0 016.913-5.639 17.379 17.379 0 0013.715-6.768l3.072-3.998 2.388 3.307a24.538 24.538 0 014.656 13.098H44.86a1.422 1.422 0 100 2.843h3.948a.814.814 0 00.139-.016c.043.01.086.015.13.017h.024a4.275 4.275 0 014.266 4.265v1.373H11.01v-1.373zm-3.332 9.604h17.298a1.422 1.422 0 000-2.844H7.679v-2.543h49.018v2.543H39.399a1.421 1.421 0 100 2.844h17.298v2.551H7.679v-2.551zm53.86 20.003c0 .74-.032 1.496-.08 2.251-.009.106-.009.22-.017.325a37.073 37.073 0 01-7.313 19.598H10.24a37.097 37.097 0 01-7.403-22.174V64.406H61.54v14.608zm31.907 20.28a1.833 1.833 0 01-1.828 1.829H65.935a1.832 1.832 0 01-1.828-1.829v-7.442h29.34v7.442zm0-10.286H64.107V86.27h29.34v2.738zm.277-5.582H64.13l.025-.284a37.44 37.44 0 00.138-1.633c.008-.163.024-.325.032-.487.033-.667.057-1.341.057-2.008v-16.03a1.415 1.415 0 00-.877-1.315 1.417 1.417 0 00-.545-.107h-1.154L56.697 9.88h44.306l-7.28 73.547zm7.426-76.39H56.551V2.81h44.598v4.225z"/><path d="M44.851 77.535a1.422 1.422 0 00-1.422-1.421A12.544 12.544 0 0037.47 77.6a10.463 10.463 0 00-4.57-5.45 1.42 1.42 0 00-1.426 0 10.46 10.46 0 00-4.569 5.45 12.543 12.543 0 00-5.959-1.487 1.423 1.423 0 00-1.421 1.422v.19c0 2.851.967 5.618 2.743 7.847a7.9 7.9 0 00-2.553 2.682 1.423 1.423 0 000 1.424 7.902 7.902 0 0012.472 1.601 7.9 7.9 0 0012.47-1.602 1.421 1.421 0 000-1.423 7.9 7.9 0 00-2.552-2.681 12.594 12.594 0 002.746-7.848v-.19zm-6.76 3a9.675 9.675 0 013.825-1.462 9.913 9.913 0 01-5.209 7.365c.154-.081.281-.569.35-.716a12.4 12.4 0 00.552-1.386c.393-1.226.556-2.515.48-3.8h.003zm-5.904-5.46a7.574 7.574 0 010 12.179 7.572 7.572 0 010-12.179zm-5.902 5.46a10.328 10.328 0 001.072 5.254c.112.208.213.422.302.641a9.91 9.91 0 01-5.2-7.358c1.366.21 2.67.709 3.826 1.464zm.282 10.253a5.09 5.09 0 01-3.89-1.824 5.061 5.061 0 011.66-1.3 12.824 12.824 0 004.882 2.375 5.067 5.067 0 01-2.65.749h-.002zm11.24 0a5.059 5.059 0 01-2.651-.753 12.821 12.821 0 004.88-2.375c.64.312 1.206.754 1.662 1.3a5.085 5.085 0 01-3.892 1.828zm1.803-48.489h-2.854a1.423 1.423 0 000 2.844h2.854a1.422 1.422 0 100-2.844z"/></g><defs><clipPath id="clip0"><path fill="#fff" d="M0 0h104v104H0z"/></clipPath></defs></svg>