<svg width="52" height="42" fill="none" xmlns="http://www.w3.org/2000/svg"><path d="M46.15 30.164c-1.625 0-3.006.658-4.063 1.644L35.75 28.11c.406-.987.65-2.055.65-3.206 0-5.014-4.144-9.205-9.1-9.205-.731 0-1.381.164-2.031.246l-2.6-5.671c1.218-1.069 2.031-2.63 2.031-4.356C24.7 2.63 22.019 0 18.85 0 15.6 0 13 2.63 13 5.918c0 3.205 2.6 5.918 5.85 5.918 0 0 .081-.083.162-.083l2.763 5.918c-2.194 1.644-3.575 4.274-3.575 7.233 0 5.096 4.063 9.206 9.1 9.206a8.919 8.919 0 006.338-2.63l6.743 3.863c-.081.246-.081.493-.081.74C40.3 39.37 42.9 42 46.15 42c3.169 0 5.85-2.63 5.85-5.918 0-3.205-2.681-5.918-5.85-5.918zM18.85 7.808c-1.138 0-1.95-.822-1.95-1.972 0-1.069.813-1.973 1.95-1.973 1.056 0 1.95.904 1.95 1.973 0 1.15-.894 1.972-1.95 1.972zm8.45 22.356c-2.925 0-5.2-2.301-5.2-5.26 0-2.877 2.275-5.26 5.2-5.26 2.844 0 5.2 2.383 5.2 5.26 0 2.959-2.356 5.26-5.2 5.26zm18.85 7.89c-1.137 0-1.95-.821-1.95-1.972 0-1.068.813-1.972 1.95-1.972 1.056 0 1.95.904 1.95 1.972 0 1.15-.894 1.973-1.95 1.973zm-4.469-21.451l-1.543-2.055-3.9 2.959 1.543 2.055 3.9-2.96zm5.119-.904c2.844 0 5.2-2.302 5.2-5.26 0-2.877-2.356-5.26-5.2-5.26-2.925 0-5.2 2.383-5.2 5.26 0 2.958 2.275 5.26 5.2 5.26zm-34.45 10.52h3.9v-2.63h-3.9v2.63zM5.2 19.644c-2.925 0-5.2 2.383-5.2 5.26 0 2.959 2.275 5.26 5.2 5.26 2.844 0 5.2-2.301 5.2-5.26 0-2.877-2.356-5.26-5.2-5.26z" fill="#40BF6A"/></svg>