<svg width="35" height="46" fill="none" xmlns="http://www.w3.org/2000/svg"><path fill-rule="evenodd" clip-rule="evenodd" d="M19.065 25.048c0 2.003-1.454 3.438-3.452 3.438-1.988 0-3.442-1.435-3.442-3.438s1.454-3.439 3.442-3.439c1.998 0 3.452 1.435 3.452 3.439zm-5.45 0c0 1.236.781 2.183 1.998 2.183s2.008-.947 2.008-2.183c0-1.246-.791-2.183-2.008-2.183-1.216 0-1.998.937-1.998 2.183zm-5.527 3.319c2.067 0 3.502-1.316 3.502-3.32 0-2.003-1.435-3.328-3.502-3.328H5.487v6.648h2.601zm0-1.246H6.891v-4.156h1.197c1.355 0 2.067.907 2.067 2.083 0 1.126-.761 2.073-2.067 2.073z" fill="#848AA5"/><path d="M3.668 28.476a.814.814 0 00.801-.807.814.814 0 00-.8-.807.814.814 0 00-.802.807c0 .439.366.807.801.807zm19.479.01c1.454 0 2.285-.807 2.76-1.634l-1.207-.588c-.277.548-.87.966-1.553.966-1.197 0-2.067-.926-2.067-2.182 0-1.256.87-2.183 2.067-2.183.682 0 1.276.429 1.553.967l1.207-.598c-.465-.827-1.306-1.625-2.76-1.625-1.978 0-3.511 1.396-3.511 3.439s1.533 3.438 3.51 3.438zm7.087-3.538l2.394 3.419h-1.682l-1.652-2.432-1.661 2.432H25.96l2.394-3.409-2.245-3.24h1.671l1.514 2.273 1.493-2.272h1.692l-2.246 3.23z" fill="#848AA5"/><path fill-rule="evenodd" clip-rule="evenodd" d="M35 43.7V13.033L21.304 0H2.283A2.291 2.291 0 000 2.3v41.4C0 44.97 1.022 46 2.283 46h30.434A2.292 2.292 0 0035 43.7zm-32.717.613h30.434a.611.611 0 00.61-.613V13.8h-10.5a2.291 2.291 0 01-2.284-2.3V1.687H2.284a.611.611 0 00-.61.613v41.4c0 .339.273.613.61.613zM22.217 3.19l9.378 8.924h-8.769a.611.611 0 01-.609-.613V3.189z" fill="#848AA5"/></svg>