<svg width="181" height="122" fill="none" xmlns="http://www.w3.org/2000/svg"><path fill-rule="evenodd" clip-rule="evenodd" d="M86.637 81.484l-.022.001a4.046 4.046 0 00-4.033 4.042 4.048 4.048 0 004.043 4.043h73.313a4.043 4.043 0 110 8.086H86.625c-6.688 0-12.129-5.44-12.129-12.129 0-4.977 3.015-9.26 7.311-11.128L78.83 61H51.02a4.059 4.059 0 110-8.118h26.006L67.211 8.711H46.196a4.043 4.043 0 110-8.086h24.257a4.044 4.044 0 013.948 3.166l2.89 13.006h98.819a4.044 4.044 0 013.887 5.154l-16.172 56.601a4.043 4.043 0 01-3.887 2.932H86.637zm-1.328-28.602l-6.222-28h91.663l-13.862 48.516h-67.02L87.113 61h29.299a4.06 4.06 0 000-8.118H85.309zm9.402 44.774c6.688 0 12.129 5.441 12.129 12.129s-5.441 12.129-12.129 12.129-12.129-5.441-12.129-12.129 5.442-12.129 12.13-12.129zm4.043 12.129a4.048 4.048 0 00-4.043-4.043 4.048 4.048 0 00-4.043 4.043 4.048 4.048 0 004.043 4.043 4.048 4.048 0 004.043-4.043zm53.098-12.129c6.688 0 12.129 5.441 12.129 12.129s-5.441 12.129-12.129 12.129-12.129-5.441-12.129-12.129 5.441-12.129 12.129-12.129zm0 8.086a4.048 4.048 0 014.043 4.043 4.048 4.048 0 01-4.043 4.043 4.048 4.048 0 01-4.043-4.043 4.048 4.048 0 014.043-4.043z" fill="#EAEBEC"/><path d="M13.588 18.608a4.059 4.059 0 000 8.117h30.216a4.059 4.059 0 000-8.117H13.588zM.51 101.588a4.059 4.059 0 014.059-4.059h54.117a4.059 4.059 0 110 8.118H4.57a4.059 4.059 0 01-4.06-4.059z" fill="#EAEBEC"/></svg>