<svg width="71" height="62" fill="none" xmlns="http://www.w3.org/2000/svg"><path fill-rule="evenodd" clip-rule="evenodd" d="M22.63 41.391h37.193c.916 0 1.72-.608 1.972-1.488l8.203-28.71a2.051 2.051 0 00-1.972-2.615H17.901l-1.466-6.597A2.051 2.051 0 0014.433.375H2.128a2.05 2.05 0 100 4.102h10.66l7.404 33.32a6.161 6.161 0 00-3.709 5.644 6.16 6.16 0 006.153 6.153h4.101a6.16 6.16 0 00-6.152 6.152 6.16 6.16 0 006.152 6.152 6.16 6.16 0 006.153-6.152 6.16 6.16 0 00-6.153-6.152h28.985a6.16 6.16 0 00-6.153 6.152 6.16 6.16 0 006.153 6.152 6.16 6.16 0 006.152-6.152 6.16 6.16 0 00-6.152-6.152h4.101a2.05 2.05 0 100-4.102H22.636c-1.13 0-2.051-.92-2.051-2.05s.917-2.048 2.045-2.05zM65.308 12.68l-7.032 24.61H24.281l-5.47-24.61h46.497zm-38.57 41.015c1.13 0 2.05.92 2.05 2.051 0 1.13-.92 2.05-2.05 2.05-1.131 0-2.051-.92-2.051-2.05s.92-2.05 2.05-2.05zm31.035 2.051c0-1.13-.92-2.05-2.051-2.05-1.13 0-2.051.92-2.051 2.05s.92 2.05 2.05 2.05c1.131 0 2.052-.92 2.052-2.05z" fill="#EAEBEC"/></svg>