<?xml version="1.0" encoding="utf-8"?>
<!-- Generator: Adobe Illustrator 25.3.1, SVG Export Plug-In . SVG Version: 6.00 Build 0)  -->
<svg version="1.1" id="Слой_1" xmlns="http://www.w3.org/2000/svg" xmlns:xlink="http://www.w3.org/1999/xlink" x="0px" y="0px"
	 viewBox="0 0 60 60" style="enable-background:new 0 0 60 60;" xml:space="preserve">
<style type="text/css">
	.st0{fill:#848AA5;}
</style>
<path class="st0" d="M46.6,15.2C46,8.8,41,4.6,40.8,4.5c-0.4-0.3-0.9-0.3-1.2,0c-0.1,0-5.1,4.2-5.7,10.7c0,0.4-0.1,0.9-0.1,1.3
	c0,0.5,0.4,1,1,1c0,0,0,0,0,0c0.5,0,1-0.4,1-1c0-0.4,0-0.8,0.1-1.1c0-0.4,0.1-0.8,0.2-1.2l3.1,3.1c0,0,0.1,0.1,0.1,0.1v2.4
	c0,0.5,0.4,1,1,1c0.5,0,1-0.4,1-1v-5l2.6-2.6c0.4,1,0.7,2.1,0.8,3.3c0,0.4,0.1,0.8,0.1,1.1c0,0.5,0.4,1,1,1c0,0,0,0,0,0
	c0.5,0,1-0.4,1-1C46.7,16.1,46.6,15.6,46.6,15.2z M39.2,14.3C39.2,14.3,39.2,14.3,39.2,14.3v0.3L36.6,12c0.7-1.8,1.8-3.3,2.6-4.4
	V14.3z M41.2,11.9V7.7c0.6,0.7,1.2,1.5,1.7,2.5L41.2,11.9z"/>
<path class="st0" d="M54.8,52.3L54.8,52.3c-0.6,0-1,0.4-1,1c0,0.5,0.4,1,1,1h0c0.5,0,1-0.4,1-1C55.8,52.7,55.3,52.3,54.8,52.3z"/>
<path class="st0" d="M51.6,52.3H41.2v-3.6l1.4-1.4c0.4-0.4,0.4-1,0-1.4c-0.4-0.4-1-0.4-1.4,0L41.2,46v-2.7c2-2.1,3.5-4.6,4.4-7.3
	c0.2-0.5-0.1-1.1-0.6-1.2c-0.5-0.2-1.1,0.1-1.2,0.6c-0.6,1.8-1.5,3.4-2.6,4.9v-7l1.2-1.2c0.7,0.6,1.9,1.3,3.4,1.3c0.1,0,0.2,0,0.2,0
	c1.8,0,3.6-0.9,5.2-2.6c5-5,4.4-12.3,4.4-12.6c0-0.5-0.4-0.8-0.9-0.9c-0.1,0-7.5-0.7-12.6,4.4c-0.9,0.9-1.6,1.9-2,2.9
	c-0.4-1-1.1-1.9-2-2.9c-5.1-5.1-12.5-4.4-12.6-4.4c-0.5,0-0.8,0.4-0.9,0.9c0,0.3-0.6,7.6,4.4,12.6c1.7,1.7,3.5,2.6,5.2,2.6
	c0.1,0,0.2,0,0.2,0c1.5-0.1,2.7-0.8,3.4-1.3l1.2,1.2v8.7l-0.6-0.6c-0.4-0.4-1-0.4-1.4,0c-0.4,0.4-0.4,1,0,1.4l2,2v3.7c0,0,0,0,0,0v4
	H6.7c-0.5,0-1,0.4-1,1c0,0.5,0.4,1,1,1h44.9c0.5,0,1-0.4,1-1C52.6,52.7,52.1,52.3,51.6,52.3z M52.9,24.5h-3l3.8-3.8
	C53.6,21.8,53.4,23.1,52.9,24.5z M45.4,21.6c2.4-1.6,5.1-2.2,7-2.4l-7,7V21.6z M48,26.5h4.1c-0.5,1-1.2,2-2.1,3c-1.4,1.4-2.7,2-4,2
	c-0.9,0-1.7-0.4-2.2-0.8L48,26.5z M43.4,23.3v5l-1,1c-0.3-0.5-0.7-1.2-0.8-2.1C41.6,25.9,42.2,24.6,43.4,23.3z M35.1,21.6v4.7l-7-7
	C30,19.5,32.7,20,35.1,21.6z M26.7,20.7l3.8,3.8h-3C27.1,23.1,26.8,21.8,26.7,20.7z M34.5,31.4c-1.3,0.1-2.7-0.6-4-2
	c-0.9-0.9-1.6-1.9-2.1-3h4.1l2.9,2.9c0,0,0,0,0,0l1.3,1.3C36.2,31,35.4,31.4,34.5,31.4z M38.8,27.1c0,0.9-0.4,1.7-0.8,2.2l-1-1v-5
	C38.2,24.6,38.8,25.9,38.8,27.1z"/>
<path class="st0" d="M32.4,9.7L32.4,9.7c-0.5-0.2-1.1,0.1-1.2,0.6c-0.2,0.5,0.1,1.1,0.6,1.2l0,0c0.1,0,0.2,0,0.3,0
	c0.4,0,0.8-0.3,0.9-0.7C33.2,10.4,32.9,9.8,32.4,9.7z"/>
<path class="st0" d="M37.9,37.8l-1-0.2c-3.4-0.8-6.8,0.9-8.1,4.1L26,47.8c-1.4,0-2.7-0.2-4-0.5l-1.2-4.1c-0.9-3.1,0.5-6.4,3.4-7.9
	l1-0.5c0.9-0.4,1.5-1.2,1.8-2.1c0.3-0.9,0.2-1.9-0.3-2.8c-0.6-1.1-1.8-1.7-3-1.7h-2.3c-0.7,0-1.4-0.4-1.7-1c-0.3-0.7-0.3-1.4,0.1-2
	l2.1-2.9c1-1.4,1-3.4-0.2-4.7l-4-4.8c2.6-1.3,5.5-2.1,8.5-2.1c0.6,0,1.2,0,1.7,0.1c0.5,0,1-0.3,1.1-0.9c0-0.5-0.3-1-0.9-1.1
	c-0.6-0.1-1.3-0.1-1.9-0.1c-3.8,0-7.4,1-10.4,2.9c-0.1,0-0.1,0.1-0.2,0.1c-5.9,3.6-9.9,10.1-9.9,17.5c0,9.5,6.4,17.4,15.2,19.8
	c0,0,0.1,0,0.1,0c1.7,0.4,3.4,0.7,5.2,0.7c3.7,0,7.2-1,10.4-2.8c0.5-0.3,0.6-0.9,0.3-1.3c-0.3-0.5-0.9-0.6-1.3-0.3
	c-2.3,1.3-4.8,2.2-7.4,2.4l2.3-5.3c1-2.3,3.5-3.5,5.9-3l1,0.2c0.5,0.1,1.1-0.2,1.2-0.7C38.7,38.4,38.4,37.9,37.9,37.8z M7.7,29.2
	c0-6.4,3.3-12.1,8.3-15.5l4.2,5.1c0.6,0.7,0.6,1.6,0.1,2.3l-2.1,2.9c-0.9,1.2-1,2.7-0.3,4c0.7,1.3,2,2.1,3.4,2.1h2.3
	c0.5,0,1,0.3,1.3,0.8c0.2,0.4,0.3,0.8,0.1,1.2c-0.1,0.4-0.4,0.7-0.8,0.9l-1,0.5c-3.8,1.9-5.7,6.1-4.4,10.2l0.9,2.9
	C12.7,44,7.7,37.2,7.7,29.2z"/>
</svg>
