<svg width="16" height="16" fill="none" xmlns="http://www.w3.org/2000/svg"><path d="M14.484 0H1.516C.172 0-.516 1.624.453 2.56l5.063 5.058v5.37c0 .5.218.937.593 1.25l2 1.498c.914.618 2.245.098 2.393-1.012a1.7 1.7 0 01-1.615-.333l-1.871-1.403V6.994l-5.5-5.495h13L9.55 6.46a1.7 1.7 0 011.647.439l.017.017 4.333-4.356c.969-.936.281-2.56-1.063-2.56z" fill="#848AA5"/><path d="M10.09 10.601l-1.074 1.075v-2.15L10.09 10.6z" fill="#848AA5"/><path d="M10.49 7.606a.7.7 0 00-.99.99l2.005 2.005L9.5 12.606a.7.7 0 00.99.99l2.005-2.005 2.005 2.005a.7.7 0 10.99-.99l-2.005-2.005 2.005-2.005a.7.7 0 00-.99-.99l-2.005 2.005-2.005-2.005z" fill="#848AA5"/></svg>