<svg width="54" height="54" fill="none" xmlns="http://www.w3.org/2000/svg"><path d="M46.775 5.273A5.28 5.28 0 0041.502 0H16.717a5.28 5.28 0 00-5.274 5.273l.001 5.81c.002.192.055.382.16.55l2.287 3.66-1.646 2.634a5.271 5.271 0 00-.802 2.794v1.413a1.056 1.056 0 002.11 0v-1.412c0-.594.166-1.173.48-1.678l1.686-2.696H42.5l1.686 2.697c.314.504.481 1.083.481 1.676v1.797H26.789c-.582 0-1.055.472-1.055 1.054v22.676c0 .582.473 1.055 1.055 1.055h17.877v1.424a3.176 3.176 0 01-3.164 3.164H16.714a5.245 5.245 0 001.058-3.164V41.87a5.282 5.282 0 00-4.22-5.167v-5.078a1.056 1.056 0 00-2.109 0v5.078a5.282 5.282 0 00-4.218 5.167v6.856A5.28 5.28 0 0012.498 54c.75 0 1.462-.158 2.108-.441l.058.026a5.22 5.22 0 002.053.415h24.785a5.253 5.253 0 003.728-1.545 5.253 5.253 0 001.545-3.728V20.72c0-.989-.277-1.956-.801-2.794l-1.646-2.634 2.287-3.66c.105-.168.157-.358.16-.55v-5.81zM9.334 41.871a3.168 3.168 0 013.164-3.164 3.168 3.168 0 013.164 3.164v2.373H9.334v-2.373zm0 6.856v-2.373h6.328v2.373a3.168 3.168 0 01-3.164 3.164 3.168 3.168 0 01-3.164-3.164zm18.51-3.534V24.627h16.822v20.566H27.844zM13.553 5.273a3.168 3.168 0 013.164-3.164h24.785a3.168 3.168 0 013.164 3.164v4.747H13.553V5.273zm2.166 8.965l-1.318-2.11h29.417l-1.319 2.11H15.72z" fill="#282C32"/><path d="M12.498 27.934a1.055 1.055 0 100-2.11 1.055 1.055 0 000 2.11zm28.986.894a1.055 1.055 0 00-2.109 0c0 .732-.09 1.38-.236 1.954a5.608 5.608 0 00-6.615.97c-.946.945-1.44 2.623-1.508 5.13a23.98 23.98 0 00.138 3.24c.06.48.438.858.918.917.044.006.81.099 1.872.134.246.008 1.169.01 1.368.005 2.506-.07 4.184-.563 5.13-1.509a5.606 5.606 0 00.448-7.41c.361-.952.594-2.087.594-3.43zm-2.533 9.35c-.853.852-3.65 1.004-5.784.848-.156-2.135-.004-4.93.849-5.783a3.495 3.495 0 014.273-.518c-.91 1.378-2.075 1.917-2.163 1.956a1.055 1.055 0 00.832 1.938c.104-.044 1.526-.67 2.749-2.244a3.494 3.494 0 01-.756 3.803z" fill="#282C32"/></svg>