<svg width="54" height="58" fill="none" xmlns="http://www.w3.org/2000/svg"><g clip-path="url(#clip0)" fill="#282C32"><path d="M36.898 11.653l-1.8.01.01 1.8 1.8-.01-.01-1.8z"/><path d="M53.1 28.73H40.322l1.08-16.14a.909.909 0 00-.243-.676.984.984 0 00-.657-.282l-1.8.01.009 1.8h.833l-.215 3.218-2.61 1.448a9.936 9.936 0 01-8.819.388v-5l5.404-.028-.009-1.8-5.392.029v-4.07l9.482-6.03L36.42.073l-9.899 6.3a.9.9 0 00-.417.76v4.573l-12.594.064a.9.9 0 00-.892.96l1.001 15.02a15.36 15.36 0 00-1.26 3.01 8.945 8.945 0 00-7.798-4.58.9.9 0 00-.9.9 8.885 8.885 0 001.476 4.91c-.39.192-.753.434-1.08.72l-.26.23a11.159 11.159 0 00-3.43 11.22l.55 2.124a11.194 11.194 0 004.635 6.515 6.305 6.305 0 006.611.256l-.05-.09c1.684.499 3.423.792 5.178.875.18.01.36.01.546.013v.073h11.867C43.11 53.938 53.988 43.08 54 29.673v-.044a.9.9 0 00-.9-.9zm-13.122 2.29v-.49h8.962a19.303 19.303 0 01-11.46 16.73 19.09 19.09 0 01-5.235 1.468 20.65 20.65 0 003.545-4.006 24.372 24.372 0 004.187-13.702zM26.103 13.505v4.351a11.726 11.726 0 00-8.789 1.029l-2.395 1.33-.443-6.65 11.627-.06zm-9.769 13.373l.11-.142-1.15-.886-.243-3.646 3.133-1.746a9.932 9.932 0 018.893-.36 11.729 11.729 0 0010.512-.423l1.59-.883-.404 6.05c-.2-.154-.42-.282-.653-.381l-1.344-.561a2.55 2.55 0 00-2.217.117 2.604 2.604 0 00-1.317 1.85 23.749 23.749 0 01-8.13 14.149 11.142 11.142 0 00-3.701-7.078l-.26-.23a4.895 4.895 0 00-6.407-.09l-1.133.945a13.494 13.494 0 012.721-6.685zm-4.694 7.279a7.157 7.157 0 01-6.113-6.113 7.16 7.16 0 016.113 6.113zM6.55 51.302a9.401 9.401 0 01-3.89-5.47l-.551-2.123a9.369 9.369 0 012.884-9.42l.26-.231c.32-.273.692-.478 1.092-.604a8.909 8.909 0 006.26 2.565.894.894 0 00.17-.035c.512-.032 1-.225 1.396-.551l1.723-1.44a3.106 3.106 0 014.064.058l.261.23a9.353 9.353 0 013.171 7.034 23.769 23.769 0 01-11.864 4.242l-3.986.3a.9.9 0 00-.832.9v3.278a.9.9 0 00.45.777l.125.074c.737.427 1.497.812 2.279 1.15a4.525 4.525 0 01-3.012-.734zm10.825.74v.001a20.17 20.17 0 01-8.864-2.53v-1.924l3.15-.237a25.653 25.653 0 0023.357-21.174.81.81 0 01.41-.581.75.75 0 01.657-.035l1.344.561c.453.188.748.63.747 1.12v3.78a22.587 22.587 0 01-3.879 12.695 19.118 19.118 0 01-16.921 8.324zm12.329.085h-2.868a20.697 20.697 0 002.868-1.511v.084a20.88 20.88 0 008.508-1.795A21.102 21.102 0 0050.74 30.53h1.442c-.471 12.07-10.4 21.61-22.48 21.598z"/><path d="M43.202 32.33h-1.8v1.799h1.8v-1.8zm-2.7 8.998h-1.8v1.8h1.8v-1.8zm2.7-3.6h-1.8v1.8h1.8v-1.8z"/></g><defs><clipPath id="clip0"><path fill="#fff" d="M0 0h54v54H0z"/></clipPath></defs></svg>