<svg width="52" height="55" fill="none" xmlns="http://www.w3.org/2000/svg"><g clip-path="url(#clip0_3_116)" fill="#40BF6A"><path d="M35.49 12.98l-1.707.01.01 1.706 1.706-.009-.01-1.707z"/><path d="M50.853 29.174H38.736L39.76 13.87a.861.861 0 00-.23-.642.933.933 0 00-.623-.268l-1.707.01.008 1.706h.79l-.203 3.053-2.475 1.373a9.422 9.422 0 01-8.363.368v-4.742l5.125-.026-.009-1.707-5.113.027v-3.86l8.992-5.717L35.035 2l-9.387 5.973a.853.853 0 00-.395.72v4.337l-11.942.062a.854.854 0 00-.847.91l.95 14.243a14.563 14.563 0 00-1.195 2.854 8.482 8.482 0 00-7.395-4.343.853.853 0 00-.853.853 8.426 8.426 0 001.4 4.657c-.37.181-.715.41-1.025.682l-.247.219A10.582 10.582 0 00.848 43.805l.521 2.015c.654 2.53 2.22 4.73 4.395 6.178a5.979 5.979 0 006.27.244l-.049-.086c1.598.473 3.247.751 4.91.83.171.008.342.008.518.012v.07h11.253c12.714.01 23.03-10.286 23.04-23v-.04a.853.853 0 00-.853-.854zM38.41 31.346v-.465h8.498a18.304 18.304 0 01-10.865 15.865 18.102 18.102 0 01-4.965 1.392 19.584 19.584 0 003.361-3.798 23.113 23.113 0 003.971-12.994zM25.253 14.737v4.126a11.12 11.12 0 00-8.334.975L14.647 21.1l-.42-6.307 11.026-.056zM15.99 27.419l.104-.135-1.09-.84-.23-3.458 2.97-1.656a9.418 9.418 0 018.434-.341 11.122 11.122 0 009.967-.402l1.508-.837-.382 5.738a2.85 2.85 0 00-.62-.362l-1.274-.532a2.419 2.419 0 00-2.102.11 2.47 2.47 0 00-1.25 1.756 22.52 22.52 0 01-7.71 13.416 10.565 10.565 0 00-3.509-6.711l-.247-.218a4.642 4.642 0 00-6.075-.086l-1.074.896c.268-2.308 1.16-4.5 2.58-6.338zm-4.45 6.901a6.787 6.787 0 01-5.797-5.796 6.79 6.79 0 015.796 5.796zM6.71 50.58a8.915 8.915 0 01-3.69-5.188L2.5 43.38a8.884 8.884 0 012.735-8.934l.247-.218a2.966 2.966 0 011.035-.573 8.448 8.448 0 005.937 2.432.843.843 0 00.16-.032 2.315 2.315 0 001.324-.524l1.634-1.365a2.945 2.945 0 013.854.056l.247.218a8.87 8.87 0 013.007 6.669 22.54 22.54 0 01-11.25 4.023l-3.78.285a.853.853 0 00-.789.853v3.109a.853.853 0 00.427.736l.118.07c.699.406 1.42.77 2.161 1.092a4.291 4.291 0 01-2.856-.697zm10.266.7l-.001.001a19.126 19.126 0 01-8.406-2.4v-1.823l2.987-.225a24.327 24.327 0 0022.15-20.08.768.768 0 01.388-.55.712.712 0 01.624-.033l1.274.533c.43.177.71.597.708 1.061v3.584a21.42 21.42 0 01-3.678 12.04 18.13 18.13 0 01-16.046 7.893zm11.69.08h-2.719a19.625 19.625 0 002.72-1.432v.08a19.799 19.799 0 008.067-1.702A20.01 20.01 0 0048.615 30.88h1.368c-.447 11.446-9.862 20.491-21.316 20.48z"/><path d="M41.468 32.587H39.76v1.707h1.706v-1.707zm-2.561 8.533H37.2v1.707h1.707v-1.706zm2.561-3.413H39.76v1.707h1.706v-1.707z"/></g><defs><clipPath id="clip0_3_116"><path fill="#fff" transform="translate(.5)" d="M0 0h51.207v55H0z"/></clipPath></defs></svg>