<svg width="52" height="52" fill="none" xmlns="http://www.w3.org/2000/svg"><path d="M30.219 36.125v1.688H46.25a.844.844 0 00.844-.844v-7.594a.843.843 0 00-.844-.844H30.219v1.688h15.187v5.906H30.22z" fill="#282C32"/><path d="M49.625 44.563H30.219v1.687h19.406a3.379 3.379 0 01-3.375 3.375H27.687a3.4 3.4 0 01-.675-.068l-.336 1.654c.333.068.672.102 1.011.102H46.25a5.069 5.069 0 005.062-5.063V30.219h-1.687v14.343zm-2.32-27.844h-.211v-2.532h.633a1.9 1.9 0 001.898-1.898V3.641A2.957 2.957 0 0046.672.687h-15.61v1.688h15.61a1.267 1.267 0 011.266 1.266v8.648a.212.212 0 01-.211.211H26.21a.212.212 0 01-.211-.21V3.64a1.267 1.267 0 011.266-1.265h2.109V.687h-2.11a2.956 2.956 0 00-2.953 2.954v8.648a1.9 1.9 0 001.899 1.899h.633v2.53h-.211a4.012 4.012 0 00-4.008 4.009v.21h1.688v-.21a2.323 2.323 0 012.32-2.32h20.672a2.323 2.323 0 012.32 2.32v3.585H28.531V26h21.094v2.531h1.688v-7.804a4.012 4.012 0 00-4.008-4.008zm-18.774 0v-2.532h16.875v2.532H28.531z" fill="#282C32"/><path d="M27.688 4.063h1.687v6.75h-1.688v-6.75zm3.375 0h1.687v6.75h-1.688v-6.75zm3.375 0h1.687v6.75h-1.688v-6.75zm3.375 0H39.5v6.75h-1.688v-6.75zm3.375 0h1.687v6.75h-1.688v-6.75zm3.375 0h1.687v6.75h-1.688v-6.75zM30.219 40.344h5.062v1.687H30.22v-1.687zm6.75 0h10.125v1.687H36.969v-1.687zM12.095 15.772l2.51 1.373 1.373 2.51a.844.844 0 001.481 0l1.373-2.51 2.51-1.373a.844.844 0 000-1.481l-2.51-1.373-1.373-2.51a.844.844 0 00-1.48 0l-1.373 2.51-2.51 1.373a.844.844 0 000 1.48zm3.537-1.492a.843.843 0 00.335-.335l.752-1.374.751 1.374a.843.843 0 00.335.335l1.374.751-1.373.752a.843.843 0 00-.336.335l-.751 1.374-.752-1.374a.843.843 0 00-.335-.335l-1.373-.752 1.373-.751zm12.9 16.572a8.236 8.236 0 00-8.227-8.227h-.422a8.25 8.25 0 00-8.062 6.582l1.654.336a6.556 6.556 0 016.408-5.23h.422a6.547 6.547 0 016.54 6.539v4.43h-5.063v1.687h5.062v1.687h-4.219v1.688h4.22v2.742a6.547 6.547 0 01-6.54 6.539h-.422c-.698 0-1.392-.11-2.055-.33l-.53 1.603a8.22 8.22 0 002.585.414h.422a8.236 8.236 0 008.227-8.226V30.852zM3.036 10.066l1.692.925.925 1.692a.844.844 0 001.48 0l.926-1.692 1.693-.925a.844.844 0 000-1.481l-1.693-.926-.925-1.692a.844.844 0 00-1.48 0L4.727 7.66l-1.692.926a.844.844 0 000 1.48zM5.754 9.02a.844.844 0 00.336-.335l.303-.556.304.556a.844.844 0 00.336.335l.555.304-.555.304a.844.844 0 00-.336.335l-.304.556-.303-.556a.844.844 0 00-.336-.335L5.2 9.325l.555-.304z" fill="#282C32"/><path d="M20.938 41.188a10.124 10.124 0 10-10.125 10.124 10.136 10.136 0 0010.124-10.124zm-1.688 0a8.386 8.386 0 01-.957 3.9L6.912 33.707a8.436 8.436 0 0112.338 7.48zm-3.1 6.53l-7.272-7.272-1.193 1.193 7.028 7.029a8.435 8.435 0 01-11.38-11.381l2.809 2.81 1.193-1.194-3.053-3.053a8.51 8.51 0 011.193-1.193l11.868 11.868a8.518 8.518 0 01-1.193 1.193z" fill="#282C32"/></svg>