<svg width="54" height="54" fill="none" xmlns="http://www.w3.org/2000/svg"><g clip-path="url(#clip0)" fill="#282C32"><path d="M21.986 25.272c.553 0 1.002-.448 1.002-1.002v-3.664c0-.15-.012-.297-.022-.443l.308.309a1 1 0 001.417 0l.325-.325c-.011.153-.023.305-.023.46v3.665c0 .553.449 1.001 1.001 1.001h3.665a6.36 6.36 0 006.353-6.352v-3.665c0-.555-.45-1.002-1.002-1.002h-3.664c-.83 0-1.62.164-2.347.455a6.35 6.35 0 00-1.716-5.812L24.69 6.305a1.001 1.001 0 00-1.416 0l-2.593 2.59a6.348 6.348 0 00-1.716 5.806 6.297 6.297 0 00-2.33-.45H12.97c-.553 0-1.002.448-1.002 1.003v3.665a6.36 6.36 0 006.353 6.352h3.664v.001zm12.021-9.016v2.664a4.354 4.354 0 01-4.35 4.348h-2.662v-2.662a4.354 4.354 0 014.35-4.35h2.662zM22.1 10.312l1.883-1.883 1.883 1.883a4.355 4.355 0 010 6.15l-1.883 1.884-1.883-1.883a4.355 4.355 0 010-6.15zm-8.126 8.608v-2.664h2.662c2.398 0 4.35 1.95 4.35 4.35v2.663h-2.663a4.355 4.355 0 01-4.35-4.349zm13.021 14.137a3.009 3.009 0 00-3.006 3.006h2.004a1.003 1.003 0 012.003 0H30a3.009 3.009 0 00-3.005-3.006zm8.013 1.003a3.009 3.009 0 00-3.005 3.004h2.003a1.003 1.003 0 012.004 0h2.003a3.009 3.009 0 00-3.005-3.005z"/><path d="M42.536 30.25l3.457-12.962a.979.979 0 00.035-.258 2.006 2.006 0 00-2.004-2.004H42.02c-.365 0-.706.104-1.001.276v-14.3c0-.554-.45-1.002-1.002-1.002H8.969l-.015.003L8.94 0H1.951C1.398 0 .949.448.949 1.002v46.08c0 .4.239.762.606.92l6.988 3.006c.128.053.262.08.396.08H24.31A18.68 18.68 0 0034.32 54c10.375 0 18.818-8.442 18.818-18.818v-.104c0-2.99-6.185-4.285-10.602-4.828zm-.516-13.22h1.969l-3.687 13.829v.001a.005.005 0 01-.002.003l-.596 2.293a1.003 1.003 0 001.938.505l.378-1.45c6.837.806 9.114 2.389 9.114 2.868 0 .985-5.72 3.299-16.815 3.299-11.094 0-16.815-2.313-16.815-3.299 0-.987 5.721-3.3 16.815-3.3.593 0 1.161.023 1.738.038l-.187.745a1.001 1.001 0 101.944.49l.49-1.95 3.684-13.814c.021-.084.032-.171.032-.259zM7.938 48.564l-4.984-2.143V2.003h4.984v46.562zm13.712.52H9.971V2.003h29.045v18.652l-2.443 9.159a71.897 71.897 0 00-2.254-.038c-6.51 0-18.818 1.108-18.818 5.303v.104c0 .661.035 1.314.103 1.958.02.19.06.377.087.567.06.45.12.898.212 1.336.052.25.129.49.19.736.093.369.18.738.294 1.098.091.286.206.563.31.843.113.305.22.613.349.91.13.303.283.597.43.893.13.261.253.524.395.778.167.301.352.59.536.882.148.236.294.473.453.701.194.28.401.548.61.818.179.23.357.458.546.678.207.242.424.477.645.71.222.235.447.465.682.688.107.099.199.209.306.306zm12.671 2.911a16.716 16.716 0 01-9.268-2.797c-.127-.084-.25-.175-.374-.262-.286-.201-.568-.41-.84-.629-.1-.079-.202-.156-.3-.238a16.473 16.473 0 01-1.03-.938c-.062-.061-.12-.123-.18-.185a16.38 16.38 0 01-.937-1.031l-.055-.063a16.643 16.643 0 01-1.007-1.365 16.848 16.848 0 01-1.44-2.647 16.477 16.477 0 01-.607-1.616c-.02-.06-.035-.12-.053-.18-.13-.427-.241-.864-.336-1.306-.02-.088-.042-.175-.06-.264-.046-.23-.07-.465-.107-.697 3.847 1.997 11.795 2.601 16.593 2.601 4.8 0 12.746-.604 16.593-2.601-1.254 8.04-8.205 14.218-16.592 14.218z"/></g><defs><clipPath id="clip0"><path fill="#fff" d="M0 0h54v54H0z"/></clipPath></defs></svg>