<svg width="19" height="16" fill="none" xmlns="http://www.w3.org/2000/svg"><path fill-rule="evenodd" clip-rule="evenodd" d="M11.493 2.538l-1.187 1.247c-.428.45-1.142.45-1.57 0L7.552 2.542C6.17 1.132 4.046.995 2.707 2.152v.002c-1.813 1.56-1.58 4.118-.254 5.473l.003.003 6.574 6.802c.26.27.68.27.94 0l6.574-6.802.003-.003c1.321-1.35 1.564-3.908-.253-5.516-1.344-1.121-3.466-.973-4.801.427zm-.989-.942c1.787-1.874 4.726-2.16 6.674-.526l.007.005.006.006c2.482 2.187 2.133 5.66.334 7.5l-.002.002-6.57 6.798a2.014 2.014 0 01-2.905 0L1.477 8.583l-.002-.002c-1.795-1.836-2.153-5.315.34-7.462 1.952-1.687 4.892-1.393 6.717.47l.006.008.983 1.032.983-1.033z" fill="#3C3F54"/></svg>