<svg width="58" height="52" fill="none" xmlns="http://www.w3.org/2000/svg"><path fill-rule="evenodd" clip-rule="evenodd" d="M0 2.216C0 .992.925 0 2.066 0h7.38c.889 0 1.678.61 1.96 1.515l1.742 5.609h42.786c.664 0 1.288.342 1.676.92a2.35 2.35 0 01.284 1.997l-6.641 21.371c-.282.905-1.071 1.516-1.96 1.516H18.3c-1.304 0-2.361 1.134-2.361 2.532 0 1.4 1.057 2.533 2.361 2.533h29.517c1.14 0 2.066.993 2.066 2.217 0 1.007-.627 1.857-1.485 2.127.56.967.882 2.109.882 3.33 0 3.498-2.643 6.333-5.903 6.333s-5.903-2.835-5.903-6.332a6.66 6.66 0 01.83-3.242H27.68c.528.948.832 2.057.832 3.242 0 3.497-2.643 6.332-5.904 6.332-3.26 0-5.903-2.835-5.903-6.332 0-1.204.313-2.329.856-3.287-3.238-.394-5.753-3.342-5.753-6.92 0-2.825 1.566-5.256 3.818-6.35L7.956 4.434h-5.89C.926 4.433 0 3.44 0 2.216zm19.79 26.279h28.013l5.264-16.939H14.526l5.264 16.939zm4.588 17.173c0 1.049-.793 1.9-1.77 1.9-.979 0-1.772-.851-1.772-1.9 0-1.05.793-1.9 1.771-1.9.978 0 1.771.85 1.771 1.9zm20.77 0c0 1.049-.793 1.9-1.771 1.9-.978 0-1.771-.851-1.771-1.9 0-1.05.793-1.9 1.77-1.9.979 0 1.772.85 1.772 1.9z" fill="#40BF6A"/></svg>