<svg width="50" height="50" fill="none" xmlns="http://www.w3.org/2000/svg"><path d="M34.375 14.688H15.576c-.83 0-1.514.732-1.514 1.61V35c0 .879.684 1.563 1.514 1.563h18.799c.83 0 1.563-.684 1.563-1.563V16.299c0-.88-.733-1.611-1.563-1.611zm-13.72 18.75h-3.223v-10.4h3.222v10.4zm-1.612-11.866c-1.074 0-1.904-.83-1.904-1.855 0-1.026.83-1.904 1.904-1.904 1.025 0 1.855.878 1.855 1.904 0 1.025-.83 1.855-1.855 1.855zm13.77 11.866H29.54v-5.079c0-1.172 0-2.734-1.66-2.734-1.71 0-1.953 1.318-1.953 2.686v5.127h-3.223v-10.4h3.076v1.415h.05c.439-.83 1.513-1.709 3.075-1.709 3.272 0 3.907 2.197 3.907 4.98v5.713z" fill="#40BF6A"/><rect x=".7" y=".7" width="48.6" height="48.6" rx="24.3" stroke="#40BF6A" stroke-width="1.4"/></svg>