<svg width="50" height="50" fill="none" xmlns="http://www.w3.org/2000/svg"><path d="M35.954 20.547c.976-.733 1.855-1.611 2.539-2.637a9.609 9.609 0 01-2.93.781 5.01 5.01 0 002.246-2.832 10.82 10.82 0 01-3.223 1.27 5.127 5.127 0 00-3.76-1.611 5.126 5.126 0 00-5.126 5.127c0 .39.049.78.146 1.171a14.875 14.875 0 01-10.595-5.37c-.44.732-.684 1.61-.684 2.587 0 1.758.879 3.32 2.295 4.248-.83-.049-1.66-.244-2.344-.634v.048a5.133 5.133 0 004.102 5.03c-.391.097-.88.195-1.319.195-.341 0-.634-.049-.976-.098.634 2.051 2.539 3.516 4.785 3.565a10.308 10.308 0 01-6.348 2.197 9.5 9.5 0 01-1.22-.098c2.246 1.465 4.931 2.295 7.86 2.295 9.425 0 14.552-7.763 14.552-14.55v-.684z" fill="#40BF6A"/><rect x=".7" y=".7" width="48.6" height="48.6" rx="24.3" stroke="#40BF6A" stroke-width="1.4"/></svg>