<svg width="54" height="44" fill="none" xmlns="http://www.w3.org/2000/svg"><path d="M53.544 32.387l-4.726-5.591h.506c.76 0 1.435-.43 1.773-1.205a2.001 2.001 0 00-.254-2.15l-4.642-5.591h1.097c.76 0 1.52-.43 1.773-1.205.169-.258.169-.516.169-.86 0-.516-.169-1.032-.507-1.376L36.58.645c-.76-.86-2.195-.86-2.954 0L27.042 8.13 20.374.645c-.76-.86-2.194-.86-2.954 0L5.267 14.41c-.338.344-.591.86-.591 1.376 0 .344.084.602.253.86.253.774 1.013 1.204 1.857 1.204h1.013l-4.642 5.592a2.001 2.001 0 00-.254 2.15c.338.775 1.013 1.205 1.857 1.205h.422l-4.726 5.59a2.001 2.001 0 00-.253 2.15c.253.775 1.012 1.205 1.772 1.205h14.18v2.15l-2.533 4.13A1.392 1.392 0 0014.888 44h8.019a1.392 1.392 0 001.266-1.978l-2.532-4.13v-2.15h10.803v2.15l-2.617 4.13A1.392 1.392 0 0031.093 44h8.019a1.392 1.392 0 001.266-1.978l-2.532-4.13v-2.15h14.179c.76 0 1.435-.43 1.772-1.204a2.002 2.002 0 00-.253-2.15zm-47.096-.774l7.596-8.946h-4.98l7.428-8.947h-5.233l7.68-8.602 7.597 8.602h-5.233l7.427 8.947h-4.98l7.597 8.946H6.448zm30.3 0l-4.135-4.817h.506c.76 0 1.435-.43 1.773-1.205a2.001 2.001 0 00-.254-2.15l-4.642-5.591h1.098c.76 0 1.519-.43 1.772-1.205.169-.258.169-.516.169-.86 0-.516-.17-1.032-.507-1.376l-2.785-3.183 5.402-6.108 7.596 8.602h-5.233l7.427 8.947h-4.98l7.597 8.946H36.748z" fill="#40BF6A"/></svg>