<svg width="29" height="28" fill="none" xmlns="http://www.w3.org/2000/svg"><path fill-rule="evenodd" clip-rule="evenodd" d="M2.501 20.856C-.736 14.821.91 1.826.981 1.276 1.053.721 1.651.35 2.134.56c.478.208 11.755 5.171 14.992 11.207 2.196 4.094 1.091 9.234-2.377 11.928l1.31 2.441c.233.435.094.99-.31 1.242-.404.251-.92.102-1.153-.333l-1.31-2.441c-3.901 1.886-8.589.347-10.785-3.748zm1.463-.909c1.73 3.227 5.388 4.475 8.478 3.082l-1.865-3.476-7.273-1.193c.19.572.405 1.112.66 1.588zm-1.165-3.51l6.697 1.1-2.302-4.291-4.91-.914c.088 1.414.251 2.813.515 4.105zm-.59-5.965l3.886.724L2.39 4.288a66.17 66.17 0 00-.18 6.184zm6.71-4.169A55.905 55.905 0 003.851 3.38l3.705 6.908 1.361-3.984zm1.458 1l-1.72 5.034 2.301 4.29 2.465-6.792c-.909-.892-1.952-1.744-3.046-2.532zm4.34 3.964l-2.677 7.377 1.864 3.476c2.666-2.184 3.49-6.218 1.76-9.444a9.844 9.844 0 00-.947-1.409zm13.119 2.028a.85.85 0 01.41.612c.02.149.245 1.86.254 3.919.004 1.03-.047 2.157-.207 3.222-.16 1.06-.433 2.087-.889 2.901-1.186 2.119-3.651 2.98-5.795 2.174l-.515.92a.813.813 0 01-1.13.313.865.865 0 01-.302-1.163l.516-.922c-1.748-1.511-2.26-4.144-1.073-6.262.456-.815 1.18-1.572 1.991-2.245.814-.677 1.735-1.285 2.602-1.796a30.548 30.548 0 013.418-1.733.802.802 0 01.72.06zm-4.928 4.187c.093-.06.904-.593 1.021-.672a26.99 26.99 0 011.46-.85l-4.368 7.805a3.327 3.327 0 01-.484-3.906c.734-1.311 1.736-1.965 2.371-2.378zm3.064 5.617c-.727 1.299-2.186 1.878-3.52 1.519l4.368-7.804c.02.54.03 1.127.016 1.728-.046.722-.17 2.307-.299 2.915a8.006 8.006 0 01-.29.978 5.735 5.735 0 01-.275.664z" fill="#fff"/></svg>