<svg width="72" height="72" fill="none" xmlns="http://www.w3.org/2000/svg"><path fill-rule="evenodd" clip-rule="evenodd" d="M25.208 48.823c-5.75-9.96-2.828-31.406-2.7-32.313.127-.917 1.19-1.53 2.047-1.183.85.344 20.883 8.535 26.634 18.496 3.901 6.757 1.937 15.239-4.224 19.684l2.327 4.03a1.5 1.5 0 11-2.599 1.5l-2.326-4.03c-6.93 3.113-15.258.573-19.159-6.184zm2.598-1.5c3.074 5.324 9.571 7.385 15.06 5.086l-3.312-5.737-12.92-1.968c.339.943.719 1.834 1.172 2.62zm-2.07-5.792l11.897 1.813-4.088-7.08-8.722-1.509c.155 2.334.445 4.643.913 6.776zm-1.046-9.844l6.902 1.193-6.582-11.4c-.219 2.718-.408 6.378-.32 10.207zm11.917-6.88c-3.271-1.99-6.536-3.657-9-4.827l6.583 11.4 2.417-6.574zm2.591 1.649l-3.055 8.307 4.088 7.08 4.378-11.208c-1.613-1.472-3.467-2.878-5.41-4.18zm7.71 6.542l-4.756 12.174 3.313 5.737c4.736-3.604 6.2-10.262 3.126-15.586-.453-.785-1.035-1.56-1.683-2.325z" fill="#40BF6A"/><path fill-rule="evenodd" clip-rule="evenodd" d="M72 36c0 2.16-1.286 3.977-2.423 5.581l-.002.004c-.745 1.052-1.448 2.045-1.693 2.96-.26.978-.149 2.233-.029 3.56.18 2.018.367 4.104-.674 5.9-1.054 1.824-3.056 2.747-4.822 3.561l-.024.012c-1.187.548-2.308 1.066-3 1.757-.693.694-1.212 1.818-1.762 3.01l-.005.012c-.813 1.767-1.736 3.77-3.562 4.824-1.799 1.042-3.881.854-5.894.672h-.005c-1.328-.121-2.585-.234-3.562.03-.913.244-1.906.947-2.957 1.691l-.005.003C39.977 70.714 38.16 72 36 72c-2.16 0-3.977-1.286-5.581-2.423l-.004-.002c-1.052-.745-2.045-1.448-2.96-1.693-.981-.263-2.235-.15-3.56-.029l-.014.001c-2.013.179-4.092.363-5.887-.675-1.823-1.054-2.746-3.056-3.56-4.822l-.012-.024c-.548-1.187-1.066-2.308-1.757-3-.694-.693-1.818-1.212-3.01-1.762l-.012-.005c-1.767-.813-3.77-1.736-4.824-3.562-1.04-1.797-.854-3.883-.672-5.898v-.01c.12-1.325.23-2.575-.03-3.553-.244-.913-.947-1.906-1.69-2.957l-.004-.005C1.286 39.977 0 38.16 0 36c0-2.16 1.286-3.977 2.423-5.581l.002-.004c.745-1.052 1.448-2.045 1.692-2.96.261-.978.15-2.233.03-3.56-.18-2.018-.366-4.104.674-5.9 1.054-1.824 3.056-2.747 4.822-3.561l.024-.012c1.187-.548 2.308-1.066 3-1.757.693-.694 1.212-1.818 1.762-3.01l.005-.012c.813-1.767 1.736-3.77 3.562-4.824 1.796-1.039 3.875-.853 5.886-.673l.034.003c1.317.116 2.563.227 3.54-.031.914-.245 1.907-.948 2.958-1.692l.005-.003C32.023 1.286 33.84 0 36 0c2.16 0 3.977 1.286 5.581 2.423l.004.002c1.052.745 2.045 1.448 2.96 1.692.973.258 2.215.148 3.534.032l.047-.004c2.009-.178 4.086-.362 5.88.676 1.823 1.054 2.746 3.056 3.56 4.822l.012.024c.548 1.187 1.066 2.308 1.757 3 .694.693 1.818 1.212 3.01 1.762l.012.005c1.767.813 3.77 1.736 4.824 3.562 1.04 1.797.854 3.883.672 5.899v.008c-.119 1.326-.23 2.576.03 3.554.244.913.947 1.906 1.691 2.957l.003.005C70.714 32.023 72 33.84 72 36zm-7.015 7.77c.384-1.434 1.279-2.7 2.144-3.923C68.092 38.489 69 37.204 69 36c0-1.204-.908-2.489-1.87-3.847-.866-1.223-1.761-2.488-2.145-3.921-.398-1.494-.258-3.076-.12-4.606.146-1.621.284-3.153-.28-4.128-.58-1.001-1.99-1.652-3.483-2.339-1.383-.637-2.813-1.296-3.888-2.371-1.075-1.076-1.735-2.505-2.372-3.888-.688-1.493-1.339-2.904-2.34-3.484-.963-.557-2.474-.425-4.086-.285l-.043.004c-1.531.138-3.113.28-4.604-.12-1.434-.384-2.7-1.279-3.922-2.144C38.489 3.908 37.204 3 36 3c-1.204 0-2.489.908-3.847 1.87-1.223.866-2.488 1.761-3.921 2.145-1.497.4-3.078.258-4.606.12-1.624-.15-3.156-.285-4.128.28-1.001.58-1.652 1.99-2.339 3.483-.637 1.383-1.296 2.813-2.371 3.888-1.076 1.075-2.505 1.735-3.888 2.372-1.493.688-2.904 1.339-3.484 2.34-.563.972-.426 2.502-.281 4.122v.007c.138 1.529.278 3.11-.12 4.604-.384 1.434-1.279 2.7-2.144 3.922C3.908 33.511 3 34.796 3 36c0 1.204.908 2.489 1.87 3.847.866 1.223 1.761 2.489 2.145 3.921.398 1.494.258 3.076.12 4.606-.146 1.621-.284 3.153.28 4.127.58 1.002 1.99 1.653 3.483 2.34 1.383.637 2.813 1.296 3.888 2.372 1.075 1.075 1.735 2.505 2.372 3.887.688 1.493 1.339 2.904 2.34 3.484.975.564 2.504.427 4.129.281.78-.07 1.573-.14 2.362-.14.758 0 1.51.064 2.242.26 1.434.384 2.7 1.279 3.922 2.145C33.511 68.092 34.796 69 36 69c1.204 0 2.489-.908 3.847-1.87 1.223-.866 2.489-1.761 3.921-2.145 1.494-.401 3.073-.26 4.606-.12l.012.001c1.614.145 3.142.282 4.115-.28 1.002-.58 1.653-1.992 2.34-3.484.637-1.383 1.296-2.813 2.371-3.888 1.076-1.075 2.505-1.734 3.888-2.372 1.493-.688 2.904-1.339 3.484-2.339.563-.973.426-2.503.281-4.123v-.006c-.138-1.53-.278-3.112.12-4.605z" fill="#40BF6A"/></svg>