<svg width="14" height="15" fill="none" xmlns="http://www.w3.org/2000/svg"><path d="M13 .81H.969C.438.81 0 1.278 0 1.84v11.97c0 .562.438 1 .969 1H13c.531 0 1-.438 1-1V1.84c0-.563-.469-1.031-1-1.031zm-8.781 12H2.156V6.153H4.22v6.657zM3.187 5.216c-.687 0-1.218-.531-1.218-1.188A1.22 1.22 0 013.187 2.81c.657 0 1.188.562 1.188 1.219 0 .656-.531 1.187-1.188 1.187zM12 12.81H9.906V9.56c0-.75 0-1.75-1.062-1.75-1.094 0-1.25.843-1.25 1.718v3.282H5.53V6.153H7.5v.907h.031c.282-.531.969-1.094 1.969-1.094 2.094 0 2.5 1.406 2.5 3.187v3.657z" fill="#fff"/></svg>