<svg width="64" height="64" fill="none" xmlns="http://www.w3.org/2000/svg"><path d="M0 31.973C0 14.313 14.314 0 31.973 0S63.945 14.314 64 31.973c0 2.084-.22 4.113-.603 6.087-.274 1.371-.603 2.687-1.042 3.949l-8.665-8.336c-.549-.494-1.371-.604-2.03-.165h-.054a1.573 1.573 0 00-.658 1.92v.054c.438 1.152-.987 2.084-1.865 1.262L36.36 23.8c-.548-.438-1.261-.713-1.974-.548-1.097.274-1.81 1.261-1.7 2.303l.164 5.046a2.735 2.735 0 01-2.907 2.906l-10.42-2.523a1.676 1.676 0 00-1.754.659c-.494.767-.275 1.755.493 2.193l10.914 6.746c.713.329.274 1.48-.494 1.206l-16.836-5.923c-1.316-.438-2.797-.164-3.894.713l-3.345 2.907c3.29 12.12 14.313 21.004 27.42 21.004 12.066 0 22.376-7.568 26.489-18.207l2.632 2.742C56.158 56.213 44.97 64 31.973 64c-14.15 0-26.105-9.213-30.328-21.991a34.792 34.792 0 01-1.151-4.717l3.126-2.797 11.023-9.707c.877-.767 2.248-.822 3.18-.11l3.675 2.743c.932.768 2.358.713 3.235-.165l9.159-10.474c1.042-1.207 2.961-1.152 3.894.164l9.158 12.668c.878.988 2.413 1.097 3.4.165l.713-.549c.988-.822 2.413-.712 3.346.165l5.813 5.704c.11-1.042.164-2.084.164-3.126 0-15.74-12.723-28.463-28.462-28.463-15.082 0-27.366 11.736-28.353 26.543l-3.51 2.962c0-.165-.014-.343-.028-.521-.013-.179-.027-.357-.027-.521z" fill="#3C3F54"/></svg>