<svg width="180" height="46" fill="none" xmlns="http://www.w3.org/2000/svg"><path d="M0 22.905C0 10.255 10.285 0 22.973 0 35.66 0 45.946 10.254 45.985 22.905c0 1.493-.157 2.947-.433 4.36a21.277 21.277 0 01-.749 2.83l-6.226-5.972a1.187 1.187 0 00-1.458-.118h-.04c-.472.275-.67.864-.472 1.375v.04c.315.824-.71 1.492-1.34.903l-9.142-9.272c-.394-.314-.906-.51-1.418-.393-.788.197-1.3.904-1.222 1.65l.118 3.615a1.962 1.962 0 01-2.088 2.082l-7.487-1.807a1.206 1.206 0 00-1.26.471c-.356.55-.198 1.257.354 1.572l7.841 4.832c.512.236.197 1.06-.354.864L8.51 25.694a3 3 0 00-2.797.511L3.31 28.287c2.364 8.683 10.285 15.048 19.702 15.048 8.67 0 16.077-5.422 19.033-13.044l1.891 1.964C40.35 40.27 32.312 45.85 22.973 45.85c-10.166 0-18.757-6.6-21.79-15.754-.356-1.1-.631-2.24-.828-3.38L2.6 24.713l7.92-6.954c.63-.55 1.616-.59 2.285-.078l2.64 1.964c.67.55 1.695.51 2.325-.118l6.581-7.504c.749-.864 2.128-.825 2.798.118l6.58 9.075c.63.708 1.734.786 2.443.118l.513-.392c.709-.59 1.733-.511 2.403.117l4.177 4.086a21.26 21.26 0 00.118-2.24c0-11.275-9.141-20.39-20.45-20.39-10.837 0-19.663 8.408-20.373 19.016L.04 23.65c0-.117-.01-.245-.02-.373a4.997 4.997 0 01-.02-.372zm79.282-9.783c0-.55-.079-1.06-.197-1.454a4.689 4.689 0 01-.212-.049 4.341 4.341 0 00-.537-.108 6.46 6.46 0 00-.867-.078c-.315 0-.59.04-.866.078-.316.04-.552.079-.75.158a5.406 5.406 0 00-.196 1.453 5.2 5.2 0 00.197 1.454c.236.078.473.157.749.196.275.04.59.079.866.079.316 0 .592-.04.867-.079a2.92 2.92 0 00.749-.196c.118-.432.197-.904.197-1.454zm-.236 16.383V17.09c-.434-.118-.946-.157-1.537-.157s-1.103.079-1.537.157v12.415c.434.118.946.157 1.537.157a8.4 8.4 0 001.537-.157zm-11.664 0c-.276.079-.63.118-.985.157-.355.04-.71.04-1.104.04-.394 0-.748 0-1.103-.04a7.392 7.392 0 01-.985-.157l-5.792-17.719c.236-.039.472-.078.788-.117.315-.04.63-.04.945-.04.316 0 .63 0 .946.04.21.026.385.052.56.078l.267.04 4.374 14.732h.158l4.453-14.733c.236-.039.473-.078.788-.117.315-.04.63-.04.946-.04.315 0 .63 0 .945.04.316.039.552.078.788.157l-5.99 17.68zm19.663-3.693c0 .55.118.904.315 1.1.236.197.591.275 1.064.275.315 0 .71 0 1.103-.039.394 0 .71-.04.906-.079.04.197.08.393.119.629 0 .236 0 .471-.04.707s-.079.472-.197.707c-.078.197-.197.393-.354.511-.197.079-.473.118-.828.157-.355.04-.748.04-1.221.04-.513 0-1.025-.04-1.498-.118-.473-.079-.906-.275-1.3-.511a3.323 3.323 0 01-.906-1.14c-.237-.51-.316-1.178-.316-2.003v-7.465h-1.891c-.118-.353-.158-.707-.158-1.14 0-.431.04-.785.158-1.139h1.891v-3.339c.197-.118.434-.196.749-.236a3.08 3.08 0 01.867-.118c.276-.039.552-.039.827-.039.276 0 .473.04.67.079v3.654h3.665c.118.353.197.707.197 1.139 0 .432-.079.786-.197 1.14h-3.665v7.228h.04z" fill="#fff"/><path fill-rule="evenodd" clip-rule="evenodd" d="M105.919 26.99c.119.394.158.865.119 1.376-.079.51-.237.943-.513 1.257a3.473 3.473 0 01-1.142.197c-.394 0-.828-.079-1.182-.197a2.418 2.418 0 01-1.025-.59 2.212 2.212 0 01-.67-1.02c-.394.51-.946.942-1.576 1.296-.67.353-1.537.55-2.561.55-1.064 0-1.852-.157-2.443-.432a3.426 3.426 0 01-1.34-1.1c-.315-.433-.473-.904-.552-1.415a8.84 8.84 0 01-.118-1.375c0-.668.04-1.218.157-1.69.08-.47.276-.864.513-1.178.236-.314.59-.55 1.064-.746.473-.197 1.024-.315 1.773-.393a9.2 9.2 0 011.143-.079h1.34c.472 0 .906.04 1.339.118.434.04.828.118 1.182.236v-1.14c0-.392-.039-.746-.118-.982-.079-.275-.197-.471-.394-.589-.197-.157-.394-.236-.67-.314-.276-.04-.59-.079-.985-.118a32.25 32.25 0 00-2.758 0c-.867.04-1.616.078-2.207.157-.236-.275-.355-.668-.433-1.14-.08-.47-.119-.903-.08-1.296.395-.078.789-.118 1.262-.157.473-.04.946-.079 1.458-.118.236-.02.482-.03.729-.04.246-.009.492-.019.729-.039.241 0 .473-.01.699-.02.216-.01.428-.019.64-.019.789 0 1.458.04 2.128.157.67.118 1.182.315 1.655.629.473.314.828.786 1.064 1.375.276.59.394 1.375.394 2.357v6.365c.118.078.237.157.394.157.158.04.316.04.473.04.085 0 .158-.012.226-.022a1.09 1.09 0 01.168-.018c.04-.04.118-.04.118-.04zm-7.802.433c.788-.04 1.458-.157 1.971-.393.512-.236.945-.51 1.3-.864v-2.829c-.709 0-1.458 0-2.246.04-.788.039-1.419.117-1.97.196-.197.04-.394.078-.513.118a.526.526 0 00-.315.275 1.472 1.472 0 00-.197.55c-.04.235-.04.589-.04.982 0 .707.158 1.218.434 1.532.237.275.788.432 1.576.393z" fill="#fff"/><path d="M114.116 14.104c-.71 0-1.222.118-1.458.393-.276.275-.394.825-.394 1.611v1.375h3.191c.119.354.197.707.197 1.14 0 .432-.078.785-.197 1.139h-3.191v9.783a6.878 6.878 0 01-1.537.196 6.326 6.326 0 01-1.537-.196v-9.783h-1.773a3.457 3.457 0 01-.197-1.14c0-.432.079-.785.197-1.139h1.773v-1.532c0-.629.079-1.218.236-1.768.158-.55.434-1.021.789-1.414a3.234 3.234 0 011.339-.904c.552-.236 1.182-.314 1.931-.314.237 0 .473 0 .788.039.284 0 .535.032.812.067l.095.011c.315.04.591.08.866.158.174.024.331.064.473.1.085.022.163.042.237.057.079.393.079.786.039 1.218a3.92 3.92 0 01-.394 1.14l-1.064-.119c-.473-.118-.827-.118-1.221-.118z" fill="#fff"/><path fill-rule="evenodd" clip-rule="evenodd" d="M123.651 15.99c1.222 0 2.247.157 3.074.432.828.315 1.497.747 2.01 1.297.512.59.867 1.296 1.064 2.121.197.865.315 1.808.315 2.868 0 1.18-.118 2.2-.315 3.104a5.468 5.468 0 01-1.064 2.2c-.513.59-1.182 1.022-2.01 1.336-.827.314-1.852.432-3.074.432-1.221 0-2.285-.157-3.112-.432-.828-.314-1.498-.746-2.01-1.336-.512-.589-.867-1.335-1.064-2.2-.197-.864-.315-1.925-.315-3.104 0-1.06.118-2.042.315-2.868.197-.864.552-1.571 1.064-2.121.512-.59 1.182-1.022 2.01-1.297.866-.314 1.891-.432 3.112-.432zm0 2.554c-.669 0-1.221.078-1.655.236a2.177 2.177 0 00-1.024.746 3.172 3.172 0 00-.512 1.336c-.079.55-.118 1.179-.118 1.886 0 .785.039 1.493.118 2.082.079.59.236 1.06.512 1.414.236.354.591.629 1.024.825.434.158.986.275 1.655.275.67 0 1.261-.078 1.655-.275a2.27 2.27 0 00.986-.825c.236-.353.394-.825.472-1.414.079-.59.119-1.257.119-2.043 0-.746-.04-1.375-.119-1.886-.078-.51-.236-.982-.472-1.296-.237-.354-.552-.59-.986-.747-.394-.236-.945-.314-1.655-.314z" fill="#fff"/><path d="M141.975 16.069c.039.157.078.353.118.628.039.275.039.55 0 .865-.04.314-.079.589-.118.864a3.573 3.573 0 01-.237.629c-.276-.04-.63-.04-1.024-.04s-.828 0-1.301.04c-.472.039-.946.078-1.497.117-.171.027-.342.049-.512.07-.342.044-.683.088-1.025.166v10.137c-.197.039-.433.078-.709.117-.276.04-.552.04-.828.04-.275 0-.551 0-.827-.04a13.295 13.295 0 01-.709-.117V16.422c.118-.078.275-.157.512-.235.236-.079.473-.118.709-.118.237-.04.473-.04.709-.04.237 0 .434.04.552.08l.552 1.61a6.215 6.215 0 011.537-.943 8.338 8.338 0 011.576-.55 10.14 10.14 0 011.458-.236c.354 0 .709 0 1.064.079z" fill="#fff"/><path fill-rule="evenodd" clip-rule="evenodd" d="M149.619 15.99c1.3 0 2.325.157 3.152.472.828.314 1.458.785 1.931 1.375.473.59.749 1.296.867 2.16.118.865.118 1.808-.039 2.869-.04.275-.118.51-.237.668-.118.157-.394.274-.788.353-.276.04-.748.079-1.339.118-.592.04-1.261.04-2.01.04-.749 0-1.458 0-2.207-.04a26.032 26.032 0 01-2.049-.197c0 .668.079 1.258.197 1.69.118.471.276.825.552 1.06.236.276.591.472.985.55.394.119.946.158 1.576.158.394 0 .867 0 1.34-.04.473-.039.946-.078 1.379-.117.434-.04.828-.079 1.143-.118.315-.04.551-.079.67-.118.157.236.315.59.433 1.06.118.472.118.904.04 1.337-.197.078-.513.157-.907.235-.238.048-.492.081-.768.117-.18.024-.369.049-.571.08-.473.039-.985.078-1.497.117h-.001c-.512.04-.985.04-1.418.04-1.183 0-2.207-.118-2.995-.354a4.333 4.333 0 01-2.01-1.218c-.512-.55-.867-1.296-1.103-2.2-.237-.903-.315-2.003-.315-3.34 0-1.1.078-2.042.275-2.907.158-.825.473-1.532.946-2.121.434-.55 1.064-.982 1.813-1.297.748-.314 1.734-.432 2.955-.432zm2.877 5.933c.039-.786.039-1.375-.079-1.847-.118-.471-.276-.786-.512-1.021a1.832 1.832 0 00-.907-.472 5.85 5.85 0 00-1.221-.118c-.591 0-1.104.04-1.458.157-.394.08-.67.276-.907.511a2.616 2.616 0 00-.433 1.061c-.079.472-.118 1.021-.158 1.768l5.675-.04z" fill="#fff"/><path d="M163.726 15.99c.552 0 1.143.04 1.694.079.591.04 1.104.078 1.576.157.191.032.375.057.551.081.259.036.499.069.71.115.355.079.592.157.71.197.039.157.039.353.039.59 0 .205-.03.38-.064.579v.003l-.015.085a2.9 2.9 0 01-.157.629c-.079.196-.158.353-.237.51-.039 0-.197-.039-.512-.117-.315-.079-.709-.118-1.143-.158a28.496 28.496 0 01-1.536-.157 22.944 22.944 0 00-1.616-.078c-.906 0-1.537.078-1.891.235-.355.158-.513.472-.513.943 0 .315.079.55.237.747.157.196.394.353.709.51l.213.082c.262.103.56.22.93.311.433.118.985.275 1.576.472l.086.027c.711.224 1.316.414 1.884.64a4.91 4.91 0 011.419.787c.394.314.67.667.867 1.1.197.432.275.982.275 1.65 0 1.335-.472 2.318-1.379 2.907-.906.629-2.364.943-4.374.943-.591 0-1.182-.04-1.773-.079s-1.143-.078-1.615-.157c-.202-.03-.392-.056-.572-.08-.276-.035-.53-.069-.768-.116a5.095 5.095 0 01-.867-.236 6.57 6.57 0 010-1.257c.079-.472.197-.865.355-1.1.197.039.472.078.866.117.328.033.682.093 1.064.157l.237.04c.473.079 1.024.118 1.576.157l.11.008c.51.037.988.07 1.466.07.985 0 1.655-.117 2.049-.314.355-.196.552-.55.552-.982 0-.275-.079-.51-.237-.668a2.436 2.436 0 00-.669-.471 8.557 8.557 0 00-1.104-.393 47.444 47.444 0 01-1.576-.471 28.739 28.739 0 01-2.01-.708 5.666 5.666 0 01-1.458-.825 3.146 3.146 0 01-.906-1.14c-.197-.431-.315-.981-.315-1.57 0-1.336.433-2.319 1.34-2.908.985-.668 2.364-.943 4.216-.943zm12.412 9.822c0 .55.119.904.316 1.1.236.197.591.275 1.064.275.315 0 .709 0 1.103-.039.394 0 .709-.04.906-.079.04.197.079.393.118.629 0 .236 0 .471-.039.707s-.079.472-.197.707c-.079.197-.197.393-.355.511-.197.079-.473.118-.827.157-.355.04-.749.04-1.222.04-.512 0-1.024-.04-1.497-.118-.473-.079-.906-.275-1.3-.511a3.328 3.328 0 01-.907-1.14c-.236-.51-.315-1.178-.315-2.003v-7.465h-1.891c-.119-.353-.158-.707-.158-1.14 0-.431.039-.785.158-1.139h1.891v-3.339c.197-.118.433-.196.749-.236a3.1 3.1 0 01.867-.118c.275-.039.551-.039.827-.039.276 0 .473.04.67.079v3.654h3.665c.118.353.197.707.197 1.139 0 .432-.079.786-.197 1.14h-3.626v7.228z" fill="#fff"/></svg>