<svg width="259" height="69" viewBox="0 0 259 69" fill="none" xmlns="http://www.w3.org/2000/svg">
<path d="M138.345 56.1019L137.835 56.74C138.401 57.3782 139.252 57.8424 140.442 57.8424C142.257 57.8424 142.937 56.7981 142.937 55.8118C142.937 54.3406 141.66 53.9933 140.543 53.69C139.679 53.4551 138.913 53.2466 138.913 52.563C138.913 51.9248 139.535 51.4606 140.33 51.4606C141.066 51.4606 141.803 51.6926 142.314 52.2729L142.824 51.6347C142.2 50.9965 141.407 50.6484 140.386 50.6484C139.082 50.6484 138.062 51.4026 138.062 52.563C138.062 53.9121 139.239 54.2432 140.32 54.5472C141.238 54.8053 142.088 55.044 142.088 55.8698C142.088 56.45 141.69 57.0882 140.5 57.0882C139.535 57.0882 138.799 56.6241 138.345 56.1019Z" fill="white"/>
<path d="M98.8262 57.7261L97.352 52.0986L95.8779 57.7261H94.9707L93.043 50.7642H94.0068L95.5377 56.5658L97.0686 50.7642H97.749L99.2798 56.5658L100.754 50.7642H101.718L99.7901 57.7261H98.8262Z" fill="white"/>
<path d="M105.914 57.7261V50.7642H106.764V57.7261H105.914Z" fill="white"/>
<path d="M111.64 50.7642V57.6681H115.666V56.914H112.491V50.7642H111.64Z" fill="white"/>
<path fill-rule="evenodd" clip-rule="evenodd" d="M120.088 57.7261V50.7642H122.412C124.51 50.7642 125.871 52.2726 125.871 54.2451C125.871 56.2177 124.51 57.7261 122.412 57.7261H120.088ZM125.021 54.2451C125.021 52.7367 124.113 51.5184 122.412 51.5184H120.938V56.9139H122.412C124.057 56.9139 125.021 55.7535 125.021 54.2451Z" fill="white"/>
<path d="M147.531 50.7642H148.38V57.7261H147.531V50.7642Z" fill="white"/>
<path fill-rule="evenodd" clip-rule="evenodd" d="M153.257 50.7642V57.6681H156.318C157.566 57.6681 158.303 56.914 158.303 55.8116C158.303 54.9994 157.736 54.2451 156.998 54.1292C157.622 54.0131 158.19 53.433 158.19 52.5628C158.19 51.5184 157.452 50.7642 156.261 50.7642H153.257ZM156.091 51.5765C156.886 51.5765 157.283 52.0405 157.283 52.6787C157.283 53.3169 156.886 53.7811 156.091 53.8391H154.05V51.5765H156.091ZM156.149 54.5352C156.942 54.5352 157.395 55.1154 157.395 55.7535C157.395 56.5078 156.942 56.914 156.149 56.914H154.05V54.5352H156.149Z" fill="white"/>
<path d="M162.953 57.6681V50.7642H167.374V51.5184H163.746V53.7811H167.262V54.5352H163.746V56.914H167.374V57.6681H162.953Z" fill="white"/>
<path fill-rule="evenodd" clip-rule="evenodd" d="M174.178 54.9414L175.936 57.7261H176.9L175.086 54.8833C175.993 54.7674 176.844 54.1292 176.844 52.8528C176.844 51.5765 175.936 50.7642 174.69 50.7642H171.968V57.7261H172.818V54.9414H174.178ZM174.632 51.5184C175.427 51.5184 175.993 52.0986 175.993 52.8528C175.993 53.665 175.427 54.1871 174.632 54.1871H172.875V51.5184H174.632Z" fill="white"/>
<path d="M181.493 50.7642H182.343V57.7261H181.493V50.7642Z" fill="white"/>
<path fill-rule="evenodd" clip-rule="evenodd" d="M191.414 56.1597L192.038 57.7261H193.003L190.28 50.7642H189.261L186.539 57.7261H187.39L188.013 56.1597H191.414ZM188.353 55.3475L189.771 51.6345L191.245 55.3475H188.353Z" fill="white"/>
<path d="M0 33.8235C0 15.1423 14.7984 0 33.0554 0C51.3123 0 66.1107 15.1423 66.1675 33.8235C66.1675 36.0282 65.9407 38.1747 65.5438 40.2634C65.2602 41.7138 64.9202 43.1062 64.4664 44.4405L55.5081 35.622C54.9411 35.0999 54.0906 34.9838 53.4102 35.448H53.3536C52.6732 35.8542 52.3897 36.7244 52.6732 37.4785V37.5365C53.1268 38.7549 51.6526 39.7412 50.7453 38.871L37.5912 25.1791C37.0242 24.715 36.2872 24.4249 35.5501 24.5989C34.4161 24.889 33.6791 25.9333 33.7925 27.0356L33.9625 32.3732C34.0759 34.1136 32.6586 35.5641 30.9575 35.448L20.1848 32.7792C19.5044 32.6052 18.7673 32.8953 18.3703 33.4754C17.8601 34.2877 18.0869 35.3319 18.8807 35.7961L30.1637 42.9321C30.9008 43.2802 30.4473 44.4985 29.6535 44.2084L12.2469 37.9427C10.8862 37.4785 9.35529 37.7687 8.22132 38.697L4.7627 41.7718C8.16462 54.5933 19.5611 63.9921 33.1121 63.9921C45.5857 63.9921 56.2451 55.9858 60.4976 44.7307L63.2191 47.6314C58.0595 59.4668 46.493 67.7051 33.0554 67.7051C18.4271 67.7051 6.06677 57.9584 1.70096 44.4405C1.19067 42.8161 0.793783 41.1336 0.510289 39.4511L3.74212 36.4923L15.1386 26.2234C16.0458 25.4112 17.4632 25.3532 18.4271 26.1073L22.226 29.0081C23.1898 29.8205 24.6639 29.7624 25.5711 28.8342L35.0399 17.753C36.1171 16.4767 38.1016 16.5347 39.0655 17.927L48.5342 31.3288C49.4414 32.3732 51.0289 32.4891 52.0495 31.5028L52.7866 30.9227C53.8072 30.0525 55.2813 30.1686 56.2451 31.0968L62.2553 37.1305C62.3687 36.0282 62.4253 34.9259 62.4253 33.8235C62.4253 17.1729 49.2712 3.71305 32.9987 3.71305C17.4065 3.71305 4.706 16.1285 3.68542 31.7929L0.0566987 34.9259C0.0566987 34.7518 0.042524 34.5632 0.0283494 34.3747C0.0141747 34.1861 0 33.9975 0 33.8235Z" fill="white"/>
<path d="M114.078 19.3775C114.078 18.5652 113.965 17.8111 113.795 17.2309C113.7 17.2116 113.599 17.1857 113.49 17.1579C113.272 17.102 113.02 17.0375 112.717 16.9988C112.32 16.9407 111.867 16.8828 111.47 16.8828C111.016 16.8828 110.619 16.9407 110.223 16.9988C109.769 17.0568 109.429 17.1148 109.145 17.2309C108.975 17.869 108.862 18.5652 108.862 19.3775C108.862 20.1897 108.975 20.9439 109.145 21.5241C109.485 21.6402 109.826 21.7561 110.223 21.8142C110.619 21.8722 111.073 21.9302 111.47 21.9302C111.924 21.9302 112.32 21.8722 112.717 21.8142C113.171 21.7561 113.511 21.6402 113.795 21.5241C113.965 20.8859 114.078 20.1897 114.078 19.3775Z" fill="white"/>
<path d="M113.738 43.5701V25.2369C113.114 25.0629 112.377 25.0049 111.527 25.0049C110.676 25.0049 109.939 25.121 109.315 25.2369V43.5701C109.939 43.7442 110.676 43.8021 111.527 43.8021C112.377 43.8021 113.114 43.6862 113.738 43.5701Z" fill="white"/>
<path d="M96.9552 43.5702C96.5582 43.6863 96.048 43.7443 95.5377 43.8022C95.0275 43.8603 94.517 43.8603 93.95 43.8603C93.3831 43.8603 92.8728 43.8603 92.3626 43.8022C91.8522 43.7443 91.3986 43.6863 90.9451 43.5702L82.6104 17.4049C82.9505 17.3468 83.2907 17.2888 83.7443 17.2309C84.1979 17.1729 84.6515 17.1729 85.1051 17.1729C85.5587 17.1729 86.0122 17.1729 86.466 17.2309C86.7683 17.2695 87.0202 17.3081 87.2722 17.3468C87.3982 17.3662 87.5242 17.3855 87.6566 17.4049L93.9501 39.161H94.1769L100.584 17.4049C100.924 17.3468 101.264 17.2888 101.718 17.2309C102.171 17.1729 102.625 17.1729 103.079 17.1729C103.532 17.1729 103.986 17.1729 104.439 17.2309C104.893 17.2888 105.233 17.3468 105.573 17.4629L96.9552 43.5702Z" fill="white"/>
<path d="M125.247 38.1169C125.247 38.9292 125.417 39.4513 125.701 39.7414C126.041 40.0315 126.551 40.1476 127.232 40.1476C127.685 40.1476 128.252 40.1476 128.819 40.0895C129.386 40.0895 129.84 40.0315 130.124 39.9736C130.18 40.2636 130.237 40.5537 130.294 40.9018C130.294 41.2498 130.294 41.5979 130.237 41.946C130.18 42.2941 130.124 42.6422 129.953 42.9904C129.84 43.2804 129.67 43.5705 129.443 43.7446C129.16 43.8606 128.763 43.9186 128.252 43.9766C127.742 44.0347 127.175 44.0347 126.495 44.0347C125.758 44.0347 125.021 43.9766 124.34 43.8606C123.66 43.7446 123.036 43.4545 122.469 43.1064C121.959 42.7003 121.505 42.1201 121.165 41.4239C120.825 40.6697 120.711 39.6834 120.711 38.465V27.4419H117.99C117.82 26.9198 117.763 26.3976 117.763 25.7594C117.763 25.1212 117.82 24.5991 117.99 24.077H120.711V19.1456C120.995 18.9716 121.335 18.8555 121.789 18.7975C122.186 18.6815 122.583 18.6235 123.036 18.6235C123.433 18.5654 123.83 18.5654 124.227 18.5654C124.624 18.5654 124.907 18.6235 125.191 18.6815V24.077H130.464C130.634 24.5991 130.747 25.1212 130.747 25.7594C130.747 26.3976 130.634 26.9198 130.464 27.4419H125.191V38.1169H125.247Z" fill="white"/>
<path fill-rule="evenodd" clip-rule="evenodd" d="M152.406 39.8574C152.577 40.4376 152.633 41.1338 152.577 41.8881C152.463 42.6422 152.236 43.2804 151.84 43.7446C151.329 43.9186 150.819 44.0346 150.195 44.0346C149.628 44.0346 149.004 43.9186 148.494 43.7446C147.927 43.5704 147.417 43.2804 147.02 42.8742C146.566 42.4682 146.226 41.946 146.056 41.3658C145.49 42.1201 144.695 42.7583 143.788 43.2804C142.825 43.8025 141.577 44.0927 140.103 44.0927C138.572 44.0927 137.438 43.8605 136.587 43.4545C135.738 43.0483 135.114 42.4682 134.66 41.83C134.206 41.1918 133.979 40.4956 133.866 39.7413C133.753 38.9872 133.696 38.349 133.696 37.7108C133.696 36.7246 133.753 35.9122 133.923 35.2162C134.036 34.5199 134.319 33.9398 134.66 33.4756C135 33.0115 135.511 32.6634 136.191 32.3734C136.872 32.0833 137.665 31.9092 138.742 31.7931C139.196 31.7352 139.762 31.6771 140.386 31.6771H142.315C142.995 31.6771 143.618 31.7352 144.242 31.8511C144.866 31.9092 145.432 32.0252 145.943 32.1992V30.5169C145.943 29.9366 145.886 29.4145 145.773 29.0664C145.659 28.6602 145.49 28.3701 145.205 28.1962C144.922 27.9641 144.639 27.848 144.242 27.732C143.844 27.6739 143.391 27.616 142.825 27.558C141.407 27.4999 140.103 27.4999 138.855 27.558C137.608 27.616 136.531 27.6739 135.68 27.79C135.34 27.3838 135.17 26.8037 135.057 26.1075C134.943 25.4114 134.887 24.7732 134.943 24.1931C135.511 24.077 136.077 24.0189 136.757 23.9609C137.438 23.9029 138.118 23.845 138.855 23.7869C139.196 23.7578 139.55 23.7434 139.904 23.7289C140.259 23.7144 140.613 23.6999 140.954 23.6708C141.301 23.6708 141.634 23.6557 141.959 23.6409C142.27 23.6267 142.576 23.6128 142.881 23.6128C144.015 23.6128 144.978 23.6708 145.943 23.845C146.907 24.0189 147.644 24.309 148.324 24.7732C149.004 25.2373 149.514 25.9335 149.855 26.8037C150.252 27.6739 150.421 28.8343 150.421 30.2847V39.6834C150.592 39.7994 150.762 39.9155 150.989 39.9155C151.216 39.9735 151.443 39.9735 151.669 39.9735C151.79 39.9735 151.896 39.9567 151.994 39.9413C152.079 39.9279 152.158 39.9155 152.236 39.9155C152.293 39.8574 152.406 39.8574 152.406 39.8574ZM141.181 40.4956C142.315 40.4376 143.278 40.2636 144.015 39.9155C144.752 39.5674 145.376 39.1612 145.886 38.6391V34.4619C144.866 34.4619 143.788 34.4619 142.654 34.5199C141.52 34.578 140.613 34.6939 139.819 34.81C139.535 34.868 139.252 34.9261 139.082 34.984C138.913 35.042 138.742 35.1581 138.628 35.3901C138.515 35.5643 138.401 35.8543 138.345 36.2025C138.289 36.5504 138.289 37.0727 138.289 37.6528C138.289 38.6971 138.515 39.4513 138.913 39.9155C139.252 40.3216 140.047 40.5536 141.181 40.4956Z" fill="white"/>
<path d="M164.199 20.8277C163.18 20.8277 162.443 21.0018 162.102 21.4078C161.705 21.814 161.534 22.6263 161.534 23.7866V25.8171H166.128C166.298 26.3393 166.411 26.8614 166.411 27.4996C166.411 28.1378 166.298 28.6599 166.128 29.1821H161.534V43.6281C160.798 43.8023 160.061 43.9182 159.324 43.9182C158.53 43.9182 157.793 43.8023 157.112 43.6281V29.1821H154.561C154.391 28.6599 154.277 28.1378 154.277 27.4996C154.277 26.8614 154.391 26.3393 154.561 25.8171H157.112V23.5545C157.112 22.6263 157.225 21.7559 157.452 20.9438C157.679 20.1315 158.076 19.4354 158.586 18.8551C159.097 18.275 159.72 17.8109 160.514 17.5208C161.307 17.1727 162.215 17.0566 163.292 17.0566C163.633 17.0566 163.973 17.0566 164.426 17.1147C164.834 17.1147 165.196 17.1615 165.595 17.2132L165.731 17.2308C166.184 17.2887 166.581 17.3467 166.979 17.4628C167.227 17.4992 167.454 17.5584 167.659 17.6119C167.78 17.6435 167.893 17.6732 167.999 17.6948C168.113 18.275 168.113 18.8551 168.055 19.4933C167.942 20.0736 167.772 20.6537 167.489 21.1758L165.957 21.0018C165.277 20.8277 164.767 20.8277 164.199 20.8277Z" fill="white"/>
<path fill-rule="evenodd" clip-rule="evenodd" d="M177.921 23.6128C179.679 23.6128 181.153 23.845 182.343 24.251C183.535 24.7152 184.498 25.3534 185.235 26.1655C185.972 27.0357 186.483 28.0801 186.766 29.2984C187.049 30.5748 187.22 31.9672 187.22 33.5336C187.22 35.2741 187.049 36.7826 186.766 38.1169C186.483 39.3932 185.915 40.4956 185.235 41.3658C184.498 42.236 183.535 42.8742 182.343 43.3384C181.153 43.8025 179.679 43.9766 177.921 43.9766C176.163 43.9766 174.632 43.7446 173.442 43.3384C172.251 42.8742 171.288 42.236 170.55 41.3658C169.813 40.4956 169.303 39.3932 169.02 38.1169C168.735 36.8405 168.566 35.2741 168.566 33.5336C168.566 31.9672 168.735 30.5167 169.02 29.2984C169.303 28.022 169.813 26.9778 170.55 26.1655C171.288 25.2953 172.251 24.6571 173.442 24.251C174.69 23.7869 176.163 23.6128 177.921 23.6128ZM177.921 27.3838C176.958 27.3838 176.163 27.4999 175.539 27.732C174.917 27.9641 174.463 28.3121 174.066 28.8343C173.725 29.3564 173.442 29.9946 173.329 30.8069C173.215 31.6191 173.159 32.5473 173.159 33.5917C173.159 34.752 173.215 35.7963 173.329 36.6665C173.442 37.5367 173.669 38.2329 174.066 38.755C174.405 39.2773 174.917 39.6834 175.539 39.9735C176.163 40.2055 176.958 40.3795 177.921 40.3795C178.885 40.3795 179.736 40.2636 180.302 39.9735C180.926 39.6834 181.38 39.2773 181.72 38.755C182.06 38.2329 182.287 37.5367 182.401 36.6665C182.513 35.7963 182.57 34.81 182.57 33.6497C182.57 32.5473 182.513 31.6191 182.401 30.8648C182.287 30.1107 182.06 29.4145 181.72 28.9503C181.38 28.4282 180.926 28.0801 180.302 27.848C179.736 27.4999 178.941 27.3838 177.921 27.3838Z" fill="white"/>
<path d="M204.285 23.7289C204.343 23.9609 204.399 24.251 204.456 24.6571C204.512 25.0633 204.512 25.4693 204.456 25.9335C204.399 26.3977 204.343 26.8037 204.285 27.2099C204.172 27.616 204.058 27.9061 203.946 28.1381C203.548 28.0801 203.038 28.0801 202.471 28.0801C201.904 28.0801 201.28 28.0801 200.6 28.1381C199.92 28.1961 199.239 28.2542 198.446 28.3121C198.199 28.3508 197.954 28.3831 197.708 28.4153C197.217 28.4797 196.726 28.5443 196.235 28.6602V43.6285C195.951 43.6865 195.611 43.7446 195.213 43.8025C194.818 43.8605 194.42 43.8605 194.023 43.8605C193.626 43.8605 193.23 43.8605 192.833 43.8025C192.436 43.7446 192.096 43.6865 191.812 43.6285V24.251C191.982 24.135 192.209 24.0189 192.55 23.9029C192.889 23.7869 193.23 23.7289 193.569 23.7289C193.91 23.6708 194.25 23.6708 194.591 23.6708C194.93 23.6708 195.213 23.7289 195.384 23.7869L196.178 26.1655C196.859 25.5854 197.595 25.1213 198.389 24.7732C199.127 24.4251 199.92 24.135 200.656 23.9609C201.395 23.7869 202.075 23.6708 202.755 23.6128C203.265 23.6128 203.775 23.6128 204.285 23.7289Z" fill="white"/>
<path fill-rule="evenodd" clip-rule="evenodd" d="M215.286 23.6128C217.156 23.6128 218.631 23.845 219.821 24.309C221.012 24.7732 221.919 25.4693 222.599 26.3396C223.28 27.2099 223.677 28.2542 223.847 29.5306C224.016 30.8069 224.016 32.1992 223.79 33.7657C223.733 34.1718 223.621 34.5199 223.45 34.752C223.28 34.984 222.884 35.1581 222.316 35.2741C221.919 35.3321 221.239 35.3901 220.388 35.4482C219.538 35.5062 218.573 35.5062 217.497 35.5062C216.42 35.5062 215.398 35.5062 214.322 35.4482C213.244 35.3901 212.223 35.2741 211.374 35.1581C211.374 36.1444 211.486 37.0146 211.657 37.6528C211.827 38.349 212.054 38.8711 212.45 39.2192C212.791 39.6254 213.301 39.9155 213.868 40.0314C214.435 40.2055 215.229 40.2636 216.136 40.2636C216.703 40.2636 217.383 40.2636 218.063 40.2055C218.744 40.1475 219.424 40.0895 220.048 40.0314C220.672 39.9735 221.239 39.9155 221.692 39.8574C222.146 39.7994 222.487 39.7413 222.656 39.6834C222.884 40.0314 223.109 40.5536 223.28 41.2499C223.45 41.946 223.45 42.5841 223.336 43.2223C223.053 43.3384 222.599 43.4545 222.033 43.5704C221.689 43.6408 221.324 43.6898 220.927 43.7432C220.668 43.7781 220.396 43.8148 220.105 43.8605C219.424 43.9185 218.687 43.9766 217.951 44.0345C217.214 44.0925 216.532 44.0927 215.91 44.0927C214.208 44.0927 212.735 43.9186 211.601 43.5704C210.409 43.2223 209.445 42.5841 208.709 41.772C207.972 40.9597 207.461 39.8574 207.121 38.523C206.78 37.1886 206.667 35.5643 206.667 33.5917C206.667 31.9672 206.78 30.5748 207.065 29.2984C207.291 28.0801 207.745 27.0359 208.425 26.1655C209.048 25.3534 209.955 24.7152 211.033 24.251C212.11 23.7869 213.528 23.6128 215.286 23.6128ZM219.424 32.3734C219.481 31.2129 219.481 30.3427 219.312 29.6465C219.141 28.9503 218.914 28.4862 218.573 28.1381C218.234 27.79 217.78 27.558 217.27 27.4419C216.759 27.3259 216.136 27.2679 215.512 27.2679C214.662 27.2679 213.925 27.3259 213.415 27.4999C212.847 27.616 212.45 27.9061 212.111 28.2542C211.827 28.6602 211.601 29.1824 211.486 29.8206C211.374 30.5169 211.316 31.329 211.26 32.4313L219.424 32.3734Z" fill="white"/>
<path d="M235.584 23.6128C236.377 23.6128 237.228 23.6708 238.021 23.7289C238.872 23.7869 239.609 23.845 240.289 23.9609C240.564 24.0077 240.829 24.0451 241.081 24.0806C241.454 24.1331 241.8 24.1818 242.103 24.251C242.615 24.3671 242.954 24.4831 243.125 24.541C243.181 24.7732 243.181 25.0633 243.181 25.4114C243.181 25.7153 243.138 25.9749 243.09 26.2677L243.088 26.2725C243.082 26.3135 243.075 26.3551 243.068 26.3977C243.011 26.7457 242.954 27.0359 242.841 27.3259C242.727 27.616 242.615 27.848 242.501 28.0801C242.444 28.0801 242.217 28.0222 241.764 27.9061C241.31 27.7901 240.743 27.732 240.12 27.6739C239.44 27.616 238.759 27.558 237.908 27.4419C237.114 27.3838 236.321 27.3259 235.584 27.3259C234.28 27.3259 233.373 27.4419 232.863 27.6739C232.351 27.9061 232.125 28.3701 232.125 29.0664C232.125 29.5306 232.239 29.8787 232.465 30.1687C232.692 30.4588 233.032 30.6908 233.485 30.9229C233.585 30.9609 233.687 31.0016 233.791 31.0438C234.17 31.1954 234.598 31.367 235.131 31.503C235.753 31.6771 236.548 31.9092 237.398 32.1992L237.522 32.2394C238.546 32.5699 239.415 32.8509 240.233 33.1855C241.027 33.4756 241.707 33.8818 242.274 34.3458C242.841 34.81 243.237 35.3321 243.522 35.9703C243.805 36.6085 243.918 37.4208 243.918 38.4071C243.918 40.3795 243.237 41.83 241.934 42.7002C240.63 43.6285 238.532 44.0927 235.64 44.0927C234.79 44.0927 233.939 44.0346 233.089 43.9766C232.239 43.9185 231.444 43.8605 230.764 43.7446C230.474 43.6988 230.201 43.662 229.942 43.6273C229.545 43.5738 229.18 43.5247 228.837 43.4545C228.269 43.3384 227.872 43.2223 227.589 43.1064C227.532 42.5841 227.532 41.946 227.589 41.2499C227.703 40.5536 227.873 39.9735 228.099 39.6254C228.383 39.6834 228.779 39.7413 229.347 39.7994C229.818 39.8475 230.328 39.9359 230.878 40.0309C230.989 40.0502 231.103 40.0698 231.217 40.0895C231.898 40.2055 232.692 40.2636 233.485 40.3215L233.645 40.3331C234.378 40.3871 235.066 40.4376 235.753 40.4376C237.172 40.4376 238.135 40.2636 238.701 39.9735C239.213 39.6834 239.496 39.1612 239.496 38.523C239.496 38.1169 239.382 37.7689 239.155 37.5367C238.928 37.3047 238.645 37.0727 238.192 36.8406C237.794 36.6665 237.228 36.4345 236.604 36.2604C235.98 36.0864 235.243 35.8543 234.336 35.5643C233.258 35.2162 232.295 34.868 231.444 34.5199C230.595 34.1718 229.914 33.7657 229.347 33.3016C228.779 32.8374 228.327 32.2573 228.042 31.6191C227.759 30.9809 227.589 30.1687 227.589 29.2984C227.589 27.3259 228.213 25.8755 229.517 25.0052C230.934 24.0189 232.919 23.6128 235.584 23.6128Z" fill="white"/>
<path d="M253.443 38.1169C253.443 38.9292 253.613 39.4513 253.896 39.7414C254.237 40.0315 254.747 40.1476 255.427 40.1476C255.881 40.1476 256.449 40.1476 257.015 40.0895C257.583 40.0895 258.036 40.0315 258.319 39.9736C258.376 40.2636 258.433 40.5537 258.49 40.9018C258.49 41.2498 258.49 41.5979 258.433 41.946C258.376 42.2941 258.319 42.6422 258.149 42.9904C258.036 43.2804 257.866 43.5705 257.639 43.7446C257.356 43.8606 256.959 43.9186 256.449 43.9766C255.939 44.0347 255.371 44.0347 254.691 44.0347C253.954 44.0347 253.216 43.9766 252.535 43.8606C251.855 43.7446 251.232 43.4545 250.665 43.1064C250.155 42.7003 249.701 42.1201 249.36 41.4239C249.021 40.6697 248.907 39.6834 248.907 38.465V27.4419H246.185C246.016 26.9198 245.958 26.3976 245.958 25.7594C245.958 25.1212 246.016 24.5991 246.185 24.077H248.907V19.1456C249.191 18.9716 249.531 18.8555 249.984 18.7975C250.382 18.6815 250.779 18.6235 251.232 18.6235C251.628 18.5654 252.026 18.5654 252.423 18.5654C252.82 18.5654 253.103 18.6235 253.386 18.6815V24.077H258.66C258.829 24.5991 258.943 25.1212 258.943 25.7594C258.943 26.3976 258.829 26.9198 258.66 27.4419H253.443V38.1169Z" fill="white"/>
</svg>
