<svg width="147" height="39" fill="none" xmlns="http://www.w3.org/2000/svg"><path d="M78.52 31.515l-.29.358c.322.359.805.62 1.48.62 1.03 0 1.416-.587 1.416-1.141 0-.827-.725-1.022-1.359-1.192-.49-.132-.925-.25-.925-.633 0-.359.353-.62.804-.62.418 0 .837.13 1.126.457l.29-.359c-.354-.358-.805-.554-1.384-.554-.74 0-1.32.424-1.32 1.076 0 .758.67.944 1.283 1.114.52.145 1.003.28 1.003.743 0 .326-.226.685-.901.685-.547 0-.966-.261-1.223-.554zm-22.43.912l-.837-3.161-.836 3.161h-.515l-1.094-3.91h.547l.869 3.258.868-3.259h.387l.868 3.26.837-3.26h.547l-1.094 3.911h-.547zm4.023 0v-3.91h.482v3.91h-.482zm3.25-3.911v3.879h2.285v-.424h-1.802v-3.455h-.483z" fill="#848AA5"/><path fill-rule="evenodd" clip-rule="evenodd" d="M68.158 32.427v-3.91h1.32c1.19 0 1.962.847 1.962 1.955s-.772 1.955-1.963 1.955h-1.32zm2.8-1.955c0-.848-.516-1.532-1.48-1.532h-.838v3.03h.837c.933 0 1.48-.65 1.48-1.498z" fill="#848AA5"/><path d="M83.733 28.516h.483v3.911h-.483v-3.91z" fill="#848AA5"/><path fill-rule="evenodd" clip-rule="evenodd" d="M86.983 28.516v3.879h1.738c.708 0 1.126-.424 1.126-1.043 0-.457-.322-.88-.74-.945.354-.066.676-.392.676-.88 0-.587-.418-1.01-1.094-1.01h-1.706zm1.61.457c.45 0 .675.26.675.619 0 .358-.225.619-.676.652h-1.158v-1.271h1.158zm.031 1.662c.45 0 .708.326.708.684 0 .424-.257.652-.708.652h-1.19v-1.336h1.19z" fill="#848AA5"/><path d="M92.486 32.395v-3.879h2.51v.424h-2.06v1.271h1.996v.424h-1.995v1.336h2.06v.424h-2.511z" fill="#848AA5"/><path fill-rule="evenodd" clip-rule="evenodd" d="M98.858 30.863l.997 1.564h.547l-1.03-1.597c.516-.065.998-.423.998-1.14 0-.717-.515-1.174-1.223-1.174h-1.544v3.911h.482v-1.564h.773zm.257-1.923c.45 0 .773.326.773.75 0 .456-.322.75-.773.75h-.997v-1.5h.997z" fill="#848AA5"/><path d="M103.009 28.516h.483v3.911h-.483v-3.91z" fill="#848AA5"/><path fill-rule="evenodd" clip-rule="evenodd" d="M108.641 31.547l.354.88h.547l-1.545-3.91h-.579l-1.545 3.91h.483l.354-.88h1.931zm-1.738-.456l.804-2.086.837 2.086h-1.641z" fill="#848AA5"/><path d="M0 19C0 8.506 8.4 0 18.761 0c10.362 0 18.761 8.506 18.793 19a19.14 19.14 0 01-.354 3.617c-.16.815-.354 1.597-.61 2.347l-5.085-4.954a.958.958 0 00-1.191-.098h-.032a.942.942 0 00-.386 1.141v.033c.257.684-.58 1.238-1.095.75l-7.465-7.692c-.322-.26-.74-.424-1.159-.326-.643.163-1.062.75-.997 1.369l.096 2.998c.064.978-.74 1.793-1.706 1.728l-6.114-1.5a.978.978 0 00-1.03.392c-.29.456-.16 1.042.29 1.303l6.404 4.009c.418.195.16.88-.29.717l-9.879-3.52a2.42 2.42 0 00-2.285.424l-1.963 1.727c1.931 7.202 8.4 12.482 16.09 12.482 7.08 0 13.13-4.498 15.544-10.82l1.544 1.63c-2.928 6.648-9.493 11.276-17.12 11.276-8.302 0-15.318-5.476-17.796-13.069a20.893 20.893 0 01-.675-2.803L2.124 20.5l6.468-5.768a1.486 1.486 0 011.867-.066l2.156 1.63a1.415 1.415 0 001.898-.098l5.374-6.224c.612-.717 1.738-.685 2.285.097l5.374 7.529a1.379 1.379 0 001.996.097l.418-.326c.58-.488 1.416-.423 1.963.098l3.411 3.39c.064-.62.097-1.239.097-1.858 0-9.353-7.466-16.914-16.702-16.914-8.85 0-16.058 6.974-16.637 15.773l-2.06 1.76c0-.098-.008-.203-.016-.31A4.207 4.207 0 010 19zm64.747-8.115c0-.456-.064-.88-.16-1.206-.055-.01-.112-.025-.174-.04a3.496 3.496 0 00-.438-.09 5.197 5.197 0 00-.708-.065c-.258 0-.483.032-.708.065-.258.032-.45.065-.612.13a4.58 4.58 0 00-.16 1.206c0 .456.064.88.16 1.206.193.065.386.13.612.163.225.032.482.065.708.065.257 0 .482-.033.708-.065.257-.033.45-.098.611-.163.097-.359.161-.75.161-1.206zm-.193 13.59V14.177c-.354-.098-.773-.13-1.255-.13a6.77 6.77 0 00-1.255.13v10.298c.354.098.772.13 1.255.13.483 0 .9-.065 1.255-.13zm-9.525 0c-.226.065-.515.098-.805.13-.29.033-.58.033-.901.033-.322 0-.611 0-.901-.033a5.932 5.932 0 01-.805-.13l-4.73-14.698c.193-.033.386-.065.644-.098.257-.032.514-.032.772-.032.257 0 .515 0 .772.032.172.022.315.044.458.065l.218.033 3.572 12.221h.129l3.636-12.221c.193-.033.386-.065.644-.098.257-.032.514-.032.772-.032.257 0 .515 0 .772.032.258.033.45.065.644.13l-4.892 14.666zm16.058-3.063c0 .456.096.75.257.912.193.163.483.228.869.228.257 0 .58 0 .9-.032.323 0 .58-.033.741-.066.032.163.064.326.097.522 0 .196 0 .391-.033.587-.032.195-.064.39-.16.586-.065.163-.161.326-.29.424-.161.065-.386.098-.676.13-.29.033-.611.033-.998.033-.418 0-.836-.033-1.222-.098s-.74-.228-1.062-.424a2.749 2.749 0 01-.74-.945c-.194-.423-.258-.977-.258-1.662v-6.192h-1.545c-.096-.293-.128-.586-.128-.945s.032-.652.128-.945h1.545v-2.77c.161-.098.354-.163.612-.196a2.48 2.48 0 01.708-.098c.225-.032.45-.032.675-.032a2.5 2.5 0 01.547.065v3.03h2.993c.097.294.161.588.161.946s-.064.652-.16.945h-2.994v5.997h.032z" fill="#3C3F54"/><path fill-rule="evenodd" clip-rule="evenodd" d="M86.5 22.39c.097.325.13.716.097 1.14-.064.424-.193.782-.418 1.043-.29.098-.58.163-.933.163-.322 0-.676-.065-.966-.163a1.972 1.972 0 01-.836-.489 1.837 1.837 0 01-.547-.847c-.322.423-.773.782-1.288 1.075-.547.293-1.255.456-2.091.456-.87 0-1.513-.13-1.996-.358a2.809 2.809 0 01-1.094-.913c-.257-.358-.386-.75-.45-1.173a7.441 7.441 0 01-.097-1.14c0-.555.032-1.01.13-1.402.063-.39.224-.717.417-.977.194-.261.483-.457.87-.62.385-.163.836-.26 1.447-.326.258-.032.58-.065.934-.065h1.094c.386 0 .74.033 1.094.098.354.032.676.098.965.195v-.945c0-.325-.032-.619-.096-.814-.065-.229-.161-.391-.322-.49-.16-.13-.322-.195-.547-.26a18.833 18.833 0 00-.805-.098 25.927 25.927 0 00-2.252 0c-.708.033-1.32.066-1.802.13-.193-.227-.29-.553-.354-.944-.065-.392-.097-.75-.065-1.076a8.874 8.874 0 011.03-.13c.386-.033.772-.066 1.19-.098.194-.016.395-.024.596-.033.201-.008.402-.016.595-.032.198 0 .386-.009.571-.017.177-.008.35-.016.524-.016.643 0 1.19.033 1.737.13.547.098.966.261 1.352.522.386.26.676.652.869 1.14.225.49.322 1.141.322 1.956v5.28c.096.065.193.13.321.13a1.582 1.582 0 00.571.014.897.897 0 01.137-.014c.032-.033.097-.033.097-.033zm-6.37.358c.643-.033 1.19-.13 1.608-.326.418-.196.772-.424 1.062-.717v-2.346c-.58 0-1.19 0-1.834.032-.644.033-1.159.098-1.61.163-.16.033-.321.065-.417.098a.432.432 0 00-.258.228c-.064.098-.129.26-.16.456-.033.196-.033.489-.033.815 0 .587.129 1.01.354 1.271.193.228.644.358 1.287.326z" fill="#3C3F54"/><path d="M93.194 11.7c-.579 0-.997.098-1.19.326-.226.228-.322.684-.322 1.336v1.14h2.606c.097.294.161.587.161.946 0 .358-.064.651-.16.945h-2.607v8.115a5.522 5.522 0 01-1.255.163c-.45 0-.869-.066-1.255-.163v-8.115h-1.448a2.904 2.904 0 01-.161-.945c0-.359.064-.652.16-.945h1.449v-1.271c0-.522.064-1.01.193-1.467.129-.456.354-.847.644-1.173.29-.326.643-.587 1.094-.75.45-.195.965-.26 1.577-.26.193 0 .386 0 .643.032.232 0 .437.026.663.055l.077.01c.258.033.483.065.708.13.142.021.27.054.386.084.07.018.134.035.194.047.064.326.064.652.032 1.01a3.292 3.292 0 01-.322.945l-.869-.097c-.386-.098-.676-.098-.998-.098z" fill="#3C3F54"/><path fill-rule="evenodd" clip-rule="evenodd" d="M100.982 13.264c.998 0 1.834.13 2.51.359.676.26 1.223.619 1.641 1.075a4.1 4.1 0 01.869 1.76c.161.717.258 1.5.258 2.38 0 .977-.097 1.824-.258 2.574a4.57 4.57 0 01-.869 1.825c-.418.489-.965.847-1.641 1.108-.676.26-1.512.358-2.51.358-.998 0-1.866-.13-2.542-.358-.676-.261-1.223-.62-1.641-1.108-.419-.49-.708-1.108-.87-1.825a12.032 12.032 0 01-.257-2.575c0-.88.097-1.695.258-2.379.16-.717.45-1.304.869-1.76.418-.489.965-.847 1.64-1.075.709-.261 1.546-.359 2.543-.359zm0 2.119c-.547 0-.998.065-1.352.195-.353.13-.611.326-.836.62a2.65 2.65 0 00-.419 1.107 11.38 11.38 0 00-.096 1.565c0 .651.032 1.238.096 1.727.065.489.194.88.419 1.173.193.294.483.522.837.684.353.13.804.229 1.351.229.547 0 1.03-.066 1.352-.229a1.85 1.85 0 00.804-.684c.193-.293.322-.684.386-1.173.065-.489.097-1.043.097-1.695 0-.619-.032-1.14-.097-1.564-.064-.424-.193-.815-.386-1.076a1.552 1.552 0 00-.804-.619c-.322-.195-.773-.26-1.352-.26z" fill="#3C3F54"/><path d="M115.946 13.33a5.2 5.2 0 01.096.52c.033.229.033.457 0 .718-.032.26-.064.489-.096.717a2.997 2.997 0 01-.193.521c-.225-.032-.515-.032-.837-.032-.322 0-.676 0-1.062.032-.386.033-.772.065-1.223.098-.139.022-.279.04-.418.058-.279.036-.558.072-.837.137v8.409c-.161.032-.354.065-.579.098-.225.032-.45.032-.676.032-.225 0-.45 0-.675-.033a10.601 10.601 0 01-.58-.097V13.623c.097-.066.226-.13.419-.196a1.8 1.8 0 01.579-.098c.193-.032.386-.032.579-.032.193 0 .354.032.451.065l.45 1.336a5.07 5.07 0 011.255-.782 6.782 6.782 0 011.287-.456 8.222 8.222 0 011.191-.196c.29 0 .579 0 .869.065z" fill="#3C3F54"/><path fill-rule="evenodd" clip-rule="evenodd" d="M122.189 13.264c1.062 0 1.899.13 2.574.391a3.62 3.62 0 011.577 1.14c.386.49.612 1.076.708 1.793.097.717.097 1.5-.032 2.38-.032.227-.097.423-.193.553-.097.13-.322.229-.644.294-.225.032-.611.065-1.094.098-.483.032-1.03.032-1.641.032s-1.191 0-1.802-.032a20.925 20.925 0 01-1.674-.163c0 .554.065 1.043.161 1.4.097.392.226.685.451.88.193.229.483.392.804.457.322.098.773.13 1.288.13.321 0 .708 0 1.094-.032.386-.033.772-.065 1.126-.098.354-.032.676-.065.933-.098.258-.032.451-.065.547-.097.129.195.258.488.354.88.097.39.097.75.033 1.108-.161.065-.419.13-.741.195-.194.04-.401.067-.627.097-.147.02-.302.04-.467.066-.386.033-.804.065-1.222.098h-.001c-.418.032-.804.032-1.158.032-.965 0-1.802-.097-2.446-.293a3.528 3.528 0 01-1.641-1.01c-.418-.456-.708-1.076-.901-1.825-.193-.75-.257-1.662-.257-2.77 0-.913.064-1.695.225-2.412.129-.684.386-1.271.772-1.76.354-.456.869-.815 1.48-1.075.612-.261 1.416-.359 2.414-.359zm2.349 4.921c.032-.651.032-1.14-.064-1.531-.097-.392-.226-.652-.419-.848a1.483 1.483 0 00-.74-.39 4.7 4.7 0 00-.997-.099c-.483 0-.901.033-1.191.13-.322.066-.547.229-.74.424-.161.228-.29.522-.354.88-.065.391-.097.848-.129 1.467l4.634-.033z" fill="#3C3F54"/><path d="M133.71 13.264c.45 0 .933.033 1.383.065.483.033.901.066 1.287.13.156.027.307.048.45.068.211.03.407.057.58.096.29.065.483.13.579.163.033.13.033.293.033.488 0 .171-.025.317-.052.482l-.001.002-.012.07a2.478 2.478 0 01-.128.522c-.065.163-.129.293-.193.424-.033 0-.161-.033-.419-.098-.257-.065-.579-.098-.933-.13-.386-.033-.772-.066-1.255-.13a17.994 17.994 0 00-1.319-.066c-.741 0-1.256.065-1.545.196-.29.13-.419.39-.419.782 0 .26.065.456.194.619.128.163.321.293.579.424.056.02.114.044.174.068.214.085.457.181.759.257.354.098.805.228 1.287.391l.071.023c.581.186 1.074.344 1.538.532.451.163.837.39 1.159.651.322.261.547.554.708.913.161.358.225.815.225 1.369 0 1.108-.386 1.922-1.126 2.411-.74.522-1.931.782-3.572.782-.483 0-.966-.032-1.448-.065a13.94 13.94 0 01-1.32-.13c-.165-.026-.32-.046-.466-.066a9.59 9.59 0 01-.628-.097 4.098 4.098 0 01-.708-.196 5.649 5.649 0 010-1.042c.064-.392.161-.718.29-.913.161.033.386.065.708.098.267.027.557.076.868.13l.194.033c.386.065.836.098 1.287.13l.09.007c.416.03.807.058 1.197.058.805 0 1.352-.098 1.673-.26.29-.163.451-.457.451-.815 0-.228-.064-.424-.193-.554a2.01 2.01 0 00-.547-.391 6.92 6.92 0 00-.901-.326 37.675 37.675 0 01-1.287-.391 23.296 23.296 0 01-1.642-.587 4.605 4.605 0 01-1.19-.684 2.591 2.591 0 01-.74-.945 3.238 3.238 0 01-.258-1.304c0-1.108.354-1.923 1.094-2.412.805-.554 1.931-.782 3.444-.782zm10.136 8.148c0 .456.097.75.258.912.193.163.483.228.869.228.257 0 .579 0 .901-.032.322 0 .579-.033.74-.066.032.163.064.326.096.522 0 .196 0 .391-.032.587-.032.195-.064.39-.161.586a.997.997 0 01-.289.424c-.161.065-.386.098-.676.13-.29.033-.611.033-.998.033a7.47 7.47 0 01-1.223-.098c-.386-.065-.74-.228-1.061-.424a2.746 2.746 0 01-.741-.945c-.193-.423-.257-.977-.257-1.662v-6.192h-1.545c-.096-.293-.128-.586-.128-.945s.032-.652.128-.945h1.545v-2.77c.161-.098.354-.163.611-.196.226-.065.451-.098.708-.098.226-.032.451-.032.676-.032a2.5 2.5 0 01.547.065v3.03h2.993c.096.294.161.588.161.946s-.065.652-.161.945h-2.961v5.997z" fill="#3C3F54"/></svg>