<svg width="180" height="48" fill="none" xmlns="http://www.w3.org/2000/svg"><path d="M96.147 39.027l-.354.444c.393.444.984.767 1.812.767 1.26 0 1.733-.726 1.733-1.413 0-1.023-.887-1.265-1.663-1.476-.6-.163-1.133-.308-1.133-.783 0-.445.432-.767.984-.767.512 0 1.024.161 1.38.565l.354-.444c-.434-.444-.985-.686-1.694-.686-.907 0-1.616.524-1.616 1.331 0 .939.818 1.17 1.57 1.38.638.18 1.228.346 1.228.92 0 .404-.276.848-1.103.848a1.97 1.97 0 01-1.498-.686zm-27.465 1.13l-1.024-3.914-1.025 3.914h-.63l-1.34-4.843h.67l1.064 4.036 1.064-4.036h.472l1.064 4.036 1.025-4.036h.67l-1.34 4.843h-.67zm4.926 0v-4.843h.59v4.843h-.59zm3.98-4.843v4.803h2.797v-.525H78.18v-4.278h-.591z" fill="#3C3F54"/><path fill-rule="evenodd" clip-rule="evenodd" d="M83.459 40.157v-4.843h1.615c1.458 0 2.404 1.05 2.404 2.422s-.946 2.421-2.404 2.421H83.46zm3.428-2.421c0-1.05-.63-1.897-1.813-1.897H84.05v3.753h1.024c1.143 0 1.813-.807 1.813-1.856z" fill="#3C3F54"/><path d="M102.531 35.314h.59v4.843h-.59v-4.843z" fill="#3C3F54"/><path fill-rule="evenodd" clip-rule="evenodd" d="M106.511 35.314v4.803h2.127c.867 0 1.379-.525 1.379-1.291 0-.566-.393-1.09-.906-1.17.433-.082.828-.485.828-1.09 0-.727-.513-1.252-1.34-1.252h-2.088zm1.969.565c.552 0 .828.323.828.767s-.276.767-.828.807h-1.418V35.88h1.418zm.04 2.059c.552 0 .867.403.867.847 0 .525-.315.807-.867.807h-1.458v-1.654h1.458z" fill="#3C3F54"/><path d="M113.249 40.117v-4.803h3.073v.525H113.8v1.574h2.444v.525H113.8v1.654h2.522v.525h-3.073z" fill="#3C3F54"/><path fill-rule="evenodd" clip-rule="evenodd" d="M121.05 38.22l1.222 1.937h.67l-1.261-1.977c.63-.08 1.222-.525 1.222-1.413s-.631-1.453-1.497-1.453h-1.892v4.843h.591V38.22h.945zm.316-2.381c.552 0 .945.404.945.928 0 .565-.393.928-.945.928h-1.221V35.84h1.221z" fill="#3C3F54"/><path d="M126.134 35.314h.591v4.843h-.591v-4.843z" fill="#3C3F54"/><path fill-rule="evenodd" clip-rule="evenodd" d="M133.029 39.068l.434 1.09h.671l-1.893-4.844h-.709l-1.891 4.843h.591l.433-1.09h2.364zm-2.127-.565l.985-2.583 1.025 2.583h-2.01z" fill="#3C3F54"/><path d="M0 23.53C0 10.533 10.285 0 22.973 0 35.66 0 45.946 10.534 45.985 23.53a23.97 23.97 0 01-.433 4.48 22.301 22.301 0 01-.75 2.905l-6.225-6.134c-.394-.364-.985-.444-1.458-.121h-.04c-.472.282-.67.887-.472 1.412v.04c.315.848-.71 1.534-1.34.929l-9.142-9.525c-.394-.323-.906-.525-1.418-.404-.788.202-1.3.929-1.222 1.695l.118 3.713c.08 1.211-.906 2.22-2.088 2.14l-7.487-1.857a1.19 1.19 0 00-1.261.484c-.355.565-.197 1.292.355 1.615l7.841 4.964c.512.242.197 1.09-.354.888L8.51 26.394a2.937 2.937 0 00-2.797.526L3.31 29.059c2.364 8.919 10.285 15.457 19.702 15.457 8.67 0 16.077-5.57 19.033-13.399l1.891 2.018c-3.586 8.233-11.624 13.964-20.963 13.964-10.166 0-18.757-6.78-21.79-16.184-.356-1.13-.631-2.3-.828-3.47l2.245-2.06 7.92-7.144a1.803 1.803 0 012.285-.08l2.64 2.018c.67.565 1.695.524 2.325-.122l6.581-7.708a1.755 1.755 0 012.798.121l6.58 9.323c.63.726 1.734.807 2.443.121l.513-.404c.709-.605 1.733-.524 2.403.122l4.177 4.197c.079-.767.118-1.534.118-2.3 0-11.584-9.142-20.947-20.45-20.947-10.837 0-19.663 8.637-20.373 19.534L.04 24.297c0-.122-.01-.253-.02-.384a5.273 5.273 0 01-.02-.384zm79.282-10.05c0-.565-.079-1.09-.197-1.493-.066-.014-.136-.032-.212-.051a4.057 4.057 0 00-.537-.11 6.303 6.303 0 00-.867-.081c-.315 0-.59.04-.866.08-.316.04-.552.081-.75.162a5.694 5.694 0 00-.196 1.493c0 .565.079 1.09.197 1.493.236.081.473.162.749.202.275.04.59.08.866.08.316 0 .592-.04.867-.08.316-.04.552-.121.749-.202.118-.444.197-.928.197-1.493zm-.236 16.83V17.556c-.434-.12-.946-.161-1.537-.161s-1.104.08-1.537.161V30.31c.433.12.946.161 1.537.161a8.2 8.2 0 001.537-.161zm-11.664 0c-.276.08-.63.12-.985.161-.355.04-.71.04-1.104.04-.394 0-.748 0-1.103-.04s-.67-.08-.985-.161l-5.792-18.202c.236-.04.472-.081.788-.121.315-.04.63-.04.945-.04.316 0 .63 0 .946.04.21.027.385.053.56.08l.267.04 4.374 15.135h.158l4.453-15.134c.236-.04.473-.081.788-.121.315-.04.63-.04.946-.04.315 0 .63 0 .945.04.315.04.552.08.788.161l-5.99 18.162zm19.663-3.794c0 .565.118.928.315 1.13.236.202.59.283 1.064.283.315 0 .71 0 1.103-.04.394 0 .71-.041.906-.081.04.201.08.403.119.645 0 .242 0 .485-.04.727s-.079.484-.197.726c-.079.202-.197.404-.354.525-.198.08-.473.12-.828.161-.355.04-.749.04-1.221.04a9 9 0 01-1.498-.12c-.473-.081-.906-.283-1.3-.525a3.4 3.4 0 01-.907-1.17c-.236-.525-.315-1.211-.315-2.059V19.09h-1.891c-.118-.363-.158-.727-.158-1.17 0-.445.04-.808.158-1.17h1.891v-3.431c.197-.122.434-.202.749-.243a3.01 3.01 0 01.867-.12c.276-.041.552-.041.827-.041.276 0 .473.04.67.08v3.754h3.665c.118.363.197.727.197 1.17 0 .444-.079.808-.197 1.17h-3.665v7.427h.04z" fill="#3C3F54"/><path fill-rule="evenodd" clip-rule="evenodd" d="M105.919 27.727c.119.403.158.888.119 1.412-.08.525-.237.969-.512 1.292a3.41 3.41 0 01-1.144.202c-.393 0-.827-.081-1.181-.202a2.404 2.404 0 01-1.025-.606 2.27 2.27 0 01-.67-1.049c-.394.525-.946.969-1.576 1.332-.67.363-1.537.565-2.561.565-1.064 0-1.852-.161-2.444-.444a3.451 3.451 0 01-1.339-1.13c-.315-.444-.473-.928-.552-1.453a9.309 9.309 0 01-.118-1.413c0-.686.04-1.25.157-1.735.08-.484.276-.888.513-1.21.236-.324.591-.566 1.064-.768.473-.201 1.024-.322 1.773-.403.315-.04.709-.08 1.143-.08h1.34c.473 0 .905.04 1.339.12.434.04.827.121 1.183.242v-1.17c0-.404-.04-.767-.119-1.009-.079-.283-.197-.484-.394-.605-.197-.162-.394-.243-.67-.323-.276-.04-.591-.081-.985-.121a31.46 31.46 0 00-2.759 0c-.866.04-1.615.08-2.206.161-.236-.283-.355-.686-.433-1.17-.08-.485-.118-.929-.08-1.332.395-.08.789-.121 1.262-.162.473-.04.945-.08 1.457-.12.237-.02.483-.031.73-.041.246-.01.492-.02.73-.04.24 0 .472-.011.698-.021.216-.01.429-.02.64-.02.788 0 1.458.04 2.129.162.669.12 1.181.322 1.654.645.473.323.827.808 1.064 1.413.276.605.394 1.413.394 2.421v6.539c.118.08.237.161.394.161.158.04.316.04.473.04.084 0 .158-.011.226-.022.059-.01.114-.018.168-.018.04-.04.118-.04.118-.04zm-7.801.444c.788-.04 1.457-.162 1.969-.404.512-.242.946-.524 1.301-.888v-2.906c-.709 0-1.458 0-2.246.04-.788.041-1.419.122-1.97.202-.198.04-.394.081-.513.122a.534.534 0 00-.315.282 1.545 1.545 0 00-.197.565c-.04.242-.04.606-.04 1.01 0 .726.159 1.25.434 1.573.237.283.789.444 1.577.404z" fill="#3C3F54"/><path d="M114.115 14.489c-.708 0-1.221.121-1.457.403-.276.283-.395.848-.395 1.655v1.413h3.193c.118.363.196.726.196 1.17 0 .444-.078.807-.196 1.17h-3.193v10.05a6.685 6.685 0 01-1.536.202c-.552 0-1.064-.08-1.537-.202V20.3h-1.773a3.638 3.638 0 01-.198-1.17c0-.444.08-.807.198-1.17h1.773v-1.574c0-.646.078-1.251.236-1.816.158-.565.434-1.05.788-1.453a3.236 3.236 0 011.34-.929c.551-.242 1.182-.322 1.931-.322.237 0 .473 0 .788.04.283 0 .535.032.812.069l.094.012c.316.04.592.08.868.161.172.026.33.067.473.104.084.022.162.042.236.058.079.403.079.807.039 1.25a4.1 4.1 0 01-.394 1.171l-1.064-.12c-.473-.122-.827-.122-1.222-.122z" fill="#3C3F54"/><path fill-rule="evenodd" clip-rule="evenodd" d="M123.652 16.426c1.221 0 2.245.162 3.073.444.828.323 1.497.767 2.01 1.332.512.605.867 1.332 1.064 2.18.196.887.315 1.856.315 2.946 0 1.21-.119 2.26-.315 3.188a5.695 5.695 0 01-1.064 2.26c-.513.605-1.182 1.05-2.01 1.372-.828.323-1.852.444-3.073.444-1.222 0-2.286-.161-3.114-.444-.827-.323-1.496-.767-2.009-1.372-.512-.605-.867-1.372-1.064-2.26-.197-.888-.315-1.978-.315-3.188 0-1.09.118-2.1.315-2.947.197-.887.552-1.614 1.064-2.179.513-.605 1.182-1.05 2.009-1.332.868-.323 1.892-.444 3.114-.444zm0 2.623c-.67 0-1.222.081-1.656.243a2.182 2.182 0 00-1.024.767 3.283 3.283 0 00-.512 1.372c-.079.565-.118 1.21-.118 1.937 0 .807.039 1.534.118 2.139.078.605.236 1.09.512 1.453.236.363.591.646 1.024.848a4.74 4.74 0 001.656.282c.669 0 1.261-.08 1.654-.282.434-.202.749-.485.986-.848.236-.363.393-.848.473-1.453a16.46 16.46 0 00.117-2.099c0-.767-.039-1.412-.117-1.937-.08-.524-.237-1.009-.473-1.332-.237-.363-.552-.605-.986-.767-.393-.242-.946-.323-1.654-.323z" fill="#3C3F54"/><path d="M141.974 16.507c.04.161.08.363.119.646a3.38 3.38 0 010 .888c-.039.322-.079.605-.119.887a3.657 3.657 0 01-.236.646c-.276-.04-.63-.04-1.025-.04-.393 0-.827 0-1.3.04-.473.04-.945.081-1.497.121-.171.027-.342.05-.513.072-.341.045-.682.09-1.024.17V30.35c-.196.04-.433.08-.709.121-.275.04-.552.04-.828.04-.276 0-.551 0-.827-.04-.276-.04-.512-.08-.71-.12V16.87c.119-.081.276-.162.513-.243.236-.08.473-.121.709-.121.237-.04.473-.04.71-.04.236 0 .433.04.551.08l.552 1.655a6.204 6.204 0 011.536-.969 8.253 8.253 0 011.576-.565 9.999 9.999 0 011.459-.242c.355 0 .709 0 1.063.08z" fill="#3C3F54"/><path fill-rule="evenodd" clip-rule="evenodd" d="M149.619 16.426c1.3 0 2.325.162 3.153.485a4.434 4.434 0 011.93 1.412c.473.605.749 1.332.867 2.22.118.888.118 1.856-.04 2.946-.039.283-.117.525-.236.686-.118.162-.393.283-.788.363-.276.04-.749.081-1.34.122-.59.04-1.261.04-2.009.04-.749 0-1.458 0-2.206-.04a25.304 25.304 0 01-2.049-.202c0 .686.078 1.291.196 1.735.119.484.276.848.552 1.09.236.282.591.484.985.565.394.121.946.161 1.576.161.394 0 .867 0 1.34-.04.473-.04.945-.08 1.379-.121.434-.04.827-.08 1.143-.121.315-.04.552-.081.669-.121.159.242.315.605.434 1.09.118.484.118.928.039 1.372-.197.08-.512.161-.905.242-.239.049-.493.083-.769.12-.18.024-.369.05-.572.082-.473.04-.985.08-1.497.12-.512.041-.985.041-1.418.041-1.183 0-2.207-.121-2.995-.363a4.316 4.316 0 01-2.01-1.251c-.512-.565-.867-1.332-1.103-2.26-.237-.929-.315-2.059-.315-3.431 0-1.13.078-2.099.276-2.987.157-.847.473-1.574.946-2.179.432-.565 1.063-1.009 1.812-1.332.749-.323 1.733-.444 2.955-.444zm2.876 6.095c.04-.808.04-1.413-.078-1.898-.118-.484-.276-.807-.513-1.049a1.81 1.81 0 00-.905-.484 5.725 5.725 0 00-1.222-.121c-.592 0-1.104.04-1.458.161-.394.081-.67.283-.906.525a2.726 2.726 0 00-.434 1.09c-.078.484-.119 1.049-.158 1.816l5.674-.04z" fill="#3C3F54"/><path d="M163.726 16.426c.552 0 1.143.04 1.694.08.591.041 1.103.082 1.576.162.191.033.375.059.55.084.26.036.5.07.711.118.355.08.591.162.71.202.039.161.039.363.039.605 0 .212-.03.392-.063.596l-.001.003-.014.087c-.04.243-.08.444-.158.646-.079.202-.158.363-.237.525-.039 0-.197-.04-.512-.121-.315-.08-.71-.121-1.142-.162-.473-.04-.946-.08-1.537-.161a22.75 22.75 0 00-1.616-.08c-.906 0-1.537.08-1.891.241-.355.162-.513.485-.513.969 0 .323.079.565.237.767.157.202.393.363.709.524.069.027.14.055.212.085.263.105.561.224.931.319.433.121.985.283 1.576.484l.086.028c.712.23 1.316.426 1.884.659a4.875 4.875 0 011.419.807c.394.322.669.686.867 1.13.197.444.275 1.009.275 1.695 0 1.372-.473 2.381-1.378 2.986-.907.646-2.365.969-4.375.969-.591 0-1.182-.04-1.772-.08-.592-.041-1.144-.081-1.617-.162a24.34 24.34 0 00-.571-.082 11.713 11.713 0 01-.768-.12 4.936 4.936 0 01-.867-.242 6.93 6.93 0 010-1.292c.079-.484.197-.887.354-1.13.198.04.473.081.867.121.328.034.682.095 1.065.162l.235.04c.473.081 1.025.121 1.577.162l.111.008c.509.037.987.072 1.465.072.986 0 1.655-.12 2.049-.322.355-.202.552-.566.552-1.01 0-.282-.079-.524-.237-.686a2.446 2.446 0 00-.67-.484 8.388 8.388 0 00-1.103-.404 45.855 45.855 0 01-1.576-.484 28.333 28.333 0 01-2.01-.726 5.667 5.667 0 01-1.458-.848 3.23 3.23 0 01-.906-1.17c-.197-.444-.315-1.01-.315-1.615 0-1.372.433-2.38 1.34-2.986.985-.686 2.364-.969 4.216-.969zm12.412 10.09c0 .565.118.928.315 1.13.237.202.591.283 1.064.283.316 0 .71 0 1.104-.04.394 0 .709-.041.906-.081.039.201.079.403.119.645 0 .242 0 .485-.04.727s-.079.484-.197.726c-.079.202-.197.404-.355.525-.196.08-.473.12-.827.161-.354.04-.749.04-1.222.04a9.01 9.01 0 01-1.498-.12c-.472-.081-.905-.283-1.3-.525a3.414 3.414 0 01-.906-1.17c-.236-.525-.315-1.211-.315-2.059V19.09h-1.892c-.117-.363-.157-.727-.157-1.17 0-.445.04-.808.157-1.17h1.892v-3.431c.197-.122.433-.202.749-.243.276-.08.552-.12.867-.12.275-.041.551-.041.827-.041.276 0 .473.04.67.08v3.754h3.665c.118.363.197.727.197 1.17 0 .444-.079.808-.197 1.17h-3.626v7.427z" fill="#3C3F54"/></svg>