<svg width="200" height="58" fill="none" xmlns="http://www.w3.org/2000/svg"><g filter="url(#filter0_d)" fill="#fff"><path d="M106.557 44.637l-.378.462c.42.462 1.05.799 1.933.799 1.345 0 1.849-.757 1.849-1.471 0-1.066-.947-1.318-1.774-1.537-.641-.17-1.21-.321-1.21-.817 0-.462.462-.798 1.051-.798.546 0 1.093.168 1.471.588l.378-.462c-.462-.462-1.05-.715-1.807-.715-.967 0-1.723.547-1.723 1.387 0 .978.872 1.217 1.674 1.438.681.187 1.31.36 1.31.958 0 .42-.294.882-1.177.882a2.122 2.122 0 01-1.597-.714zM77.26 45.813l-1.092-4.076-1.093 4.076h-.672l-1.43-5.042h.715l1.135 4.202 1.135-4.202h.504l1.135 4.202 1.093-4.202h.714l-1.429 5.042h-.714zm5.255 0v-5.042h.63v5.042h-.63zm4.245-5.043v5.001h2.984v-.546h-2.353v-4.454h-.631z"/><path fill-rule="evenodd" clip-rule="evenodd" d="M93.023 45.813v-5.042h1.723c1.555 0 2.564 1.092 2.564 2.521 0 1.429-1.009 2.521-2.564 2.521h-1.723zm3.656-2.521c0-1.093-.672-1.975-1.933-1.975h-1.093v3.908h1.093c1.219 0 1.933-.84 1.933-1.933z"/><path d="M113.366 40.77h.63v5.043h-.63v-5.042z"/><path fill-rule="evenodd" clip-rule="evenodd" d="M117.611 40.77v5.001h2.27c.925 0 1.471-.546 1.471-1.344 0-.589-.42-1.135-.967-1.219.463-.084.883-.504.883-1.135 0-.756-.547-1.302-1.429-1.302h-2.228zm2.102.589c.588 0 .882.336.882.798 0 .463-.294.799-.882.84H118.2V41.36h1.513zm.042 2.143c.588 0 .924.42.924.883 0 .546-.336.84-.924.84H118.2v-1.723h1.555z"/><path d="M124.799 45.771v-5h3.278v.546h-2.69v1.639h2.606v.546h-2.606v1.723h2.69v.546h-3.278z"/><path fill-rule="evenodd" clip-rule="evenodd" d="M133.121 43.796l1.303 2.017h.714l-1.345-2.059c.673-.084 1.303-.546 1.303-1.47 0-.925-.672-1.513-1.597-1.513h-2.017v5.042h.63v-2.017h1.009zm.336-2.48c.588 0 1.009.421 1.009.967 0 .589-.421.967-1.009.967h-1.303v-1.933h1.303z"/><path d="M138.543 40.77h.63v5.043h-.63v-5.042z"/><path fill-rule="evenodd" clip-rule="evenodd" d="M145.898 44.679l.463 1.134h.714l-2.017-5.042h-.757l-2.017 5.042h.63l.462-1.134h2.522zm-2.269-.589l1.05-2.69 1.093 2.69h-2.143z"/><path d="M4 28.5C4 14.968 14.97 4 28.504 4S53.01 14.968 53.051 28.5c0 1.597-.168 3.152-.463 4.665a22.797 22.797 0 01-.798 3.025l-6.641-6.387a1.264 1.264 0 00-1.555-.126h-.042a1.206 1.206 0 00-.505 1.47v.043c.337.882-.756 1.596-1.429.966l-9.751-9.918c-.42-.336-.967-.546-1.513-.42-.84.21-1.387.967-1.303 1.765l.126 3.866a2.096 2.096 0 01-2.228 2.228l-7.986-1.933a1.285 1.285 0 00-1.345.504c-.378.588-.21 1.345.379 1.68l8.364 5.17c.546.252.21 1.134-.378.924l-12.904-4.538a3.192 3.192 0 00-2.984.546L7.53 34.257c2.522 9.288 10.97 16.096 21.015 16.096 9.247 0 17.15-5.8 20.302-13.953l2.017 2.102c-3.825 8.573-12.4 14.54-22.36 14.54-10.845 0-20.008-7.06-23.244-16.852a26.655 26.655 0 01-.883-3.614l2.396-2.143 8.448-7.438c.673-.588 1.724-.63 2.438-.084l2.816 2.101a1.866 1.866 0 002.48-.126l7.02-8.027c.798-.924 2.27-.882 2.984.126l7.019 9.708c.672.756 1.85.84 2.606.126l.546-.42c.757-.63 1.85-.547 2.564.126l4.456 4.37c.084-.798.126-1.596.126-2.395 0-12.06-9.752-21.81-21.815-21.81-11.558 0-20.973 8.993-21.73 20.34l-2.69 2.268c0-.126-.01-.262-.021-.399A5.354 5.354 0 014 28.5zm84.567-10.464a5.57 5.57 0 00-.21-1.555c-.07-.014-.144-.033-.225-.053a4.636 4.636 0 00-.573-.115 6.878 6.878 0 00-.925-.084 6.3 6.3 0 00-.925.084c-.336.042-.588.084-.798.168-.126.462-.21.967-.21 1.555s.084 1.135.21 1.555c.252.084.504.168.798.21.294.042.63.084.925.084.336 0 .63-.042.925-.084.336-.042.588-.126.798-.21.126-.462.21-.967.21-1.555zm-.252 17.524V22.28c-.462-.126-1.008-.168-1.639-.168a8.96 8.96 0 00-1.64.168v13.28c.463.126 1.01.168 1.64.168a8.98 8.98 0 001.64-.168zm-12.441 0c-.294.084-.673.126-1.05.168-.38.042-.757.042-1.178.042-.42 0-.798 0-1.177-.042a7.832 7.832 0 01-1.05-.168L65.24 16.607c.252-.042.504-.084.84-.126.337-.042.673-.042 1.01-.042.336 0 .672 0 1.008.042.224.028.411.056.598.084l.285.042 4.665 15.76h.168l4.75-15.76c.252-.042.504-.084.84-.126.337-.042.673-.042 1.01-.042.336 0 .672 0 1.008.042.336.042.588.084.84.168L75.875 35.56zm20.974-3.95c0 .588.126.966.336 1.176.252.21.63.295 1.135.295.336 0 .756 0 1.177-.042a5.1 5.1 0 00.966-.084c.042.21.084.42.126.672 0 .252 0 .504-.042.756s-.084.505-.21.757c-.084.21-.21.42-.378.546-.21.084-.504.126-.883.168-.378.042-.798.042-1.303.042a9.831 9.831 0 01-1.597-.126c-.504-.084-.967-.294-1.387-.546a3.553 3.553 0 01-.967-1.219c-.252-.546-.336-1.26-.336-2.143v-7.985h-2.017c-.127-.378-.169-.756-.169-1.218 0-.463.042-.84.169-1.219h2.017v-3.572c.21-.126.463-.21.799-.252.294-.084.588-.126.924-.126.295-.042.589-.042.883-.042.294 0 .505.042.715.084v3.908h3.909a3.7 3.7 0 01.21 1.219 3.7 3.7 0 01-.21 1.218h-3.91v7.733h.043z"/><path fill-rule="evenodd" clip-rule="evenodd" d="M116.981 32.87c.126.42.168.925.126 1.471-.084.547-.252 1.009-.547 1.345a3.7 3.7 0 01-1.219.21 4.17 4.17 0 01-1.26-.21 2.578 2.578 0 01-1.093-.63 2.36 2.36 0 01-.715-1.093c-.42.546-1.009 1.009-1.681 1.387-.715.378-1.639.588-2.732.588-1.135 0-1.976-.168-2.606-.462a3.651 3.651 0 01-1.429-1.177c-.336-.462-.505-.966-.589-1.513a9.489 9.489 0 01-.126-1.47c0-.715.042-1.303.168-1.807.085-.505.295-.925.547-1.261.252-.336.63-.588 1.135-.799.504-.21 1.093-.336 1.891-.42a9.775 9.775 0 011.219-.084h1.429c.504 0 .967.042 1.429.126.463.042.883.126 1.261.252v-1.218c0-.42-.042-.799-.126-1.051-.084-.294-.21-.504-.42-.63-.21-.168-.421-.252-.715-.337-.294-.041-.63-.084-1.051-.126a34.328 34.328 0 00-2.942 0c-.925.042-1.723.085-2.354.169-.252-.295-.378-.715-.462-1.22-.084-.503-.126-.966-.084-1.386.42-.084.841-.126 1.345-.168.504-.042 1.009-.084 1.555-.126.252-.021.515-.032.778-.042.262-.01.525-.021.777-.042.258 0 .505-.011.746-.022.231-.01.457-.02.683-.02.841 0 1.556.042 2.27.168.715.126 1.261.336 1.765.672.505.336.883.84 1.135 1.471.295.63.421 1.47.421 2.521v6.808c.126.084.252.169.42.169.168.042.336.042.504.042.09 0 .168-.012.241-.024.063-.01.121-.018.18-.018.042-.042.126-.042.126-.042zm-8.323.463c.841-.042 1.556-.168 2.102-.42.546-.253 1.009-.547 1.387-.925v-3.026c-.757 0-1.555 0-2.396.042-.84.042-1.513.126-2.101.21a5.47 5.47 0 00-.547.127.562.562 0 00-.336.294 1.577 1.577 0 00-.21.588c-.042.252-.042.63-.042 1.05 0 .757.168 1.303.462 1.64.252.294.841.462 1.681.42z"/><path d="M125.723 19.087c-.756 0-1.303.126-1.555.42-.294.294-.42.882-.42 1.723v1.47h3.404c.126.379.211.757.211 1.22 0 .462-.085.84-.211 1.218h-3.404v10.464a7.313 7.313 0 01-1.639.21 6.737 6.737 0 01-1.64-.21V25.138h-1.891a3.703 3.703 0 01-.21-1.219c0-.462.084-.84.21-1.218h1.891v-1.64c0-.672.084-1.302.253-1.89a3.812 3.812 0 01.84-1.513c.378-.42.841-.757 1.429-.967.589-.252 1.261-.336 2.06-.336.252 0 .504 0 .84.042.303 0 .571.034.866.071l.101.013c.336.042.631.084.925.168.185.027.353.07.504.108.09.023.174.045.252.06.084.42.084.84.042 1.303-.084.42-.21.84-.42 1.219l-1.135-.126c-.504-.126-.882-.126-1.303-.126z"/><path fill-rule="evenodd" clip-rule="evenodd" d="M135.895 21.104c1.303 0 2.396.168 3.278.462.883.336 1.598.799 2.144 1.387.546.63.925 1.387 1.135 2.27.21.924.336 1.932.336 3.067 0 1.26-.126 2.353-.336 3.32a5.86 5.86 0 01-1.135 2.353c-.546.63-1.261 1.093-2.144 1.429-.882.336-1.975.462-3.278.462s-2.438-.168-3.321-.462c-.882-.336-1.597-.799-2.143-1.429-.547-.63-.925-1.429-1.135-2.353-.21-.925-.336-2.06-.336-3.32 0-1.135.126-2.185.336-3.068.21-.924.588-1.68 1.135-2.27.546-.63 1.261-1.092 2.143-1.386.925-.336 2.018-.462 3.321-.462zm0 2.731c-.715 0-1.303.084-1.765.252a2.32 2.32 0 00-1.093.799c-.252.378-.463.84-.547 1.429a14.4 14.4 0 00-.126 2.017c0 .84.042 1.597.126 2.227.084.63.253 1.135.547 1.513.252.378.63.672 1.093.883a5.14 5.14 0 001.765.294c.714 0 1.345-.084 1.765-.294.463-.21.799-.505 1.051-.883.252-.378.42-.883.504-1.513.084-.63.127-1.345.127-2.185 0-.798-.043-1.47-.127-2.017-.084-.546-.252-1.05-.504-1.387-.252-.378-.588-.63-1.051-.798-.42-.253-1.009-.337-1.765-.337z"/><path d="M155.44 21.188c.042.168.084.378.126.672.042.294.042.588 0 .925-.042.336-.084.63-.126.924a3.827 3.827 0 01-.253.673c-.294-.042-.672-.042-1.092-.042-.421 0-.883 0-1.387.042-.505.042-1.009.084-1.598.126a21.74 21.74 0 01-.546.074c-.364.047-.729.094-1.093.178v10.842c-.21.042-.462.084-.756.126-.295.042-.589.042-.883.042-.294 0-.589 0-.883-.042a14.088 14.088 0 01-.756-.126V21.566c.126-.084.294-.168.546-.252a2.38 2.38 0 01.757-.126c.252-.042.504-.042.756-.042s.463.042.589.084l.588 1.723a6.63 6.63 0 011.639-1.009 8.912 8.912 0 011.682-.588 10.84 10.84 0 011.555-.252c.378 0 .756 0 1.135.084z"/><path fill-rule="evenodd" clip-rule="evenodd" d="M163.594 21.104c1.387 0 2.48.168 3.362.504.883.336 1.555.84 2.06 1.47.504.631.798 1.388.924 2.312.127.925.127 1.933-.042 3.068-.042.294-.126.546-.252.714-.126.168-.42.295-.84.379a22.61 22.61 0 01-1.429.126c-.631.042-1.345.042-2.144.042-.799 0-1.555 0-2.354-.042a27.67 27.67 0 01-2.185-.21c0 .714.084 1.344.21 1.807.126.504.294.882.588 1.134a1.87 1.87 0 001.051.589c.42.126 1.009.168 1.681.168.421 0 .925 0 1.429-.042.505-.042 1.009-.084 1.471-.126.463-.042.883-.084 1.219-.127.337-.041.589-.084.715-.126.168.253.336.63.462 1.135a3.3 3.3 0 01.042 1.429c-.21.084-.546.168-.967.252-.254.05-.524.086-.819.125-.192.025-.394.052-.61.085-.504.042-1.05.084-1.596.126h-.001c-.546.042-1.051.042-1.513.042-1.261 0-2.354-.126-3.194-.378a4.62 4.62 0 01-2.144-1.303c-.546-.588-.925-1.386-1.177-2.353-.252-.967-.336-2.143-.336-3.572 0-1.177.084-2.185.294-3.11.168-.882.505-1.639 1.009-2.27.462-.588 1.135-1.05 1.933-1.386.799-.336 1.85-.462 3.153-.462zm3.068 6.345c.042-.84.042-1.47-.084-1.975-.126-.504-.294-.84-.546-1.092a1.954 1.954 0 00-.967-.505 6.228 6.228 0 00-1.303-.126c-.631 0-1.177.042-1.555.168-.421.084-.715.295-.967.547a2.8 2.8 0 00-.462 1.134c-.084.505-.127 1.093-.169 1.891l6.053-.042z"/><path d="M178.641 21.104c.588 0 1.219.042 1.807.084.631.042 1.177.084 1.682.168.203.034.399.06.586.087.277.038.533.073.759.123.378.084.63.168.756.21.042.168.042.378.042.63 0 .22-.032.409-.068.62l-.001.004-.015.09a3.149 3.149 0 01-.168.673c-.084.21-.168.379-.252.547-.042 0-.21-.042-.546-.126-.337-.084-.757-.127-1.219-.168-.505-.043-1.009-.085-1.64-.169a24.795 24.795 0 00-1.723-.084c-.967 0-1.639.084-2.018.253-.378.168-.546.504-.546 1.008 0 .336.084.588.252.799.168.21.421.378.757.546l.227.087c.28.11.598.235.992.333.462.126 1.051.294 1.681.504l.092.03c.759.239 1.404.442 2.01.685a5.25 5.25 0 011.513.84c.42.336.714.715.924 1.177.211.462.295 1.05.295 1.765 0 1.429-.505 2.48-1.471 3.11-.967.672-2.522 1.008-4.666 1.008-.63 0-1.261-.042-1.891-.084-.631-.042-1.219-.084-1.724-.168-.215-.033-.417-.06-.609-.085-.295-.039-.565-.074-.82-.125a5.413 5.413 0 01-.924-.252 6.991 6.991 0 010-1.345c.084-.504.21-.924.378-1.177.21.042.504.084.925.127.349.034.727.098 1.134.167l.253.043c.504.084 1.092.126 1.681.168l.117.008c.544.04 1.054.076 1.564.076 1.051 0 1.765-.126 2.186-.336.378-.21.588-.589.588-1.051 0-.294-.084-.546-.252-.715a2.6 2.6 0 00-.715-.504 9.123 9.123 0 00-1.176-.42 50.537 50.537 0 01-1.682-.504 30.714 30.714 0 01-2.143-.757 6.026 6.026 0 01-1.555-.882 3.356 3.356 0 01-.967-1.219c-.21-.462-.336-1.05-.336-1.68 0-1.43.462-2.48 1.429-3.11 1.05-.715 2.521-1.01 4.497-1.01zm13.24 10.506c0 .588.126.966.336 1.176.252.21.631.295 1.135.295.336 0 .757 0 1.177-.042.42 0 .757-.042.967-.084.042.21.084.42.126.672 0 .252 0 .504-.042.756s-.084.505-.21.757c-.085.21-.211.42-.379.546-.21.084-.504.126-.882.168-.379.042-.799.042-1.303.042a9.842 9.842 0 01-1.598-.126c-.504-.084-.966-.294-1.387-.546a3.552 3.552 0 01-.966-1.219c-.253-.546-.337-1.26-.337-2.143v-7.985h-2.017c-.126-.378-.168-.756-.168-1.218 0-.463.042-.84.168-1.219h2.017v-3.572c.211-.126.463-.21.799-.252.294-.084.588-.126.925-.126.294-.042.588-.042.882-.042.295 0 .505.042.715.084v3.908h3.909a3.7 3.7 0 01.21 1.219 3.7 3.7 0 01-.21 1.218h-3.867v7.733z"/></g><defs><filter id="filter0_d" x="0" y="0" width="200" height="57.042" filterUnits="userSpaceOnUse" color-interpolation-filters="sRGB"><feFlood flood-opacity="0" result="BackgroundImageFix"/><feColorMatrix in="SourceAlpha" values="0 0 0 0 0 0 0 0 0 0 0 0 0 0 0 0 0 0 127 0" result="hardAlpha"/><feOffset/><feGaussianBlur stdDeviation="2"/><feColorMatrix values="0 0 0 0 0.252306 0 0 0 0 0.258333 0 0 0 0 0.255802 0 0 0 0.08 0"/><feBlend in2="BackgroundImageFix" result="effect1_dropShadow"/><feBlend in="SourceGraphic" in2="effect1_dropShadow" result="shape"/></filter></defs></svg>