<svg width="180" height="48" fill="none" xmlns="http://www.w3.org/2000/svg"><path d="M96.155 39.059l-.373.47c.373.471 1.026.753 1.772.753 1.306 0 1.772-.753 1.772-1.411 0-1.036-.932-1.224-1.678-1.506-.56-.189-1.12-.283-1.12-.753 0-.47.467-.753 1.026-.753.467 0 1.026.188 1.4.564l.372-.47c-.466-.47-1.025-.659-1.678-.659-.933 0-1.586.565-1.586 1.318 0 .94.84 1.13 1.586 1.411.653.189 1.212.377 1.212.942 0 .376-.28.847-1.12.847-.745-.094-1.305-.377-1.585-.753zm-27.513 1.129l-1.025-3.953-1.026 3.953h-.653l-1.306-4.8h.653l1.026 4.047 1.026-4.047h.466l1.026 4.047 1.026-4.047h.653l-1.306 4.8h-.56zm4.943 0v-4.8h.56v4.8h-.56zm4.011-4.894v4.8h2.798v-.565h-2.239v-4.235h-.56z" fill="#fff"/><path fill-rule="evenodd" clip-rule="evenodd" d="M83.472 40.188v-4.8h1.585c1.492 0 2.425 1.035 2.425 2.447 0 1.412-.933 2.447-2.425 2.447h-1.585v-.094zm3.45-2.447c0-1.035-.653-1.882-1.772-1.882h-1.026v3.764h1.026c1.026 0 1.772-.846 1.772-1.882z" fill="#fff"/><path d="M102.497 35.294h.56v4.8h-.56v-4.8z" fill="#fff"/><path fill-rule="evenodd" clip-rule="evenodd" d="M106.508 35.294v4.8h2.145c.839 0 1.399-.565 1.399-1.318 0-.564-.373-1.129-.933-1.129.466-.094.84-.47.84-1.13 0-.752-.467-1.223-1.306-1.223h-2.145zm1.958.565c.56 0 .84.282.84.753 0 .47-.28.753-.84.847h-1.399v-1.6h1.399zm.094 2.07c.559 0 .839.377.839.847 0 .565-.28.847-.839.847h-1.493V37.93h1.493z" fill="#fff"/><path d="M113.223 40.094v-4.8h3.077v.565h-2.518v1.6h2.425v.564h-2.425v1.695h2.518v.564h-3.077v-.188z" fill="#fff"/><path fill-rule="evenodd" clip-rule="evenodd" d="M121.057 38.212l1.212 1.976h.653l-1.305-1.976c.652-.094 1.212-.565 1.212-1.412s-.653-1.412-1.492-1.412h-1.866v4.8h.56v-1.976h1.026zm.28-2.353c.559 0 .932.376.932.941s-.373.941-.932.941h-1.213V35.86h1.213z" fill="#fff"/><path d="M126.093 35.294h.56v4.8h-.56v-4.8z" fill="#fff"/><path fill-rule="evenodd" clip-rule="evenodd" d="M132.995 39.059l.466 1.13h.653l-1.865-4.8h-.746l-1.866 4.8h.56l.466-1.13h2.332zm-2.052-.565l1.026-2.541 1.026 2.541h-2.052z" fill="#fff"/><path d="M0 23.53C0 10.54 10.26 0 22.943 0c12.684 0 22.943 10.541 23.036 23.53 0 1.505-.186 3.011-.466 4.517-.187 1.035-.466 1.976-.746 2.918l-6.249-6.118c-.373-.376-1.026-.47-1.492-.094-.466.282-.653.847-.466 1.412.28.847-.747 1.506-1.306.94l-9.14-9.6c-.373-.281-.933-.564-1.399-.376-.746.189-1.306.942-1.212 1.694l.093 3.671c.093 1.224-.933 2.259-2.052 2.165l-7.461-1.883c-.466-.094-1.026.095-1.306.471-.373.565-.186 1.318.373 1.6l7.835 4.988c.466.283.186 1.13-.374.847l-12.124-4.33c-.933-.281-2.052-.093-2.798.566l-2.425 2.164c2.332 8.941 10.26 15.436 19.679 15.436 8.674 0 16.041-5.553 19.026-13.365l1.865 1.976c-3.45 8.283-11.565 13.93-20.891 13.93-10.166 0-18.746-6.777-21.73-16.188a21.063 21.063 0 01-.84-3.483l2.238-1.976 7.928-7.153c.653-.565 1.585-.565 2.332-.094l2.61 1.976a1.714 1.714 0 002.333-.094l6.621-7.718c.746-.847 2.145-.847 2.798.095l6.622 9.317c.653.753 1.772.847 2.425.094l.466-.376c.746-.565 1.772-.565 2.425.094l4.197 4.235c.093-.753.093-1.506.093-2.259 0-11.576-9.14-20.988-20.425-20.988-10.912 0-19.772 8.659-20.518 19.577L0 24.282v-.753zm79.275-10.071c0-.565-.094-1.13-.187-1.506-.093 0-.093 0-.186-.094-.187 0-.374-.094-.56-.094-.28 0-.56-.094-.84-.094-.28 0-.559 0-.839.094-.28 0-.56.094-.746.188-.093.47-.186.941-.186 1.506 0 .565.093 1.13.186 1.506.28.094.466.188.746.188.28 0 .56.094.84.094.28 0 .56 0 .839-.094.28 0 .56-.094.746-.188.093-.47.187-.941.187-1.506zm-.187 16.847V17.6c-.466-.094-.933-.188-1.492-.188-.56 0-1.12.094-1.492.188v12.8c.466.094.932.188 1.492.188.466-.094 1.026-.188 1.492-.282zm-11.751 0c-.28.094-.653.094-1.026.188h-2.238c-.374 0-.653-.094-1.026-.188L57.264 12.14c.28 0 .466-.094.746-.094h1.866c.186 0 .373.094.56.094h.279l4.57 15.059h.187l4.476-15.059c.28 0 .467-.094.746-.094h1.866c.28 0 .56.094.746.188l-5.97 18.07zm19.679-3.765c0 .565.093.941.28 1.13.28.188.559.282 1.025.282h1.12c.372 0 .745 0 .932-.094 0 .188.093.376.093.659v.753c0 .282-.093.47-.186.752-.094.189-.187.377-.373.565-.187.094-.467.094-.84.188h-1.212c-.466 0-1.026 0-1.492-.094a3.255 3.255 0 01-1.306-.564c-.373-.283-.653-.66-.933-1.13-.186-.659-.186-1.412-.186-2.259v-7.623h-1.865c-.094-.377-.187-.753-.187-1.13 0-.376 0-.847.187-1.129h1.865V13.46c.186-.094.466-.188.746-.282.28-.095.56-.095.84-.095h.839c.28 0 .466 0 .653.095v3.764h3.637c.093.377.186.753.186 1.13 0 .376-.093.847-.186 1.129h-3.638v7.341z" fill="#fff"/><path fill-rule="evenodd" clip-rule="evenodd" d="M105.948 27.765c.093.376.187.847.093 1.412-.093.564-.279.94-.466 1.317-.373.094-.746.188-1.119.188s-.839-.094-1.213-.188a2.21 2.21 0 01-1.025-.565c-.28-.282-.56-.658-.653-1.035-.373.565-.933.941-1.586 1.318-.653.376-1.492.564-2.518.564-1.026 0-1.865-.188-2.425-.47-.56-.283-1.026-.659-1.305-1.13a4.461 4.461 0 01-.56-1.411c-.093-.565-.093-.942-.093-1.412 0-.659 0-1.224.186-1.694.094-.47.28-.847.467-1.224.28-.282.56-.564 1.026-.753.466-.188 1.025-.282 1.771-.376.28 0 .747-.094 1.12-.094h1.305c.467 0 .933 0 1.306.094.466 0 .839.094 1.212.282v-1.13c0-.376 0-.752-.093-1.034-.093-.283-.186-.471-.373-.565-.186-.188-.373-.283-.653-.283-.279 0-.56-.094-1.026-.094H96.53c-.84 0-1.586.095-2.239.189-.28-.283-.373-.66-.466-1.13-.093-.47-.093-.941-.093-1.317.373-.095.746-.095 1.305-.189.467 0 .933-.094 1.492-.094h2.798c.747 0 1.493 0 2.145.188.653.095 1.213.283 1.679.66.467.282.84.846 1.026 1.411.28.565.373 1.412.373 2.447v6.494c.093.094.28.188.373.188h.839c.093-.564.186-.564.186-.564zm-7.834.376c.746 0 1.492-.188 1.959-.376.466-.283.932-.565 1.305-.847V24H99.14c-.746 0-1.4.094-1.959.188-.186 0-.373.094-.466.094-.093 0-.28.095-.28.283-.093.094-.186.282-.186.564v1.036c0 .753.186 1.223.466 1.6.093.282.653.47 1.399.376z" fill="#fff"/><path d="M114.155 14.494c-.746 0-1.212.094-1.492.377-.28.282-.373.847-.373 1.694v1.412h3.171c.093.376.187.752.187 1.129 0 .47-.094.847-.187 1.13h-3.171v10.07c-.466.094-1.026.188-1.492.188-.56 0-1.026-.094-1.492-.188v-9.977h-1.772c-.094-.376-.187-.753-.187-1.129 0-.47.093-.847.187-1.13h1.772v-1.6c0-.658.093-1.223.28-1.788a4.984 4.984 0 01.746-1.411c.373-.377.746-.753 1.305-.942.56-.282 1.213-.282 1.959-.282h.746c.28 0 .56 0 .839.094h.094c.279 0 .559.094.839.188.187 0 .373.095.466.095.094 0 .187 0 .28.094.093.376.093.847 0 1.223-.093.377-.186.847-.373 1.13l-1.026-.095c-.559-.282-.932-.282-1.306-.282z" fill="#fff"/><path fill-rule="evenodd" clip-rule="evenodd" d="M123.668 16.47c1.213 0 2.239.189 3.078.471.839.283 1.492.753 2.052 1.318.466.564.839 1.317 1.026 2.165.186.847.28 1.882.28 2.917 0 1.224-.094 2.259-.28 3.2-.187.847-.56 1.694-1.026 2.259-.466.565-1.213 1.035-2.052 1.412-.839.282-1.865.47-3.078.47-1.212 0-2.331-.188-3.077-.47-.84-.283-1.493-.753-2.052-1.412-.466-.565-.84-1.412-1.026-2.259-.187-.847-.28-1.976-.28-3.2 0-1.13.093-2.07.28-2.918.186-.846.56-1.6 1.026-2.164.559-.565 1.212-1.035 2.052-1.318.839-.376 1.865-.47 3.077-.47zm0 2.542c-.652 0-1.212.094-1.678.282-.467.188-.746.377-1.026.753-.28.377-.467.847-.467 1.412-.093.564-.093 1.223-.093 1.976 0 .847 0 1.506.093 2.165.094.565.28 1.13.467 1.412.28.376.559.659 1.026.847.466.188 1.026.282 1.678.282.653 0 1.306-.094 1.679-.282.466-.188.746-.47 1.026-.847s.373-.847.466-1.412c.094-.565.094-1.318.094-2.07 0-.754 0-1.412-.094-1.977-.093-.565-.279-1.035-.466-1.318-.28-.376-.56-.564-1.026-.753-.466-.376-1.026-.47-1.679-.47z" fill="#fff"/><path d="M141.948 16.47c0 .189.093.377.093.66v.847c0 .282-.093.564-.093.846a4.523 4.523 0 01-.28.66h-2.331c-.467 0-.933.093-1.492.093-.187 0-.374.095-.56.095-.373 0-.653.094-1.026.188v10.447c-.186 0-.466.094-.746.094h-1.679c-.28 0-.466-.094-.746-.094V16.847c.093-.094.28-.188.56-.282.279-.094.466-.094.746-.094h.746c.28 0 .466 0 .559.094l.56 1.694c.466-.377 1.026-.753 1.492-.941.56-.283 1.026-.47 1.586-.565a44.366 44.366 0 001.492-.282h1.119z" fill="#fff"/><path fill-rule="evenodd" clip-rule="evenodd" d="M149.596 16.47c1.306 0 2.331.189 3.171.471.839.283 1.492.847 1.958 1.412.467.565.747 1.318.84 2.259.093.847.093 1.882 0 2.917 0 .283-.093.565-.28.66-.187.093-.373.282-.746.376-.28 0-.746.094-1.306.094h-4.29c-.746 0-1.492-.094-2.052-.188 0 .658.093 1.317.187 1.694.093.47.28.847.559 1.13.28.281.56.47 1.026.564a6.65 6.65 0 001.586.188h1.305c.467 0 .933-.094 1.399-.094.467 0 .84-.094 1.12-.094.279 0 .559-.094.652-.094.187.282.28.564.467 1.13.093.47.093.94 0 1.41-.187.095-.467.19-.933.283-.28.094-.466.094-.746.094-.187 0-.373.095-.56.095-.466 0-1.026.094-1.492.094h-1.399c-1.212 0-2.238-.095-2.984-.377-.84-.282-1.492-.659-2.052-1.223-.466-.565-.839-1.318-1.119-2.26-.28-.94-.28-2.07-.28-3.387 0-1.13.093-2.071.28-3.012.186-.847.466-1.6.932-2.165.467-.565 1.026-1.035 1.772-1.318.84-.564 1.772-.658 2.985-.658zm2.891 6.024c0-.847 0-1.412-.093-1.882s-.28-.847-.56-1.035c-.28-.283-.559-.377-.932-.471-.373-.094-.747-.094-1.213-.094-.559 0-1.119 0-1.492.188-.373.094-.653.282-.933.565a3.161 3.161 0 00-.466 1.13c-.093.47-.093 1.034-.187 1.787l5.876-.188z" fill="#fff"/><path d="M163.772 16.47c.56 0 1.119 0 1.679.095.559 0 1.119.094 1.585.188.187 0 .373.094.56.094.28 0 .466.094.746.094.373.094.56.188.746.188v.565c0 .188 0 .377-.093.565v.094c0 .282-.093.47-.187.659l-.28.564s-.186 0-.466-.094-.746-.094-1.119-.188c-.466 0-.933-.094-1.492-.188-.56 0-1.119-.094-1.586-.094-.932 0-1.492.094-1.865.282-.373.188-.466.47-.466.941 0 .283.093.565.279.753.187.189.374.377.747.565.093 0 .093.094.186.094.28.094.56.188.933.282.466.095 1.026.283 1.585.471h.093c.747.188 1.306.47 1.866.659a3.51 3.51 0 011.399.847c.373.282.653.659.839 1.13.187.47.28 1.035.28 1.693 0 1.412-.466 2.353-1.399 3.012-.933.659-2.332.941-4.383.941-.56 0-1.213 0-1.773-.094-.559 0-1.119-.094-1.585-.188-.187 0-.373-.094-.56-.094-.279 0-.559-.094-.746-.094-.373-.094-.653-.189-.839-.283v-1.317c.093-.47.186-.847.373-1.13.187 0 .466.095.839.095.373 0 .653.094 1.026.188h.28c.466.094 1.026.094 1.586.188h.093c.466 0 1.026.094 1.492.094 1.026 0 1.679-.094 2.052-.282.373-.189.559-.565.559-1.036 0-.282-.093-.564-.279-.658-.187-.189-.373-.283-.653-.471-.28-.094-.653-.282-1.119-.377-.467-.094-.933-.282-1.586-.47-.746-.282-1.399-.47-2.052-.753a21.351 21.351 0 01-1.492-.847 3.553 3.553 0 01-.933-1.13c-.186-.47-.279-1.035-.279-1.6 0-1.411.466-2.352 1.305-3.011.84-.66 2.239-.941 4.104-.941zm12.404 10.071c0 .565.093.941.28 1.13.28.188.56.282 1.026.282h1.119c.373 0 .746 0 .933-.094 0 .188.093.376.093.659v.753c0 .282-.093.47-.187.752-.093.189-.186.377-.373.565-.186.094-.466.094-.839.188-.373.095-.746 0-1.212 0-.467 0-1.026 0-1.493-.094a3.252 3.252 0 01-1.305-.564c-.373-.283-.653-.66-.933-1.13-.28-.564-.28-1.223-.28-2.07v-7.624h-1.865c-.093-.376-.187-.753-.187-1.13 0-.376 0-.846.187-1.129h1.865v-3.388c.187-.094.467-.188.746-.282.28-.094.56-.094.84-.094h.839c.28 0 .466 0 .653.094v3.764h3.637c.093.377.187.753.187 1.13a4.1 4.1 0 01-.187 1.13h-3.637v7.152h.093z" fill="#fff"/></svg>