<svg width="20" height="16" fill="none" xmlns="http://www.w3.org/2000/svg"><path fill-rule="evenodd" clip-rule="evenodd" d="M.429.682C.429.305.734 0 1.11 0h2.435c.294 0 .554.188.647.466l.575 1.726H18.89a.682.682 0 01.647.897l-2.192 6.576a.682.682 0 01-.646.467H6.468a.78.78 0 000 1.558h9.742a.682.682 0 01.192 1.337 1.948 1.948 0 11-3.331.027H9.564a1.948 1.948 0 11-3.34-.014 2.143 2.143 0 01-.638-4.083L3.054 1.364H1.111A.682.682 0 01.429.682zM6.96 8.768h9.246l1.737-5.212H5.223L6.96 8.768zm1.515 5.284a.585.585 0 11-1.17 0 .585.585 0 011.17 0zm6.855 0a.585.585 0 11-1.17 0 .585.585 0 011.17 0z" fill="#3C3F54"/></svg>