<svg width="293" height="168" fill="none" xmlns="http://www.w3.org/2000/svg"><path d="M292.688 90.207c.182-.143.494-.261.195-.745-.3-.483-.638-.326-.521-.745.117-.418.3-1.528 0-1.881-.299-.353-.442-.118-.507-.445-.065-.326-.326-.954-.352-1.11a1.68 1.68 0 00-.859-.654.897.897 0 01-.598-.326c-.065-.131-.781-.066-.833-.34-.052-.275-.274-.536 0-.653.273-.118.598.156.624-.236a8.658 8.658 0 010-.993c.027-.28.131-.547.3-.77.299-.484.416-.746.807-.785.238-.02.468-.091.676-.21 0 0-1.301-1.005-1.457-.953a1.74 1.74 0 01-1.666-1.163 5.99 5.99 0 01-.56-2.117 3.432 3.432 0 01.169-1.11c.131-.393.209-.328.417-.419.208-.092.364-.51.39-.653.177-.308.242-.669.183-1.02a1.704 1.704 0 00-.534-1.019c-.156-.118-1.302-.379-1.666-.588a5.07 5.07 0 01-.989-.876 10.96 10.96 0 01-.625-1.097c-.117-.275-.559-1.046-.624-1.307a1.642 1.642 0 00-.261-.666c-.13-.092-.273-.262-.182-.445.091-.183.117-.444.208-.51.091-.065.261.393.391.563.126.18.285.336.468.457a.99.99 0 00.508.261c.208 0 .351.183.39-.17.103-.43.103-.877 0-1.306-.169-.327-.468-.562-.65-.484-.183.078-.69-.21-.924-.536-.235-.327-.183-1.006-.599-.719-.308.212-.537.52-.651.876 0 .118.091.588-.156.261a7.302 7.302 0 00-1.184-1.189 2.252 2.252 0 01-.807-.836c-.169-.392 0-1.045-.378-1.11-.377-.066-.663.208-.872.182-.208-.026-.39 0-.468.144a.524.524 0 00-.091.457c.031.27.11.53.234.771.091.157.234.366 0 .3a1.194 1.194 0 01-.391-.365l-.533.34c-.156.091-.247.209-.365.143-.117-.065-.377.183-.715-.535a20.429 20.429 0 01-.625-1.947 6.462 6.462 0 00-.495-1.464c-.247-.262-.598-.745-.754-.745-.157 0-.378-.392-.378-.392s.326-.327.234-.51a2.515 2.515 0 00-.39-.444s-.39.157-.508 0a4.102 4.102 0 01-.208-.902s-.625-.3-.585-.653c.039-.353.169-.601 0-.758-.17-.157 0-.497 0-.444.156.087.316.165.481.235 0 0 .443-.078.443-.261a1.144 1.144 0 00-.3-.602c-.078 0 .156-.26.365-.3.208-.04.442.248.559-.092.117-.34.3-.26.156-.653-.143-.392-.091-.21-.273-.745a2.384 2.384 0 01-.208-1.11c0-.38-.117-.628.156-.772.273-.143.469-.091.56.236.091.326.117.993.507 1.084.391.092.534.196.651 0 .117-.196.39-.392.273-.784-.117-.392-.299-1.163-.572-1.307-.274-.143-.261-.209-.495-.575-.234-.365 0-.235.143-.627a6.76 6.76 0 00.143-1.411c0-.47.365-.745.482-1.098.117-.353.208-.444.625-.77.416-.328.533-.576 1.067-.667a7.921 7.921 0 011.523-.144 1.19 1.19 0 00.832-.157c.183-.144.651 0 .417-.444-.234-.444-.39-.51-.508-.51-.117 0-.416 0-.507-.209a.956.956 0 01-.326-.562 4.501 4.501 0 01-.325-1.307c0-.47.117-.653-.182-.862-.299-.21-.325.117-.299-.21.026-.326.182-.391.247-.653.065-.26.143-.392 0-.666a2.93 2.93 0 00-.26-.588c-.092-.118-.157-.392-.248-.484-.091-.091-.351-.444-.26-.692a.592.592 0 00-.182-.627c-.117 0-.352.274-.352 0a3.041 3.041 0 010-.589c0-.274-.416-.392-.481-.744a1.538 1.538 0 010-.967c.156-.23.296-.47.416-.72.127-.865.196-1.738.209-2.613 0-.483-.391-2.783-.391-2.9 0-.118-.442-1.203-.442-1.203l-.625-.235c.375-.01.747-.072 1.106-.183.342-.325.66-.674.95-1.046a6.746 6.746 0 011.015-1.019 3.262 3.262 0 00-.247-.77 1.302 1.302 0 01-.416-.51 3.19 3.19 0 00-.469-.771c-.091-.066-.455 0-.599 0a7.034 7.034 0 00-.859 0s-.273-.223-.364-.223a2.603 2.603 0 00-.508.249l-.507.535h-.378s-.299.092-.325.183c-.026.092-.338.366-.481.327-.144-.04-.326-.392-.274-.51.052-.117.091-.235 0-.326a3.909 3.909 0 00-.481-.262l-.326-.248-.468.366h-.3l-.208-.47-.898.143-.559.235-.3.536s-.234.366-.364.3l-.469-.208-.299.418-.117.457-.443.745-.273.353h-.442a3.575 3.575 0 00-.508-.366s.234-.47.325-.47.235-.183.235-.183a.502.502 0 00.208-.275c0-.143.208-.379 0-.444s-.325 0-.391-.118c-.065-.117-.182-.235 0-.3a.573.573 0 01.443 0c.143 0 .351.209.468.143.118-.065.365-.117.391-.235.079-.2.184-.389.312-.562 0 0 .117-.156.248-.091a.777.777 0 00.325 0l.299-.261c.03-.169.03-.342 0-.51 0-.274-.468-2.784-.559-2.901l-1.302-1.699a4.193 4.193 0 00-1.171-.418c-.169 0-.768.496-1.002.327a2.816 2.816 0 01-.625-.575 4.17 4.17 0 00-.299-.81 3.895 3.895 0 01-.326-.327c-.091-.118 0-.51 0-.51l.156-.497s.534.118.56.327c.026.21.898 1.137 1.406.98a8.484 8.484 0 011.184-.3.543.543 0 00.482-.21c.143-.17.351-.326.39-.561a4.011 4.011 0 000-.863 1.918 1.918 0 01.234-1.411c.365-.418.599-.562.755-.562.156 0 1.484.235 1.757 0 .273-.235 1.536-.549 2.108-1.438a2.476 2.476 0 011.302-1.136c.182-.092.898-.236.898-.484a7.956 7.956 0 00-.065-.77v-.628c0-.21.182-.418.143-.536-.039-.118-.234-.51-.351-.536a1.297 1.297 0 00-.807.47 1.306 1.306 0 01-.625.484c-.117 0-.742-.183-.807-.392-.065-.209.208-.836.13-.98-.078-.144-.182-.209-.572-.248-.391-.04-.443.274-.651 0a2.02 2.02 0 01-.299-.51s-.69-.144-.833 0c-.144.144-.482.549-.326.183a1.86 1.86 0 01.56-.77c.281-.397.492-.84.625-1.308.091-.326.39-.535.156-.562a1.56 1.56 0 00-.833.301c-.156.118-.391.379-.417.235-.026-.144.56-.928.586-1.163.026-.235 0-.392-.299-.536a3.508 3.508 0 01-.625-.575c0-.091-.195-.81-.469-.954-.273-.143-.416-.209-.572-.143a4.35 4.35 0 00-.651.705 6.04 6.04 0 01-.56.392l-.833.51s-1.223.993-1.496 1.137c-.326.215-.609.49-.833.81 0 .144-.352.797-.352.797a.74.74 0 00.417-.117c.117-.118.26-.588.39-.419.131.17.17.366.078.458-.091.091-.351.287-.351.418v.497s.065.183 0 .183-.442-.327-.442-.327 0-.444-.235-.183c-.177.214-.282.48-.299.758l-.117.588s-.182.327-.117.444c.065.118 0 .3.143.34.143.04 0-.091.481-.183.482-.091.651 0 .768.235.117.235 0 .418.417.366l.533-.091c.248 0 0-.118.248 0a.276.276 0 01.188.195.28.28 0 01-.071.262c-.182.21-.065.418-.391.418h-.898a4.556 4.556 0 01-.768-.418c-.156-.078 0-.235-.325-.144-.325.092-.599.262-.742.144-.143-.118-.208-.562-.481-.47a4.649 4.649 0 00-.534.235l-.208.274a4.914 4.914 0 01-.924.144c-.26.003-.519.043-.768.118-.091 0-.273.274-.273.274v.327s.143-.183.234 0c.091.183-.299.392-.299.392s-1.302 0-1.458.091c-.286.088-.549.24-.768.445-.13.156-.338.483-.338.483s.364.235.273.3l-.508.288h-.806a6.966 6.966 0 01-.925.51 7.67 7.67 0 00-.95.392c-.307.152-.596.34-.859.562 0 .091 0 .627-.273.718a4.51 4.51 0 01-.859.275c-.786.355-1.532.793-2.225 1.307-.418.478-.88.916-1.38 1.306l-.885.536c-.074.258-.134.52-.182.784-.092.254-.26.473-.482.627a1.768 1.768 0 00-.793.72 9.34 9.34 0 00-.417 1.306v.836c0 .144-.351.21-.586.366a17.8 17.8 0 00-1.301 1.229l-.664.627c-.169.17-.533.379-.533.51 0 .13.273.535.507.535.234 0 .326.17.508.353.182.183.416.51.442.366a.46.46 0 01.365-.34c.143 0 .351.484.351.484s0 .274.117.274h.482a1.43 1.43 0 01.598-.235c.324.015.644.077.95.183a1.052 1.052 0 01.56.706c.027.325-.003.652-.091.967 0 0-.325.927-.651.862a4.93 4.93 0 00-1.067 0l-1.197.21s-.56.391-.716.326a3.402 3.402 0 00-.885-.261 3.262 3.262 0 00-.69.117s-.26 0-.26.235c.068.327.169.647.299.954a1.556 1.556 0 01-.273.758c-.091 0-1.484 1.725-1.666 1.817a6.028 6.028 0 00-.859.535 6.56 6.56 0 00-.508.72l-1.132 1.463-.481.993c.039.186.07.373.091.562 0 .117-.482.366-.482.366l-.468-.183s-.065-.183-.183-.118a2.453 2.453 0 00-.416.47l-.143.092a8.824 8.824 0 01-1.38-.144c-.169-.091-.377-.901-.559-1.084a2.104 2.104 0 00-.742-.47c-.156 0-2.603.509-2.603.509l-1.184 1.098-2.174 2.391-.716 1.307.091.51-.624.26-1.939 1.595s-.17-.117-.17-.235c0-.118.235-.327.287-.484a.26.26 0 00.014-.121.252.252 0 00-.042-.115.259.259 0 00-.207-.116 5.91 5.91 0 00-.859.209l-1.041.091-.533.47-.391-.444h-.716l-.95.249s-.273.26-.39.091a2.003 2.003 0 01-.182-.575s.091-.392.208-.3c.117.091.364.156.455.091a.392.392 0 000-.444 4.314 4.314 0 00-.767-.3l-1.406.234-1.419 1.02-.065.836s.144.784.144.928c0 .143-.118 1.307-.118 1.307-.213.242-.409.5-.585.77 0 .157-.3-.09-.3-.26s.078-1.53.078-1.53l.339.719s.26-.118.26-.327v-1.306s0-.575-.182-.392l-.443.535s-.78.771-.898.863c-.117.091-.741 1.084-.832.954a2.607 2.607 0 010-.837l1.301-.888.625-.693h-.833s-.833.157-1.107.183c-.273.026-2.173.693-2.173.693l-1.093.914c-.484.226-.98.426-1.484.602-.156 0-.429.209-.39.326.1.231.217.454.351.667l-.234.77s-.508.576-.508.837v.993s0 .327.143.17c.144-.157.274-.68.391-.797.117-.118.468-.392.468-.13v.992c0 .183-.182.536.092.628.265.098.509.25.715.444.171.328.29.68.352 1.045 0 .183-.183.536-.326.419l-.572-.47c-.117-.092-.469-.119-.534 0a1.524 1.524 0 00-.208.744c0 .274.416.601.442.693.015.108.015.218 0 .326l.144.51s-.183.235-.352.209c-.169-.026-1.301-.784-1.939-.627-.638.157-1.041-.3-1.393.091a2.184 2.184 0 00-.689.98c0 .275.234.837 0 .837-.235 0-1.042.745-1.666.6-.625-.143-1.302 0-1.458-.234-.156-.236-.69-.876-.781-.72-.091.158-.325 0-.117.563.208.562.625 1.49.651 1.712.026.222.325.47.455.862.108.427.156.867.143 1.307 0 .392.209.862-.091.862a1.666 1.666 0 01-.95-.496c-.117-.183-.208-.418-.39-.21a.662.662 0 01-.859.118 3.183 3.183 0 00-1.132-.6 1.58 1.58 0 01-.898-.328c-.17-.182-.417-.182-.417-.444 0-.261.247-.366.417-.483.169-.118.689-.21.364-.484l-.325-.261c-.183-.157-.365-.157-.391-.366-.026-.21 0-.47-.117-.47a4.108 4.108 0 00-.651.379c-.219.1-.451.17-.689.209-.209 0-.69-.262-.443-.353l.768-.3.208-.445v-.575s0-.118-.325.065c-.326.183-.091.144-.365.183-.273.04-.143.3-.26 0-.117-.3 0-.562.117-.51.117.053.352 0 .352 0v-.6a5.47 5.47 0 000-.628c0-.183 0-.353-.209-.261-.208.091.118 0-.143.078-.26.079-.299-.078-.299-.209 0-.13.091-.17.182-.3.067-.212.106-.432.117-.654l-.273-.261s-.182-.157-.26 0a2.594 2.594 0 00-.157.444 5.42 5.42 0 00-.533-.562 1.882 1.882 0 00-1.067-.274 5.11 5.11 0 00-1.302.392l-.507.392s.273.418.156.47c-.117.053-.299-.235-.391-.3-.091-.066-.26-.262-.416-.262-.156 0-.208-.183-.391 0a2.23 2.23 0 00-.325.51s.065.444 0 .327a4.385 4.385 0 00-.599-.536c-.117-.065-.325-.366-.65-.275a5.882 5.882 0 00-.625.21v.444h-.534v.3l.092.327.169.21v.653c.084.142.184.273.299.392.139.087.263.197.364.326.079.144 0 .419 0 .419s0 .065-.416.117a2.235 2.235 0 00-.833.392c-.277.14-.564.258-.859.353-.091 0-1.158-.118-1.301-.091h-.209s-.507 0-.546-.118c-.039-.118-.352-.34-.352-.34l-.351.484s.143.444 0 .444-1.549 0-1.64-.092c-.091-.091-.651-.588-.625-.679.026-.092.443-.157.443-.157s.299 0 .325-.17c.026-.17.065-.575 0-.575h-3.839a5.25 5.25 0 01-.599.562l-.65.235-.508.484-.182.327c.088.11.159.233.208.366 0 .078-.117.679-.143.77-.026.092 0 .393-.156.275a2.942 2.942 0 01-.235-.784 1.845 1.845 0 00-.234-.536 2.446 2.446 0 01-.273-.836 4.876 4.876 0 00-.417-.954s-.273-.157-.325-.066c.045.366.133.726.26 1.072 0 0-.911.092-1.119.092a.791.791 0 01-.39-.236c-.131-.117-.235-.235-.235-.235s-.156-.366-.247-.392c-.091-.026-.325-.235-.534-.21-.28.13-.539.302-.767.51l-.157.393v.496l.417.092c.143 0 .169.483.169.483s-.208.745-.377.837c-.169.091-.456-.353-.625-.183-.213.2-.377.445-.482.718a3.024 3.024 0 01-.481.719c-.371.157-.76.267-1.158.327a4.862 4.862 0 00-.742 0s-.599.418-.625.627a6.76 6.76 0 01-.807 1.202s-.833.562-.885.444c-.052-.117.091-.378.169-.627.078-.248.833-1.045.872-1.163.039-.117.235-.51.3-.745s.117-.535.26-.535a1.65 1.65 0 00.508-.21c.113-.117.235-.226.364-.326a6.16 6.16 0 00.586-.719c.183-.27.353-.549.507-.836l.443-.667 1.171-.954a1 1 0 01-.39-.562c-.066-.34.234-.51.507-.483a1.85 1.85 0 001.067-.536c.217-.244.447-.475.69-.692 0 0 .443-.798.794-1.307.351-.51.781-.745.807-1.046a3.865 3.865 0 000-1.019 2.095 2.095 0 00-.234-.575s-.469 0-.56-.235c-.091-.235.416-.3.56-.418a.563.563 0 00.091-.68 4.207 4.207 0 01-.508-.993 1.41 1.41 0 00-.325-.745c-.143-.091-.143.562-.3.601-.156.04-.299-.418-.299-.418l-.234-.183s-.534-.444-.651-.392c-.117.052-.208.118-.247-.091-.039-.21-.143-.837-.26-.889a.655.655 0 00-.573-.183 4.33 4.33 0 00-1.223.392c-.118 0-.469.47-.859.379-.391-.091-.326-.235-.651-.17a.97.97 0 00-.625.51c-.091.143-.325.745-.69.68-.364-.066-.741-.092-.794-.262-.052-.17.352-.3.469-.392.175-.188.324-.4.443-.627a1.122 1.122 0 00.091-.928c-.17-.327-.261-.719-.586-.601a2.776 2.776 0 00-.781.575s-.625-.092-.625-.3c0-.21-.481-.275-.481-.275s-.703.418-.651.091c.052-.326.534-.483.716-.483a1.2 1.2 0 00.599-.262c.091-.091.39-.117.299-.51a3.935 3.935 0 00-.338-.836l-.443-.065a.942.942 0 01-.442-.261.855.855 0 00-.69-.236c-.345.07-.664.233-.924.47a4.41 4.41 0 00-.651.929 5.715 5.715 0 00-.534.627c-.117.209-.299.745-.364.862-.065.118-.26.275-.325.458a1.481 1.481 0 000 .719c.034.207.034.42 0 .627a.339.339 0 00.143.379c.242.186.515.327.807.418.351.117.624 0 .559.248-.065.248-.442.262-.559.17-.117-.091-1.302-.117-1.302-.235a2.348 2.348 0 00-.898-.353c-.143 0-.442-.183-.559-.091-.118.091-.183.6-.183.6.227.132.436.29.625.471.129.226.193.484.182.745 0 .157-.091.81-.091.81s-.143.183-.234.183c-.091 0-.117-.392-.117-.51 0-.117 0-.535-.117-.6a5.501 5.501 0 00-.547-.262 2.389 2.389 0 01-.377-.157l-.326.183a4.643 4.643 0 00-.598.771s-.365-.326-.482-.209c-.149.13-.306.253-.468.366a4.877 4.877 0 01-.898.21c-.144 0-.599 0-.326-.25.273-.248.508-.234.417-.444a1.992 1.992 0 00-1.042-.561h-1.197s-.117-.575-.26-.602c-.143-.026-.742.602-.742.602s-.664.47-.39.588c.241.081.489.142.741.183.118.065.508.209.144.365-.215.091-.445.14-.677.144a8.63 8.63 0 01-.924 0s-.417.47-.56.327a3.63 3.63 0 00-.807-.484c-.347.08-.686.19-1.015.327 0 0-.143.51-.325.51-.169.01-.339.01-.508 0a2.342 2.342 0 01-.442.418l-.69.418h-.924c-.143 0-.599.17-.326.261.274.092.69.366.482.458l-.833.353s-.182.51-.208.6c-.026.092-.365 0-.417 0a1.653 1.653 0 00-.39-.248l-.117.536.208.667c0 .209-.482.68-.482.68.182.282.331.584.443.9.101.451.144.912.13 1.373 0 .274-.221.693-.338.719-.117.026-.508.274-.417.065.091-.209.365-.248.365-.457 0-.21 0-.47-.156-.47-.2.012-.4.012-.599 0-.117 0-1.302-.537-1.51-.537a4.132 4.132 0 00-1.015.21c-.505.18-1.04.26-1.575.235-.234-.118-.299-.575-.859-.51l-1.301.118c-.117 0-.417-.235-.456.235-.039.47-.286 1.62-.325 2.013a7.475 7.475 0 01-.351 1.163 2.86 2.86 0 00-.118.862c0 .118 0 .444.17.51.212.096.405.229.572.392.171.117.306.28.391.47l.26.902a.706.706 0 00.091.51c.169.228.371.431.599.6.117 0 .624.353.585.471-.039.118-.078 1.137-.208 1.163a5.172 5.172 0 00-.651.601l-.26 1.137v1.137s.325.562-.117.353c-.443-.21-.69-.68-.95-.745-.26-.065-.299.327-.482.209-.182-.118-.182-.653-.117-.954.065-.3-.117-.771 0-.98.223-.229.501-.395.807-.484.294-.147.542-.373.716-.653 0-.091.416-.457.325-.601-.091-.144-.26-.51-.481-.51-.221 0-.469.118-.742.118s-.586.274-.716 0-.26-.34-.325-.549c-.065-.209.156-1.464-.208-1.751-.365-.288-.742-.183-1.042-.666a8.621 8.621 0 00-.585-.863.99.99 0 00-.495-.17l-.585-.065a.637.637 0 00-.599.117c-.117.118-.833 0-.768.262.065.261.325.326.442.457.118.13.456-.065.365.47a.922.922 0 01-.417.693s-.299.092-.481-.457a1.675 1.675 0 00-.651-.863c-.182-.143-.117-.653-.507-.261-.391.392-.391.261-.625.627-.234.366-.117.38-.117.837 0 .457-.156.561 0 .927.171.321.381.62.624.889.248.235 0 .065.248.235.247.17.26-.326.442 0 .137.345.199.714.182 1.085 0 .209.3.588.3.719 0 .13-.13.209-.339.078a3.66 3.66 0 01-.794-1.098c0-.117.079-.6-.299-.653-.377-.052-.182.47-.716 0-.533-.47-.689-.575-.807-.784-.117-.21-.39-.47-.208-.745.182-.275.391-.144.391-.536v-.993c0-.118-.157-.51.091-.797.247-.288.859-1.11.924-1.229a4.87 4.87 0 00.442-1.084 4.316 4.316 0 000-.771c0-.118.287 0 .287 0l-.235-.536s0-.549-.26-.248c-.269.377-.5.78-.69 1.202 0 0-.481.954-.533 1.098-.052.143-.508 1.019-.508 1.019s-.325.3-.507.274a5.003 5.003 0 00-.951 0 8.4 8.4 0 00-.871.994c-.209.235-.768.261-.703.68a9.92 9.92 0 010 1.502c0 .379.117.588.117 1.215 0 .627-.117 1.464-.417 1.555-.299.092-.794.235-.924.601a5.702 5.702 0 00-.833 1.856 4.805 4.805 0 01-.299 1.49c-.143.392-.494.81-.26.81.236-.02.473.02.69.118.208.117.143.444.559.562.417.117.117 0 .651-.118s.091-.379.533-.144c.443.235.964.261 1.172.654.208.392 0 .692.234.993.234.3.417.117.534.653.068.432.09.87.065 1.307 0 0-.091.836-.091 1.02 0 .182.39.626 0 .653-.391.026-.677-.183-.768.209a2.823 2.823 0 00-.091.77c0 .458-.274.51 0 .785.318.359.657.7 1.015 1.019a1.193 1.193 0 01.716.653c.143.392.377.954.26 1.02-.117.065-.417 0-.651-.418-.234-.419-.234-.837-.507-1.085-.274-.248-.3-.444-.716-.562-.417-.118-.599 0-.677-.51a2.15 2.15 0 010-1.045c.076-.364.176-.721.299-1.072.09-.248.198-.488.326-.718.117-.262.158-.552.117-.837a2.032 2.032 0 00-.182-.875c-.143-.353.156-.497-.169-.837a3.73 3.73 0 00-1.614-.47h-.885s-1.172.483-1.198.758a2.811 2.811 0 01-.481.836s0 .262.065.771c.06.434.06.873 0 1.307-.127.307-.284.6-.469.876a8.756 8.756 0 01-.741.51l-.157.117a6.29 6.29 0 01-.95 1.228c-.299.17-.781.627-1.067.654-.286.026-.807.235-.963.143l-.143-.091h-1.106s-.326.901-.495.836a4.625 4.625 0 01-.846-.496 3.585 3.585 0 00-1.093-.628c-.273 0-.391.118-.625-.156-.234-.275 0 .117-.234-.262s-.13-.928.26-.718c.275.156.536.335.781.535.157.088.322.158.495.21 0 0 .78.208.846 0 .062-.298.101-.6.117-.902 0-.21.26-.445.416-.418a5.32 5.32 0 00.677-.092.861.861 0 00.534-.327c.135-.237.333-.431.572-.562.463-.303.95-.565 1.458-.784.234 0 .924-.6.768-.98a.856.856 0 01.091-.836c.117-.183.273-.575.481-.601.209-.026.391.3.56-.118.169-.418.325-1.228 0-1.555-.325-.327-.807-.601-.547-1.307.261-.705.69-.784.924-1.411.149-.42.232-.861.248-1.307 0-.183.885-1.045.859-1.307-.026-.26-.183-.653 0-.927.115-.2.27-.374.455-.51 0 0 .443-.444.443-.627s.715-1.19.767-1.464c.06-.473.06-.951 0-1.424 0-.34-.208-.667-.247-.876-.039-.209.417-.797.547-.928.13-.13 1.718-1.372 1.9-1.973a6.35 6.35 0 00.325-1.542 7.37 7.37 0 010-.758l-1.041-.888a8.267 8.267 0 00-1.601-.745s.078-.601 0-.601a3.276 3.276 0 00-.976.444c-.091.117-1.301 2.208-1.614 2.548a13.771 13.771 0 01-1.457 1.464c-.117 0-2.603.562-2.681.627a2.029 2.029 0 00-.651.536c-.091.183 0 .51 0 .51s.299 0 0 .3-.534.497-.325.497c.208 0 .442-.118.442.065s-.078.327-.325.562c-.247.235-.417.34-.469.549-.052.209.143.444.117.653a1.38 1.38 0 01-.273.51s-.208.143-.169.326c.039.183.468.183 0 .183a1.635 1.635 0 01-.781-.209 3.024 3.024 0 00-.442.588c-.183.34-.092.066-.183.34-.091.275-.325.379-.208.497.117.117.534 0 .664 0a.26.26 0 01.238.213.258.258 0 01-.004.113c-.001.221.03.441.091.654a.238.238 0 00.143.34c.274.078.573.117.534.235-.039.117-.208.143-.351.392a1.068 1.068 0 00-.209.51 5.103 5.103 0 000 1.306c.117.13.3 0 .3.366s0 .862-.156.928a13.1 13.1 0 00-1.302.98c-.078.118-.286.536-.351.183a5.456 5.456 0 01-.065-1.163 1.855 1.855 0 00-.078-1.046c-.183-.274-1.081-2.247-1.302-2.482-.221-.236-.13-1.02-.338-1.203a2.327 2.327 0 00-.313-.222.369.369 0 00.026-.052c-.182 0-.507 0-.338-.21.169-.208.39-.3.416-.417a7.22 7.22 0 00-.741-1.725c-.271-.39-.567-.76-.885-1.111-.398-.51-.833-.991-1.302-1.438a1.297 1.297 0 00-.924-.209c-.26.066-.703.118-.885.366a1.699 1.699 0 00-.442.837c.068.432.068.873 0 1.306-.144.536-.118.419-.625.72-.508.3-1.067.09-1.184.182-.118.092-.508.588-.833.444-.326-.143-.456 0-.482-.444.033-.406.203-.789.482-1.085.117-.143.325-.51.442-.562.117-.052.417 0 .234-.235a4.637 4.637 0 00-.767-.718 7.214 7.214 0 00-1.38 0c-.26.091-.469.326-.859.352-.39.026-1.132-.26-1.223-.535a4.66 4.66 0 00-.742-.98c-.208-.249-.86-.157-1.133-.118a3.743 3.743 0 00-1.04.444.66.66 0 01-.834-.274c-.26-.353-.468-.327-.65-.654-.182-.326-.482-.561-.365-.77a.327.327 0 01.383-.143c.047.016.09.042.125.077.117.118.091.3.364.118.274-.183.742-.601.768-.81.026-.21.482-.445.482-.445v-.392c.21.093.41.207.598.34.157.117.534.562.482.17-.052-.392-.208-.68-.39-.719l-2.24-.261c-.377 0-.832-.3-.91 0a6.14 6.14 0 00-.13 1.045s-.326.288-.495.17c-.169-.118-.39-.327-.3-.47.092-.144.509-.275.443-.458a2.017 2.017 0 00-.273-.418s-1.067.065-1.301 0a1.95 1.95 0 01-.768-.483 1.18 1.18 0 00-.833-.236c-.456 0-1.406.353-1.523.235-.117-.117-.481-.143-.481-.3s.299-.601 0-.536c-.3.066-.326.3-.417.392-.091.092-.182.51-.56.418-.377-.091-.13-.483-.546-.535a.958.958 0 00-.86.17c-.378.264-.774.504-1.183.718-.157.092-.6.418-.69.366-.091-.052-1.302-.719-1.523-.875-.221-.157-.677-.562-.703-.928a.695.695 0 01.209-.654.627.627 0 00.117-.68c-.117-.339-.326-.483-.156-.718.169-.235.208-.601.507-.536.297.055.601.055.898 0 .534-.065.833-.065.976.17.143.235.443.627.833.667.39.039.625-.092.625-.392 0-.301.09-.837.273-.837.182 0 .182.392.182 0a3.411 3.411 0 00-.182-.928.616.616 0 01.143-.535c.091-.118.326-.157.117-.51-.208-.353-.234-.51-.56-.745-.325-.235-.832-.51-.858-.784a7.857 7.857 0 00-.417-1.19c-.09-.182-.247-.273-.364-.156-.18.362-.282.759-.3 1.163.022.24.022.48 0 .719a2.93 2.93 0 01-.572.81c-.091 0-.3.235-.416.327-.23.112-.47.204-.716.274h-.17l-.546.235c-.331.141-.65.312-.95.51a1.153 1.153 0 00-.235.784c0 .17.118.536 0 .719-.117.183-.39.287-.507.418a1.792 1.792 0 00-.3.588c0 .13-.468.392-.468.392s-.599.418-.924.601a5.208 5.208 0 00-.742.562 3.355 3.355 0 00-.247-.536c-.091-.117-.469-.117-.65-.117h-.183s-.469-.21-.091-.444c.377-.236.625-.393.78-.275.157.118.417 0 .209-.353a2.405 2.405 0 00-.456-.692c-.169-.183-.169-.144-.169-.51s.209-.444 0-.536c-.208-.091-.833 0-1.132-.065-.3-.066-1.9-.497-1.9-.497s-.65.21-.99 0c-.338-.209-.767-.562-1.04-.418-.274.144-.885.418-1.068.536-.182.117-.234 0-.351.627-.117.627-.117 1.385-.247 1.411-.13.027-.208-.77-.534-.627-.325.144-.65.418-.677.627-.026.21-.182.628-.364.51-.182-.117-.768-.536-.807-.993-.039-.457.13-.536.13-.889 0-.352.17-.718-.13-.744-.3-.027-.65 0-.768-.066-.117-.065-.273 0-.273-.209s.481-.444.507-.653c.026-.21-.234-.745-.234-.993 0-.249.091-.81.091-.928a1.727 1.727 0 00-.234-.47s-1.64.143-1.73.47c-.067.349-.167.69-.3 1.019-.117.183-.39.235-.352.51.04.274 0 .418.209.51.208.09.585-.157.56.326.016.384-.1.762-.326 1.072-.182.117-.534.3-.534.3 0 .274-.117.536-.117.536s-.43-.353-.546-.47c-.118-.118-.716-.575-.716-.575a9.326 9.326 0 01-.078-1.464c0-.21.416-.144.351-.954a4.718 4.718 0 00-.208-1.229s.09-.862-.065-1.006c-.156-.144-.534-.784-.443-.836.246-.044.497-.044.742 0 .156 0 .508-.719.508-.719.31-.318.562-.69.742-1.098 0-.365.09-.6.455-.718.364-.118.3-.118.586 0 .286.117.872-.157.872-.157s.117-.418.234-.379c.238.013.477.013.716 0 .231-.321.338-.716.299-1.11a4.945 4.945 0 00-.273-.994c-.117-.261-.625-.379-.326-.653a.443.443 0 01.651.091c.091.092.364.092.364.092s.534.47.144-.366c-.39-.837-.117-.863-.117-.863s0-.392.273-.183c.273.21.234-1.306.325-1.463.14-.25.296-.49.469-.719 0 0 .247 0 .247.183s.117.483-.065.653c-.18.238-.301.516-.352.81-.09.327-.416.654-.182.928.235.275.508 0 .482.236-.026.235-.156.182-.13.575.026.392 0 .627.156.627a.573.573 0 01.442.627c0 .353-.507 2.783.235 3.372.742.588.833.326.755.784-.079.457-.482.261 0 .98.481.718.572 2.13 1.457 2.273a13.55 13.55 0 003.488.628c.706-.14 1.402-.327 2.082-.562l.924-.967c.287-.267.552-.555.794-.863 0-.117-.117-.77 0-1.071.071-.276.205-.53.39-.745.202-.31.302-.676.287-1.045 0-.458-.26-.393-.377-.275a1.598 1.598 0 01-.417.235v-1.908s-.533.144-.468-.065c.105-.32.289-.607.533-.836.242-.292.359-.668.326-1.046a6.206 6.206 0 010-1.045c0-.47-.144-1.372-.144-1.764 0-.392.092-1.046-.143-1.307l-.898-.719s-.416-1.215-.481-1.463a62.218 62.218 0 00-.209-.771 5.77 5.77 0 01-.299-1.307c0-.275.091-.536.339-.654.247-.117.078.092.299.38.221.287.117.81.625.574.507-.235.65-.091.533-.575-.117-.483-.117-.914-.325-1.071a7.788 7.788 0 00-1.106-.3c-.326-.118-.95-.118-.742-.301.208-.183.924-.418.716-.588a1.065 1.065 0 00-.6-.183l-.74-.484-.274-.261-1.484.17a1.995 1.995 0 01-.872 0 5.602 5.602 0 01-.768-.51l-.39-.274s-.586.627-1.067.575c-.482-.053-1.042 0-1.107.117a.681.681 0 000 .536c.091.183.378.418.235.784-.097.298-.237.58-.417.836-.208.262-.624.445-.742.771-.117.327.182.484-.299.654a3.41 3.41 0 01-.65.209c-.209.065 0 .183-.209.065a1 1 0 00-1.106-.235 2.6 2.6 0 00-1.106.706c-.287.3-.651.901-.977 1.306-.325.406-.481 1.098-.715 1.373-.235.274-.508.81-.976 1.019-.469.209-.664.379-.872.327a8.26 8.26 0 00-.924-.301c-.118 0-.495.418-.794.484l-.573.078c-.143 0-.325.549-.534.418-.208-.13-.533-.261-.533-.261s.351.928 0 1.398c-.352.47-.716.392-.885.575-.17.183-.456.418-.482.601-.026.183-.26.38-.39.47-.13.092-.143.393-.352.301a7.647 7.647 0 00-.78-.117c-.118-.066-.677.561-.677.561a1.936 1.936 0 00-.599 1.412 3.106 3.106 0 01-.534 1.672c-.09 0-.442.562-.806.536-.365-.026-1.159.418-1.484.3a23.961 23.961 0 01-3.072-.274 6.057 6.057 0 00-1.757-.352l-2.407-.419a19.573 19.573 0 01-2.082-.418c0-.091-2.603-.575-2.603-.575l1.496.719.807.457-1.145.392a2.812 2.812 0 00-.3.628 5.437 5.437 0 000 .653.72.72 0 00.144.51c.156.156.546.692.546.692l-.247.837-.091.81s.208.235 0 .17c-.208-.066-.482 0-.65-.236-.17-.235-.131-.352-.209-.483-.078-.13-.273-.353-.208-.562.065-.21.26-.274 0-.418a1.194 1.194 0 00-.716-.3c-.273 0-.443.483-.508 0-.065-.484.3-.51 0-.785a1.378 1.378 0 00-.663-.326c-.117 0 .182-.327-.26-.275-.443.052-.573.183-.6.34-.025.157-.624.627-.533.797.091.17.143.327 0 .457a.558.558 0 01-.716-.274c-.09-.274-.598-.327-.716-.484a.78.78 0 00-.325-.209 5.61 5.61 0 00-1.301.784c-.092.21-.573.745-.664.628-.091-.118-.443-.366-.56-.327-.117.04-.273 0-.3.261-.025.262.118.693.092.876-.026.183 0 .379-.3.47-.299.092-2.017-.209-2.264 0-.247.21-.3.419-.534.654-.234.235-.533.209-.859.3-.325.092-.364 0-.572.275a8.3 8.3 0 00-.625 1.137c0 .143-.65.562-.794.745-.143.182-.69.352-.69.744s0 .144-.09.902c-.092.758.182.68.065 1.307a3.182 3.182 0 01-.417.993c0 .118-.364.235.091.353.456.117.443-.144.86.274.416.418.507.497.468 1.046-.04.549.09.836-.143 1.163-.235.326-.742.6-.834.77a9.34 9.34 0 01-.598.81s-.768.066-.924.328c-.273.387-.568.758-.885 1.11-.091.118-.208.72-.417.837-.208.117-.481-.118-.598.535-.117.654-.326.745-.209 1.072.118.327.352.275.118.693-.235.418-.26 0-.443.653-.182.653 0 .81-.091.954-.091.144 0 .392-.273.392-.274 0-.235.183-.534.392-.3.21-.416.536-.586.484a1.066 1.066 0 01-.78-.667c-.183-.51.117-.601-.3-1.045-.416-.445-.39-.654-.742-.562-.351.091-.416.17-.65.535a3.64 3.64 0 01-.898 1.02c-.326.17-.443.496-.599.68a.955.955 0 00-.26.509c0 .274-.248.392-.417.653-.169.262-.455.366 0 .602.319.133.62.304.898.51.26.208.469.274.742.483.273.209.768.47.924.797.156.327.443.13.469.928a6.475 6.475 0 01-.26 1.803l-1.784 1.581c-.299.235-.598 0-.572.51.026.51.117.562.117.915 0 .352.533 1.385.325 1.92-.208.536.065.563-.442 1.098-.23.274-.503.507-.807.693-.378.3-.625 0-.469.562.156.562.3.157.469.85.088.429.127.867.117 1.306a1.311 1.311 0 00.638.954c.442.274.768.209.976.666.208.458.117.47 0 1.19a7.867 7.867 0 00-.209 1.306c0 .262 0 .445.274.771.273.327 1.002.601.976 1.137-.026.536.416 1.307.442 1.581.026.275 0 .954.117 1.163.118.21.183.667 0 .837-.182.17-.442 0-.624.222s0 .287-.417.536c-.416.248-.39.117-.65.418-.26.3-.209.379-.6.68-.39.3-.689.065-.78.692-.091.627.182.862-.143 1.02a2.506 2.506 0 01-.781.3c-.208 0-.794-.21-.976-.066-.182.144-.143.654-.482.745-.338.092-.468 0-.56-.352a3.849 3.849 0 00-.78-1.556c-.443-.535-.495-.718-.768-.718s-.625-.157-1.067-.21c-.443-.052-.573-.391-.742-.234-.17.156-.547.17-.638.588-.09.418-.195.627-.325.6h-.117c.057.163.127.32.208.471a.873.873 0 00.417.392c.146.065.299.118.455.157.325.078.534.144.586.444.052.3 0 .118 0 .47 0 .353-.365.432-.599.314a1.788 1.788 0 01-.482-.548c-.09-.118-.442-.118-.533-.184-.091-.065-.234-.444-.352-.535a1.817 1.817 0 00-.598-.118.897.897 0 00-.274.157c-.078.078 0 .627 0 .627s0 .38-.273 0a1.163 1.163 0 01-.416-.836 2.751 2.751 0 00-.352-.954c-.156-.327 0-.81-.364-.51a3.49 3.49 0 00-.534.693c0 .091-.09-.366-.182.144-.091.51-.208.535 0 .954.208.418.39.483.273.692-.117.21-.299.327-.299.497a.338.338 0 00-.351-.131c-.599 0-.872.196-.95.314-.079.117-.157.575-.39.366-.235-.21-.274-.419-.183-.536.091-.118.325-.484.481-.484a.675.675 0 00.378-.091c.208-.092.39-.235.208-.327-.182-.091-.703.118-.703.118s-1.106.614-1.223.64c-.117.026-.065-.431-.3-.248-.234.183-.48.575-.741.248-.26-.327-.599-.366-.664-.575-.065-.209-.26-.601-.351-.483-.091.117-.39.156-.39.156l-.144-.483-.156-.21-.443.275-.39.092v1.502l-.312.445-.235.51.274.522.273.562v2.51l.442 1.306v1.477l-.273 1.515.469 1.033.91.836.716 2.078.912 2.195.754 1.477 1.159 1.424.312.915v1.307a1.692 1.692 0 00.638 1.15c.56.366 1.744 2.038 1.86 2.038.287.495.527 1.016.717 1.555l1.028 1.477-.794.954-.794.68 1.197 4.221.39 2.861s.079 1.124.678 1.046c.598-.079 2.707 0 2.707 0l.39-.601s-.156-1.242 0-1.399c.272-.432.45-.917.52-1.424 0-.366-.13-1.045 0-1.241.207-.252.341-.554.391-.876v-.915a3.78 3.78 0 001.106-.64c.208-.274 1.002-.719.963-1.032-.039-.314.352-.68.352-.798v-.64s.755-.64.755-.954c0-.313-.638-1.672-.482-1.921.156-.248 1.302-.117 1.757-.235.456-.118 2.343-.993 2.343-.993s.663-.444.794-.405c.218.133.427.281.624.444l.716-.118.482.432.872-.236.43.314.676-.118.156-.718s.442-.079.404.248a.591.591 0 00.273.51l.247.17.547-.366.208.405-.17-1.006a2.63 2.63 0 01-.35-.758c0-.196.234-.432.35-.314.118.118.248.64.521.444a5.094 5.094 0 001.224-1.594c.186-.82.295-1.655.325-2.496 0-.614-.195-1.568-.195-1.568s-.404-.444-.56-.327c-.156.118-.677.366-.677.196a1.099 1.099 0 01.118-1.071l.95-.993s.09-.837-.079-.954c-.169-.118-.507-.366-.468-.68.064-.292.17-.574.312-.836.283-.089.576-.142.872-.157.332.002.662-.025.99-.079 0 0 1.08.157 1.3 0 .172-.416.277-.857.313-1.306a1.302 1.302 0 01.872-.876 11.73 11.73 0 011.47-.183.215.215 0 00.21-.144c.077-.274.624-1.15 1.184-.993a.803.803 0 01.54.288.8.8 0 01.175.588 6.699 6.699 0 01-.325 1.673l-.312.914.117.601a3.624 3.624 0 011.028-.078 1.57 1.57 0 001.08-.235c.097-.43.162-.867.195-1.307 0-.353 0-.68.234-.719.235-.039.834.758 1.302.758h1.47s.391-.392.638-.353c.248.04.703.51 1.068.51.364 0 1.939-.235 1.939-.235l.755.078s.364-.47.598-.235c.235.235.56.601.482.836-.15.233-.339.436-.56.601 0 0-.117.432.078.471.196.039.651-.092.742 0 .091.091.13.523.221.523a11.99 11.99 0 011.419 0c.156 0 .377.156.39.692.013.536-.117.719 0 .837.117.117.508.209.547.378.039.17-.143.223 0 .34.143.118.885.601 1.002.863.117.261-.156.849-.195.941a1.417 1.417 0 00.091 1.176c.223.253.352.576.364.914 0 .236-.078.615 0 .706.078.092 0 .288 0 .288s-.455.601-.43.679c.027.079.131.562.365.379a3.71 3.71 0 001.055-1.424c0-.418.182-.445.364-.314s.612.235.625.379c-.01.181-.054.359-.13.523a1.61 1.61 0 00-.196.705c0 .249-.143 1.229.482 1.556.58.188 1.2.219 1.796.091 0 0 .156-.301.312-.366s.794.405.833.444c.155.209.355.379.586.497a.885.885 0 01.468.418c.106.231.189.472.248.719a.431.431 0 00.416.314 1.88 1.88 0 00.898-.144c.104-.105.208-.209.3-.17.09.039.611.314.65.536a.47.47 0 01-.091.47.712.712 0 00-.13.719 7 7 0 001.171 2.43c.56.51 1.145.863 1.419.719.273-.144.455-.366.638-.313.182.052.22.914.39.993.17.078 1.51 1.306 2.694.705 1.184-.601 1.588-.954 1.484-1.306-.105-.353-.95-.641-.99-1.542-.038-.902.17-.445.105-.628-.065-.183-.73-1.306-.872-1.672-.143-.366-.17-.523 0-.719a.998.998 0 011.067-.17c.377.209.963.653 1.301.51.339-.144.495 0 .586-.445a2.755 2.755 0 000-1.084c0-.366 0-.51.273-.628a6.81 6.81 0 011.106 0h1.302s.859 1.072 1.21.941c.352-.13.664 0 .599-.261a11.75 11.75 0 00-1.302-1.411s-.598-.536-.533-.745a.469.469 0 01.56-.353c.273.091.481.353.598.209.117-.144.274-.366.117-.536-.156-.17-.442-.3-.351-.692.061-.259.172-.503.325-.719a1.076 1.076 0 01.898-.327c.274.227.56.436.86.628.363.239.71.501 1.04.784l-.208.562.209.182.65-.365c.309.187.656.299 1.015.326.64.1 1.267.262 1.874.484l1.458.692s1.367.497 1.458.497c.09 0 .507.091.716-.118.208-.209 1.106-.091 1.301.066.195.156.742.627.95.745.301.134.61.252.924.352h1.106l1.692.183c.091 0 .599 0 .677-.091.142-.094.273-.204.39-.327.157-.183.6 0 .69.092.23.006.458-.025.677-.092h.247v.17l.677-.118s.573 0 .625.183c.052.183.716.811.924 1.111.208.301.507.797.716.771a6.39 6.39 0 01.806 0l.43.105a2.23 2.23 0 010 .692c0 .275 0 .771-.143.928a.629.629 0 00-.117.353s-.118 0 0 .327c.064.393.033.797-.091 1.176-.092.117-.118.418-.39.444-.274.026-.417 0-.417.301a.744.744 0 00.507.627c.26.091 1.302.261 1.302.261h.585c.157 0 .339 0 .365.144a5.53 5.53 0 010 .928c0 .274-.195.745 0 .718.195-.026.481 0 .533 0 .052 0 0-.574.248-.483l.208.091c.07.184.182.349.325.484.41.321.846.61 1.302.862.117 0 .351 0 .234.183a7.212 7.212 0 01-1.184.419s-.573.143-.573.235c0 .091-.143.627-.143.627h.794a3.08 3.08 0 01.624-.183c.309.135.574.352.768.627 0 .118-.208.366 0 .327a1.62 1.62 0 00.573-.379h.677c.327.058.662.058.989 0 .169-.131.885-.3 1.002-.392a7.759 7.759 0 011.301-.536c.274 0 1.224-.274 1.302-.274a5.895 5.895 0 011.301 0c.023.258-.031.517-.156.745-.169.235-.859.535-.976.444-.117-.091-.442-.301-.39 0 .09.269.199.531.325.784.097.252.253.476.455.653.326.366 1.302.811 1.419 1.712.117.902.755 3.999.755 3.999l.794 4.456.364 2.614.261 1.49s.39.261.507.183c.284-.293.533-.617.742-.968 0-.117 0-.352.299-.352a.865.865 0 01.716.235c.297.419.657.789 1.067 1.098a1.17 1.17 0 01.625.64c.182.3.13.653.482.745.368.131.725.293 1.067.483h.689s.417-.392.625-.418a2.949 2.949 0 011.575.418c.331.311.585.696.742 1.124l.507 1.307s.091.81.326.875c.234.066.781.144.898.51l.182.536s-.091.601 0 .719c.091.117 0 1.163.351 1.515.483.33 1.015.581 1.575.745h.898c.369-.131.72-.311 1.041-.535.143-.092.274-.628.534-.236s.117.745 0 .784c-.117.04-.417.236-.352.353.277.278.573.535.885.771.197.236.34.513.417.81 0 .327-.143.484 0 .484s.625.301.989 0 .924-.745 1.158-.954c.235-.209.625-.091 1.015-.065.391.026 2.265.091 2.603-.353a7.188 7.188 0 011.224-1.307 11.521 11.521 0 012.29-.745c.716-.274 1.731-.81 2.083-.954.351-.144.572-.536 1.08-.418.507.118 1.132 0 1.158-.091.026-.092.182-.602.352-.445.169.157.156.863.572.745.417-.117.768-.444.976-.183.209.262.326.627.716.575.644.021 1.284.1 1.913.235l1.002.092s.209 0 .417.627 0 .954.156 1.137c.393.475.829.912 1.302 1.307.117 0 .533.627.924.47.39-.157.833-.836 1.223-.862.39-.026.833 1.137 1.301 1.071.469-.065.716-.444.963-.392.248.053 1.094.784 1.81.588.715-.196 1.913-1.176 1.848-1.842-.065-.667-1.016-2.535-1.016-3.372 0-.836 1.081-.575 1.302-.954.16-.601.383-1.183.664-1.738a12.26 12.26 0 01.976-1.516.734.734 0 01.768.144 8.904 8.904 0 003.553 1.764c1.353.2 2.692.488 4.008.863.218.287.345.633.365.993a6.16 6.16 0 00.208 1.882 13.03 13.03 0 002.173 2.025 2.848 2.848 0 002.499.066 94.579 94.579 0 013.124-1.307c.6-.116 1.21-.173 1.822-.17.393.131.769.311 1.119.536h1.106c.389.156.75.377 1.067.653a6 6 0 00.482.562s.742-.235.976-.078c.234.156 1.301 1.398 1.666 1.725a4.073 4.073 0 002.512.444c1.041-.079 2.824 0 3.774 0a3.788 3.788 0 001.874-.444c.39-.17.534-1.046 1.757-1.399 1.223-.353 2.772-.418 3.149-1.071a8.984 8.984 0 011.302-2.366 8.53 8.53 0 012.408-1.437c.39-.091 1.692 1.137 2.316.993.625-.144 1.08-.902 1.549-1.019.468-.118 1.705.954 2.382.928a7.612 7.612 0 012.238.143.478.478 0 00.586-.143l.898-1.555c.395-.53.83-1.028 1.301-1.49.182-.183 0-.549-.143-.85-.143-.3.221-.954.221-.954.133-.261.217-.544.248-.836v-1.307c0-.326.182-.797.208-1.163a1.945 1.945 0 000-.745c-.011-.343.06-.683.208-.993.157-.219.326-.428.508-.627.091-.118.689-1.464.481-1.79-.208-.327-.624-.627-.664-.837a1.525 1.525 0 00-.325-.81 1.144 1.144 0 00-.625-.261c-.117 0-.351.183-.416-.392a3.26 3.26 0 011.067-2.509 59.171 59.171 0 013.02-1.96c.171-.107.349-.203.533-.288.417-.144 1.9-.627 2.017-.706a15.013 15.013 0 011.966-.091s2.03-.157 2.446-.209c.417-.052 1.302-.418 1.458-.392.156.026.534.627.833.692a.885.885 0 01.742.445c.234.353.351.81.742.928.39.117.533-.249.715.117.183.366.144.693.599.954.46.314.895.664 1.302 1.046.351.326.624 0 .702.692.078.693.13 1.019.274 1.019.479.222.937.489 1.366.798.137.105.26.228.365.366.286.39.551.795.793 1.215.329.546.699 1.066 1.107 1.555.117.131.95 1.085 1.301 1.176.451.031.901-.064 1.302-.274a1.5 1.5 0 01.859-.392h2.264c.299 0 2.603.209 2.772.209.401.105.797.231 1.185.379 0 .274-.144 1.019.364 1.202.508.183.651 0 .859.627.208.627.143 1.228.39 1.372a3.43 3.43 0 003.241-.601 6.115 6.115 0 002.173-2.3c.382-.625.817-1.215 1.302-1.764.365-.551.774-1.071 1.223-1.555.286-.217.536-.477.742-.771a.474.474 0 00.273.418c.261.118.651-.118.651-.118.061.442.152.879.273 1.307.079.157.859.719.859 1.307s.352.745 0 1.045c-.351.301-.715.092-.624.693.069.445.178.882.325 1.307.1.836.252 1.666.456 2.483.169.416.266.858.286 1.307a2.24 2.24 0 000 .901c.164.319.274.664.325 1.02.04.356.04.715 0 1.071v.889c-.02.484-.149.957-.377 1.385-.259.151-.54.262-.833.327a3.584 3.584 0 00-1.197-.118l-.833.287a3.17 3.17 0 00-.378.575 2.26 2.26 0 01-.13.719c-.099.38-.258.741-.468 1.072-.274.274-.534.536-.508.653a5.414 5.414 0 001.106 1.411 7.5 7.5 0 011.211 1.974c.247.418 1.171 2.234 1.379 2.613.208.379.26.575.078.967a1.012 1.012 0 01-.677.588 2.307 2.307 0 00-.715.327.742.742 0 000 .666c.218.327.397.678.533 1.046.13.353-.091.679 0 .836.04.199.04.403 0 .601-.065.262-.091.471 0 .471s.209-.444.248-.562a5.5 5.5 0 00.143-.902c0-.117.325.366.39.092.065-.275.443-.628.091-.954-.351-.327-.533-.366-.39-.51.269-.17.579-.265.898-.274.351 0 .768.183.768-.092a5.038 5.038 0 00-.143-.836c-.066-.262.143-.654.143-.915s.117-.366 0-.601-.235-.366-.209-.627c.027-.262 0-.236.261-.366a3.695 3.695 0 011.64.157c.182.117.338.81.833.47.347-.25.728-.448 1.132-.588.247-.065.455.562.781.444.285-.106.525-.309.676-.575.209-.287.339-.352.417-.535.411-.405.846-.785 1.301-1.137a1.76 1.76 0 00.235-.837c0-.379-.261-.562 0-.718.364-.131.7-.331.989-.588.32-.484.578-1.007.768-1.556a3.439 3.439 0 000-.836 4.565 4.565 0 010-.81c.149-.278.233-.586.247-.902 0-.379-.221-1.307-.221-1.607 0-.301.247-.444.221-.719.08-.494.189-.982.325-1.463 0-.484.143-1.046.208-1.529.066-.484-.182-1.307 0-1.725a4.15 4.15 0 00.677-1.791v-2.038a4.42 4.42 0 01.182-1.046 4.724 4.724 0 00-.234-1.698 4.33 4.33 0 01-.065-1.386 7.675 7.675 0 00-.325-1.698c-.143-.275-.69-.981-.443-1.647.236-.468.423-.958.56-1.464 0-.326.273-2.613.273-2.835v-1.438a1.711 1.711 0 01-.117-.3c0-.209.065-.51 0-.797-.065-.288-.273-.628-.39-.602-.118.027-.417.353-.469.262-.052-.092-.182-1.072-.247-1.189-.065-.118-.976-2.091-1.067-2.183-.091-.091-.118-.862-.352-1.019-.234-.157-.455-.092-.572-.209-.118-.118-1.575-1.908-1.575-1.999 0-.092-.143-1.046-.143-1.046s-.274-1.019-.274-1.189c0-.17-.325-.549-.416-.627a15.268 15.268 0 010-1.738 3.163 3.163 0 00-.299-.811 2.218 2.218 0 01-.092-.692s-.26-.235-.39-.144c-.13.092-.833.183-.885 0a11.653 11.653 0 00-.273-.719s-.742-.392-.859-.692a5.563 5.563 0 01-.208-.863 4.475 4.475 0 00-.118-.928c-.091-.209-.208-.444-.299-.483a3.39 3.39 0 00-.69.209c-.63.079-1.265.11-1.9.092-.117-.092-.69-.51-.742-.589a2.79 2.79 0 00-1.015-.392c-.442-.091-.716-.248-.768-.365-.052-.118-.208-.445-.299-.236a4.414 4.414 0 00-.247.811c0 .091-.586.718-.768.718-.182 0-.989-.457-1.132-.248a.82.82 0 00.065.81c.203.24.43.459.676.654a.82.82 0 01.443.575c.085.21.146.429.182.653 0 .118.156.3 0 .3s-.442 0-.442-.235.091-.457-.065-.575c-.157-.117-.261-.143-.352 0a5.706 5.706 0 00-.299.719c0 .118-.482 1.189-.807 1.307-.326.117-.534.496-.599.235a3.38 3.38 0 01.182-.928c0-.209.144-.483-.117-.509-.26-.027-.989.183-.989-.092 0-.274.208-.862.182-1.045-.026-.183 0-.419-.325-.353a1.104 1.104 0 00-.716.509c-.085.141-.154.29-.208.445 0 0 .117.47.273.562.156.091.352.483.508.627.156.144.325.183 0 .418-.326.235-.482.51-.625.549-.143.039-.325-.065-.481-.34-.157-.274 0-1.307-.261-1.516a4.344 4.344 0 01-.715-.784c-.144-.209-.417-.379-.482-.261-.214.229-.44.448-.677.653l-.299.301c-.205.14-.428.25-.664.327-.143 0-.742.274-1.093 0-.352-.275-.664-.392-.534-.837.13-.444.794-1.019.885-1.529.091-.509.156-1.071.182-1.398.027-.327.391-.758.508-1.307.11-.48.171-.971.182-1.463-.053-.45.029-.905.235-1.307.26-.418.442-.484.442-.902a3.672 3.672 0 00-.143-1.137 1.386 1.386 0 01.169-1.097c.15-.495.212-1.013.182-1.529a8.81 8.81 0 01.208-1.464c.145-.383.185-.798.118-1.202a2.517 2.517 0 01.117-1.307c.091-.118.338-.144.299-.444-.039-.3-.507-1.503-.377-1.856.13-.353.208-.81.325-1.163.117-.353 0-.314 0-1.307v-2.43a7.12 7.12 0 01.456-1.49c.234-.444.325-.366.585-.392a1.082 1.082 0 00.716-.444c.276-.388.6-.74.963-1.046.345-.264.671-.552.976-.862.143-.183.208-.55.3-.601.265-.101.522-.224.767-.366.391-.236.417-.445.573-.17.156.274 0 .536.351.51.352-.027.573 0 .664-.34.091-.34-.065-.418-.091-.745-.026-.327-.481-.47.117-.719.599-.248.885-.17 1.158-.327.344-.165.626-.435.807-.77.17-.393-.182-.628.417-.746.599-.117.716.262 1.093 0 .378-.26.625-.51.599-.718-.026-.21 0-.183-.208-.34-.209-.157-.352.091-.508-.235-.156-.327 0-.353.208-.418.208-.066.208-.536.208-.536-.169-.327-.559-.392-.208-.745a3.66 3.66 0 011.198-.627l.767-.627s.209.6.417.392c.253-.224.431-.52.507-.85 0-.261.69-.745.807-.745.117 0 1.159.183 1.302 0 .143-.183.39-.47.273 0-.117.47-.39.536-.625.784-.234.249-.481.236-.533.627a.994.994 0 00.885 1.046 1.727 1.727 0 001.223-.745 1.64 1.64 0 00.326-.81c-.183-.183-.534-.601-.326-.745.208-.144.508.353.807 0 .275-.377.409-.84.377-1.307a.828.828 0 01.482-.81c.299-.21 1.106.366 1.197-.288.092-.653-.091-.927.17-1.11.26-.183.533 0 .741-.366.209-.366.456-1.046.157-1.307-.3-.261-.898-.47-1.107-.3-.208.17-.351.418-.559.483-.189.036-.37.107-.534.21-.13.09.143.391-.208.509-.352.117-.547.3-.573 0-.026-.3-.468-.68-.442-.797.026-.118.416-.092.351-.667-.065-.575-.533-1.934-.533-2.234 0-.301-.092-1.555-.118-1.738-.026-.183-.507-1.438-.507-1.7a3.71 3.71 0 00-.091-1.306c-.143-.484-.208-1.045-.326-1.529a2.15 2.15 0 01.274-1.581c.286-.444.624-.993.833-1.307.218-.344.414-.702.585-1.072a.514.514 0 01.482-.183c.351 0 .651.236.833.118.182-.118.143-.418.273-.562.13-.143-.299-.784-.299-.901 0-.118-.156-.51.091-.301.299.314.557.666.768 1.045.078.296.13.597.156.902 0 .235 0 .327.468.745.469.418.326.719.599.745a.428.428 0 00.534-.353c.091-.327.065-.601.117-.784.052-.183-.208-.601.065-.183s.651 1.411.924 1.307a.598.598 0 00.534-.627c0-.445-.066-1.007 0-1.307.065-.3-.482-.954-.456-1.49.026-.536.13-1.581.13-1.581a1.374 1.374 0 01-.338-.837c0-.483 0-.666.182-.744.182-.079.312.078.482 0 .169-.079.715-.366.299-.628a1.571 1.571 0 00-.924-.3c-.208 0-.365.17-.391-.157-.026-.327-.924-1.163-.989-1.307-.065-.144-.585-.274-.559-.692a6.77 6.77 0 01.234-1.163c.046-.284.138-.558.273-.81.091-.118 1.575-.98 1.575-.98s.364 0 .234.208c-.13.21-.26.288-.494.588-.235.3-.365.419-.339.745.026.327-.143.366.183.758.32.338.668.648 1.041.928.325.261.416.144.481.444.065.3-.182.235 0 .627.182.393.261.72.534.68.273-.04.208-.196.416-.17.209.026.352-.091.417.418.065.51-.091.889.273.889s.651-.235.677.157c.026.392.325.627 0 .836-.326.21-.534.235-.56.51-.026.274 0 .144 0 .653.03.348.03.698 0 1.046 0 .274-.273.653 0 .993.273.34.417.287.625.535.208.249 0 .21.13.745.071.321.199.627.377.902.209.379.3.327.339.797-.008.476-.07.95-.182 1.412-.065.26-.209.378-.117.653.091.274 0 .536.169.653.169.118 0 .366.13.628a.937.937 0 010 .6s-.091.066.195.236c.286.17.807 0 .846.627.039.627-.156.928 0 1.307.156.379.078.719.234 1.307.156.588.182.888.235 1.163a1.12 1.12 0 010 .718c-.092.144-.209.353-.326.392-.117.04-.442 0-.481.236-.038.312-.007.629.091.928.117.326.299.352 0 .561-.3.21-.274.327-.482.392-.208.066-.442.21-.325.393.117.182.091.444.416.352.326-.091 0-.418.534-.091a1.3 1.3 0 01.69.836c.208.484.299.667.26.928-.039.261-.117.3-.117.444 0 .144 0 .157.13.484.092.27.14.552.143.836-.018.35.044.698.182 1.02.262.524.615.997 1.042 1.398.412.424.77.898 1.067 1.411.277.48.618.92 1.015 1.307.416.3 1.067.902 1.627 1.228.559.327 2.264 1.582 2.355 1.673.091.091 1.575.928 1.666.954.091.026 1.64.954 1.64.954l1.549 1.137 1.809 1.306 1.106.745.859.536s.573.3.573.392c.195.345.413.677.65.993l.69.262h.534s.533.287.65.235a.808.808 0 00.274-.719c-.065-.326-.156-.836-.274-1.228-.117-.392-.091-.444.092-.601v.104zM7.355 95.055c.091 0 0-.17-.065-.34.091.17.156.34.065.34z" fill="#525673"/></svg>