<svg width="20" height="16" fill="none" xmlns="http://www.w3.org/2000/svg"><path d="M17.75 11.5a2.28 2.28 0 00-1.563.625l-2.437-1.406A3.15 3.15 0 0014 9.5C14 7.594 12.406 6 10.5 6c-.281 0-.531.063-.781.094l-1-2.157c.469-.406.781-1 .781-1.656A2.26 2.26 0 007.25.031C6 .031 5 1.031 5 2.281c0 1.219 1 2.25 2.25 2.25 0 0 .031-.031.063-.031l1.062 2.25A3.404 3.404 0 007 9.5c0 1.938 1.563 3.5 3.5 3.5a3.45 3.45 0 002.438-1l2.593 1.469c-.031.094-.031.187-.031.281 0 1.25 1 2.25 2.25 2.25 1.219 0 2.25-1 2.25-2.25 0-1.219-1.031-2.25-2.25-2.25zM7.25 3a.722.722 0 01-.75-.75.74.74 0 01.75-.75.76.76 0 01.75.75.74.74 0 01-.75.75zm3.25 8.5c-1.125 0-2-.875-2-2 0-1.094.875-2 2-2 1.094 0 2 .906 2 2 0 1.125-.906 2-2 2zm7.25 3a.722.722 0 01-.75-.75.74.74 0 01.75-.75.76.76 0 01.75.75.74.74 0 01-.75.75zm-1.719-8.156l-.593-.782-1.5 1.125.593.782 1.5-1.125zM18 6c1.094 0 2-.875 2-2 0-1.094-.906-2-2-2-1.125 0-2 .906-2 2 0 1.125.875 2 2 2zM4.75 10h1.5V9h-1.5v1zM2 7.5c-1.125 0-2 .906-2 2 0 1.125.875 2 2 2 1.094 0 2-.875 2-2 0-1.094-.906-2-2-2z" fill="#40BF6A"/></svg>