<svg width="21" height="16" fill="none" xmlns="http://www.w3.org/2000/svg"><path d="M20.812 11.781l-1.75-2.031h.188a.706.706 0 00.656-.438.716.716 0 00-.094-.78L18.094 6.5h.406c.281 0 .562-.156.656-.438.063-.093.063-.187.063-.312a.71.71 0 00-.188-.5l-4.5-5a.755.755 0 00-1.094 0L11 2.969 8.53.25a.755.755 0 00-1.094 0l-4.5 5a.737.737 0 00-.218.5c0 .125.03.219.093.313.094.28.375.437.688.437h.375L2.156 8.531a.716.716 0 00-.094.781.718.718 0 00.688.438h.156l-1.75 2.031a.716.716 0 00-.094.781c.094.282.375.438.657.438h5.25v.781l-.938 1.5A.507.507 0 006.5 16h2.969a.507.507 0 00.468-.719L9 13.781V13h4v.781l-.969 1.5A.507.507 0 0012.5 16h2.969a.507.507 0 00.468-.719l-.937-1.5V13h5.25a.706.706 0 00.656-.438.716.716 0 00-.094-.78zM3.375 11.5l2.812-3.25H4.344L7.094 5H5.156L8 1.875 10.812 5H8.875l2.75 3.25H9.78l2.813 3.25h-9.22zm11.219 0l-1.532-1.75h.188a.706.706 0 00.656-.438.716.716 0 00-.094-.78L12.094 6.5h.406c.281 0 .562-.156.656-.438.063-.093.063-.187.063-.312a.71.71 0 00-.188-.5L12 4.094l2-2.219L16.812 5h-1.937l2.75 3.25H15.78l2.813 3.25h-4z" fill="#40BF6A"/></svg>