<svg width="320" height="79" fill="none" xmlns="http://www.w3.org/2000/svg"><g filter="url(#filter0_d_81_890)"><path d="M2.625 45.875C7.625 49 6.5 55.75 11.75 55.75c3.125 0 2.25 5.75 4.25 5.75 1.75 0 4.18 3.343 5.704 4.106.744.367 1.518.773 2.236 1.164a21.857 21.857 0 003.118 1.515c1.356-1.336 3.442-2.35 5.905-2.87.783-.153 1.562-.304 2.338-.451 3.163-.606 6.148-1.17 8.198-1.97.87-.34 1.867-.666 2.924-1.015 2.025-.667 4.125-1.358 5.192-2.121 1.71-1.212 3.492-3.13 3.462-3.746v-.133l.217-.021c.403-.03.809-.044 1.215-.043 1.457 0 4.2.18 6.209 1.382.79.485 1.43 1.049 1.892 1.667.774.933 1.392 1.67 5.157 2.2 5.49.773 8.03 3.736 8.42 4.242.921.13 1.801.348 2.606.646.785-.076 5.612-.573 7.722-1.249 2.282-.73 5.89-3.527 5.926-3.557l.167-.128.202.106 12.029 6.364c.157.103 3.739 2.585 4.736 3.879.936 1.212 4.555 2.967 6.989 3.4 2.105.367 4.503.924 5.207 1.09.465-.475 2.287-2.281 3.506-3.03l.35-.206c1.457-.87 4.179-2.49 5.272-4.151 1.22-1.845 2.025-2.685 4.762-2.958.676-.049 1.32-.2 1.873-.437.553-.238.996-.555 1.29-.923l1.012-1.088c2.362-2.587 5.122-5.038 8.243-7.318l1.518-1.212c.09.32.279.629.557.909 1.938 1.966 4.61 3.96 7.257 3.906 2.646-.055 3.324-2.088 3.618-2.515a9.33 9.33 0 011.164-1.819c.445-.545 1.897-.848 4.139-1.379 1.204-.281 1.118-2.766 2.09-3.266.693-.386 1.164-.893 1.346-1.449.113-.29.356-.556.703-.77a3.462 3.462 0 011.265-.442s4.251-.812 5.496-6.209c.217-.909 1.68-3.603 3.491-4.506 0 0 .041.927.643 1.082.602.154 1.038-.876 1.21-1.082a5.507 5.507 0 011.118-.606s.258-.679.263-.703c.058-.357.257-.701.582-1.003.592-.567 1.614-1.576 1.675-1.867 0 0 .587.576.906.824 1.751 1.382 4.777.646 8.071-1.351 3.193-1.936 3.294-.736 3.542-1.549.248-.812 1.382-1.263 1.447-1.378.066-.115.506-1.212.506-1.212s2.217-.234 2.283-1.161c.065-.927 1.366-1.297 2.368-2.088 0 0 .248 2.967 1.336 4.227.916 1.07 4.554 2.355 5.652 3.334 1.098.978 2.024 2.394 3.456 2.745 1.807.455.481-.424 2.617-.424 2.59 0 1.356.582 4.938 1.027 3.462.43 2.814 0 4.555.133 1.472.125 4.579 4.243 4.579 4.243s.987-.606 4.135-.079c2.96.512 3.876-.36 5.06.155 1.184.515 2.93 1.342 4.134 1.342 1.205 0 1.377.103 2.93 1.549 1.554 1.445 5.222 2.912 11.249 2.727 1.144-.036 3.583-.467 5.42-.821a9.876 9.876 0 012.361-.157 9.231 9.231 0 012.279.402c2.105.667 5.01 1.652 5.961 2.303 1.549 1.058 3.067-1.515 4.246-1.194 1.786.503 5.298.737 5.298.737s.967 1.381 1.827 2.53c.86 1.148 1.143 1.46 3.324 2.079.774.217 1.618.33 2.472.33.855 0 1.699-.113 2.472-.33.506-.206 4.823-2.34 4.823-2.34s2.242-1.27 2.93-1.372c.688-.104 1.892-.725 2.409-1.034.516-.309-.345-2.166 2.585-1.548 2.93.618 4.453 1.548 5.415.827.961-.721.862-1.436 1.478-1.436.722 0 2.222-1.455 2.722-1.455V79H0V43.5c1.125.125 2.625 2.375 2.625 2.375z" fill="#fff"/></g><defs><filter id="filter0_d_81_890" x="-25" y="0" width="370" height="104" filterUnits="userSpaceOnUse" color-interpolation-filters="sRGB"><feFlood flood-opacity="0" result="BackgroundImageFix"/><feColorMatrix in="SourceAlpha" values="0 0 0 0 0 0 0 0 0 0 0 0 0 0 0 0 0 0 127 0" result="hardAlpha"/><feOffset/><feGaussianBlur stdDeviation="12.5"/><feComposite in2="hardAlpha" operator="out"/><feColorMatrix values="0 0 0 0 0.1404 0 0 0 0 0.1503 0 0 0 0 0.2196 0 0 0 0.25 0"/><feBlend mode="darken" in2="BackgroundImageFix" result="effect1_dropShadow_81_890"/><feBlend in="SourceGraphic" in2="effect1_dropShadow_81_890" result="shape"/></filter></defs></svg>