<svg width="320" height="54" viewBox="0 0 320 54" fill="none" xmlns="http://www.w3.org/2000/svg">
<path d="M317.375 20.875C312.375 24 313.5 30.75 308.25 30.75C305.125 30.75 306 36.5 304 36.5C302.25 36.5 299.819 39.843 298.296 40.606C297.552 40.973 296.778 41.379 296.06 41.77C295.062 42.3566 294.02 42.8632 292.942 43.285C291.586 41.949 289.499 40.935 287.037 40.415C286.258 40.2624 285.479 40.112 284.699 39.964C281.536 39.358 278.551 38.794 276.501 37.994C275.631 37.654 274.634 37.328 273.577 36.979C271.552 36.312 269.452 35.621 268.385 34.858C266.674 33.646 264.893 31.728 264.923 31.112V30.979L264.706 30.958C264.303 30.928 263.897 30.914 263.491 30.915C262.034 30.915 259.291 31.095 257.282 32.297C256.493 32.782 255.852 33.346 255.39 33.964C254.616 34.897 253.998 35.634 250.233 36.164C244.743 36.937 242.202 39.9 241.813 40.406C240.892 40.536 240.012 40.754 239.207 41.052C238.422 40.976 233.595 40.479 231.485 39.803C229.202 39.073 225.594 36.276 225.559 36.246L225.392 36.118L225.19 36.224L213.161 42.588C213.004 42.691 209.422 45.173 208.425 46.467C207.489 47.679 203.87 49.434 201.436 49.867C199.331 50.234 196.933 50.791 196.229 50.957C195.764 50.482 193.942 48.676 192.723 47.927L192.373 47.721C190.916 46.851 188.194 45.231 187.101 43.57C185.881 41.724 185.076 40.885 182.339 40.612C181.695 40.5702 181.062 40.4225 180.466 40.175C179.913 39.937 179.47 39.619 179.176 39.252L178.164 38.164C175.802 35.577 173.042 33.126 169.921 30.846L168.403 29.634C168.298 29.9795 168.106 30.2924 167.846 30.543C165.908 32.509 163.236 34.503 160.589 34.449C157.943 34.394 157.265 32.361 156.971 31.934C156.655 31.2847 156.264 30.6742 155.807 30.115C155.362 29.57 153.91 29.267 151.668 28.737C150.464 28.455 150.55 25.97 149.578 25.47C148.885 25.084 148.414 24.577 148.232 24.021C148.119 23.731 147.876 23.465 147.529 23.251C147.14 23.0227 146.71 22.8725 146.264 22.809C146.264 22.809 142.013 21.997 140.768 16.6C140.551 15.691 139.088 12.997 137.277 12.094C137.277 12.094 137.236 13.021 136.634 13.176C136.032 13.33 135.596 12.3 135.424 12.094C135.076 11.8495 134.701 11.6461 134.306 11.488C134.306 11.488 134.048 10.809 134.043 10.785C133.985 10.428 133.786 10.084 133.461 9.782C132.869 9.215 131.847 8.206 131.786 7.915C131.786 7.915 131.199 8.491 130.88 8.739C129.129 10.121 126.103 9.385 122.809 7.388C119.616 5.452 119.515 6.652 119.267 5.839C119.019 5.027 117.885 4.576 117.82 4.461C117.754 4.345 117.314 3.249 117.314 3.249C117.314 3.249 115.097 3.015 115.031 2.088C114.966 1.16 113.665 0.79 112.663 0C112.663 0 112.415 2.967 111.327 4.227C110.411 5.297 106.773 6.582 105.675 7.561C104.577 8.539 103.651 9.955 102.219 10.306C100.412 10.761 101.738 9.882 99.603 9.882C97.012 9.882 98.246 10.464 94.663 10.909C91.203 11.339 91.85 10.909 90.109 11.042C88.637 11.167 85.529 15.285 85.529 15.285C85.529 15.285 84.543 14.679 81.395 15.206C78.435 15.718 77.519 14.846 76.335 15.361C75.151 15.876 73.405 16.703 72.201 16.703C70.996 16.703 70.824 16.806 69.271 18.252C67.717 19.697 64.049 21.164 58.021 20.979C56.878 20.942 54.439 20.512 52.602 20.158C51.8242 20.0109 51.0315 19.9579 50.241 20C49.4671 20.0378 48.7011 20.1729 47.961 20.402C45.857 21.069 42.952 22.054 42.001 22.705C40.452 23.763 38.934 21.19 37.755 21.511C35.969 22.014 32.457 22.248 32.457 22.248C32.457 22.248 31.49 23.629 30.63 24.778C29.77 25.926 29.487 26.238 27.305 26.857C26.5001 27.0783 25.6688 27.1893 24.834 27.187C23.9989 27.1894 23.1673 27.0784 22.362 26.857C21.856 26.651 17.539 24.517 17.539 24.517C17.539 24.517 15.297 23.247 14.609 23.145C13.921 23.041 12.717 22.42 12.2 22.111C11.684 21.802 12.545 19.945 9.615 20.563C6.685 21.181 5.162 22.111 4.2 21.39C3.239 20.669 3.338 19.954 2.722 19.954C2 19.955 0.5 18.5 0 18.5V54H320V18.5C318.875 18.625 317.375 20.875 317.375 20.875Z" fill="#3A3F54"/>
</svg>
