<?xml version="1.0" encoding="utf-8"?>
<!-- Generator: Adobe Illustrator 25.3.1, SVG Export Plug-In . SVG Version: 6.00 Build 0)  -->
<svg version="1.1" id="Слой_1" xmlns="http://www.w3.org/2000/svg" xmlns:xlink="http://www.w3.org/1999/xlink" x="0px" y="0px"
	 viewBox="0 0 60 60" style="enable-background:new 0 0 60 60;" xml:space="preserve">
<style type="text/css">
	.st0{fill:#848AA5;}
</style>
<path class="st0" d="M59.2,51.1h-1.4L42.3,21.7c0,0,0,0,0,0l-4.6-8.8c-0.2-0.3-0.5-0.5-0.8-0.5c-0.3,0-0.6,0.2-0.8,0.5L33,18.6
	L26.9,8.1c-0.2-0.3-0.5-0.5-0.8-0.5c-0.3,0-0.6,0.2-0.8,0.5l-7.7,13.6c0,0,0,0,0,0L2.3,51.1H0.9c-0.5,0-0.9,0.4-0.9,0.9
	c0,0.5,0.4,0.9,0.9,0.9h7.8c0.5,0,0.9-0.4,0.9-0.9c0-0.5-0.4-0.9-0.9-0.9H4.3l14.4-27.6l3.9,3.9c0.2,0.2,0.4,0.3,0.6,0.3
	c0.2,0,0.5-0.1,0.6-0.3l4.2-4.2l2.3,2.3c0.3,0.3,0.9,0.3,1.2,0l2-1.9l0.1,0.1l0,0l4.9,9.3c0.2,0.4,0.8,0.6,1.2,0.4
	c0.4-0.2,0.6-0.8,0.4-1.2l-4.6-8.8l0.2-0.2l2.3,2.3c0.2,0.2,0.4,0.3,0.6,0.3c0.2,0,0.4-0.1,0.6-0.3l2-2l14.5,27.6H42.6V49h3
	c0.3,0,0.6-0.1,0.7-0.4c0.2-0.2,0.2-0.5,0.1-0.8l-1.5-3.6h0.6c0.3,0,0.6-0.1,0.7-0.4c0.2-0.2,0.2-0.6,0.1-0.8l-3.9-8.7
	c-0.1-0.3-0.5-0.5-0.8-0.5c-0.3,0-0.7,0.2-0.8,0.5L37,42.9c-0.1,0.3-0.1,0.6,0.1,0.8c0.2,0.2,0.4,0.4,0.7,0.4h0.6L37,47.8
	c-0.1,0.3-0.1,0.6,0.1,0.8c0.2,0.2,0.4,0.4,0.7,0.4h3v2.1H19.3V49h3c0.3,0,0.6-0.1,0.7-0.4c0.2-0.2,0.2-0.5,0.1-0.8l-1.5-3.6h0.6
	c0.3,0,0.6-0.1,0.7-0.4c0.2-0.2,0.2-0.6,0.1-0.8l-3.9-8.7c-0.1-0.3-0.5-0.5-0.8-0.5c-0.3,0-0.7,0.2-0.8,0.5l-3.9,8.7
	c-0.1,0.3-0.1,0.6,0.1,0.8c0.2,0.2,0.4,0.4,0.7,0.4h0.6l-1.5,3.6c-0.1,0.3-0.1,0.6,0.1,0.8c0.2,0.2,0.4,0.4,0.7,0.4h3v2.1h-5.2
	c-0.5,0-0.9,0.4-0.9,0.9c0,0.5,0.4,0.9,0.9,0.9h46.9c0.5,0,0.9-0.4,0.9-0.9C60.1,51.5,59.7,51.1,59.2,51.1z M31,23.6l-2.3-2.3
	c-0.3-0.3-0.9-0.3-1.2,0l-4.2,4.2l-3.7-3.7l6.6-11.5l6.6,11.5L31,23.6z M38.7,23.6l-2.3-2.3c-0.2-0.2-0.4-0.3-0.6-0.3
	c-0.2,0-0.5,0.1-0.6,0.3l-0.5,0.5l-0.1-0.1c0,0,0,0,0,0L34,20.5l2.8-5.4l3.6,6.8L38.7,23.6z M15.8,47.2l1.5-3.6
	c0.1-0.3,0.1-0.6-0.1-0.8c-0.2-0.2-0.4-0.4-0.7-0.4h-0.6l2.5-5.7l2.5,5.7h-0.6c-0.3,0-0.6,0.1-0.7,0.4c-0.2,0.2-0.2,0.5-0.1,0.8
	l1.5,3.6H15.8z M39.1,47.2l1.5-3.6c0.1-0.3,0.1-0.6-0.1-0.8c-0.2-0.2-0.4-0.4-0.7-0.4h-0.6l2.5-5.7l2.5,5.7h-0.6
	c-0.3,0-0.6,0.1-0.7,0.4c-0.2,0.2-0.2,0.5-0.1,0.8l1.5,3.6H39.1z"/>
<path class="st0" d="M20.4,13.4C20,11.2,18,9.5,15.7,9.5c-0.7,0-1.4,0.2-2,0.5c-1-0.9-2.4-1.4-3.8-1.4c-2.9,0-5.2,2.1-5.7,4.8H2.1
	c-0.5,0-0.9,0.4-0.9,0.9c0,0.5,0.4,0.9,0.9,0.9H8c0.5,0,0.9-0.4,0.9-0.9c0-0.5-0.4-0.9-0.9-0.9H6c0.4-1.8,2-3.1,3.9-3.1
	c1.1,0,2.2,0.5,3,1.3c0.3,0.3,0.8,0.4,1.2,0.1c0.5-0.3,1.1-0.5,1.7-0.5c1.4,0,2.5,0.9,2.9,2.1h-0.9c-0.5,0-0.9,0.4-0.9,0.9
	c0,0.5,0.4,0.9,0.9,0.9h2c0.4,0,0.7-0.3,0.7-0.7C20.4,13.9,20.4,13.4,20.4,13.4z"/>
<path class="st0" d="M59.2,22.4h-3.1c-0.4-2.2-2.4-3.9-4.7-3.9c-0.7,0-1.4,0.2-2,0.5c-1-0.9-2.4-1.4-3.8-1.4c-1,0-1.9,0.3-2.8,0.7
	c-0.3,0.2-0.5,0.6-0.3,1l0,0c0.2,0.5,0.9,0.6,1.4,0.4c0.5-0.2,1.1-0.4,1.7-0.4c1.1,0,2.2,0.5,3,1.3c0.3,0.3,0.8,0.4,1.2,0.1
	c0.5-0.3,1.1-0.5,1.7-0.5c1.4,0,2.5,0.9,2.9,2.1h-0.9c-0.5,0-0.9,0.4-0.9,0.9c0,0.5,0.4,0.9,0.9,0.9h5.8c0.5,0,0.9-0.4,0.9-0.9
	C60.1,22.8,59.7,22.4,59.2,22.4z"/>
</svg>
