<svg width="1280" height="216" viewBox="0 0 1280 216" fill="none" xmlns="http://www.w3.org/2000/svg">
<path d="M1269.5 83.5C1249.5 96 1254 123 1233 123C1220.5 123 1224 146 1216 146C1209 146 1199.28 159.371 1193.19 162.425C1190.18 163.916 1187.19 165.468 1184.24 167.08C1180.43 169.341 1176.25 171.371 1171.77 173.14C1166.34 167.797 1158 163.741 1148.15 161.661C1145.02 161.047 1141.9 160.445 1138.8 159.855C1126.15 157.431 1114.2 155.177 1106.01 151.977C1102.52 150.619 1098.54 149.31 1094.31 147.916C1086.21 145.249 1077.81 142.486 1073.54 139.431C1066.7 134.583 1059.57 126.91 1059.69 124.449V123.916L1058.82 123.831C1057.21 123.714 1055.59 123.657 1053.97 123.661C1048.14 123.661 1037.17 124.376 1029.13 129.189C1025.97 131.127 1023.41 133.384 1021.56 135.855C1018.46 139.589 1015.99 142.534 1000.93 144.655C978.971 147.746 968.81 159.601 967.251 161.625C963.568 162.145 960.048 163.017 956.827 164.207C953.69 163.904 934.379 161.916 925.939 159.213C916.81 156.292 902.378 145.104 902.236 144.983L901.568 144.473L900.759 144.898L852.645 170.352C852.017 170.765 837.687 180.692 833.699 185.868C829.954 190.716 815.482 197.734 805.746 199.468C797.325 200.934 787.731 203.165 784.917 203.831C783.055 201.928 775.768 194.704 770.89 191.71L769.494 190.886C763.664 187.407 752.774 180.922 748.402 174.28C743.524 166.898 740.306 163.54 729.355 162.449C726.652 162.252 724.076 161.65 721.865 160.699C719.654 159.748 717.879 158.478 716.704 157.007L712.656 152.655C703.206 142.306 692.167 132.506 679.683 123.382L673.611 118.534C673.251 119.818 672.495 121.051 671.384 122.17C663.631 130.037 652.944 138.013 642.358 137.795C631.772 137.576 629.059 129.443 627.885 127.734C626.681 125.235 625.123 122.802 623.23 120.461C621.449 118.279 615.639 117.067 606.672 114.946C601.855 113.819 602.199 103.879 598.313 101.879C595.54 100.338 593.655 98.309 592.929 96.085C592.476 94.925 591.503 93.861 590.116 93.006C588.729 92.152 586.979 91.54 585.055 91.237C585.055 91.237 568.052 87.988 563.073 66.4C562.202 62.764 556.353 51.988 549.106 48.376C549.106 48.376 548.944 52.086 546.536 52.703C544.127 53.321 542.386 49.2 541.698 48.376C540.399 47.449 538.894 46.633 537.225 45.952C537.225 45.952 536.192 43.237 536.172 43.14C535.942 41.71 535.144 40.334 533.844 39.127C531.476 36.861 527.387 32.824 527.144 31.661C527.144 31.661 524.796 33.964 523.521 34.958C516.518 40.485 504.414 37.54 491.237 29.552C478.464 21.806 478.059 26.606 477.068 23.358C476.076 20.109 471.542 18.303 471.279 17.843C471.015 17.382 469.254 12.994 469.254 12.994C469.254 12.994 460.389 12.061 460.126 8.352C459.863 4.642 454.661 3.164 450.653 0C450.653 0 449.661 11.867 445.309 16.91C441.645 21.188 427.092 26.327 422.699 30.243C418.307 34.158 414.603 39.818 408.875 41.225C401.649 43.043 406.952 39.528 398.41 39.528C388.046 39.528 392.985 41.855 378.654 43.637C364.809 45.357 367.4 43.637 360.437 44.17C354.547 44.667 342.119 61.14 342.119 61.14C342.119 61.14 338.172 58.715 325.582 60.824C313.74 62.873 310.077 59.382 305.34 61.443C300.604 63.503 293.621 66.813 288.803 66.813C283.986 66.813 283.298 67.225 277.083 73.007C270.869 78.788 256.194 84.655 232.087 83.916C227.512 83.77 217.756 82.049 210.409 80.631C207.297 80.044 204.125 79.8331 200.963 80.003C197.776 80.172 194.677 80.719 191.847 81.613C183.427 84.279 171.808 88.219 168.003 90.825C161.809 95.055 155.737 84.764 151.021 86.049C143.875 88.061 129.828 88.994 129.828 88.994C129.828 88.994 125.962 94.522 122.521 99.116C119.08 103.71 117.946 104.958 109.222 107.431C106.127 108.299 102.752 108.748 99.334 108.748C95.917 108.748 92.541 108.299 89.446 107.431C87.422 106.607 70.156 98.073 70.156 98.073C70.156 98.073 61.189 92.994 58.436 92.582C55.684 92.17 50.866 89.685 48.802 88.449C46.737 87.213 50.178 79.782 38.459 82.255C26.739 84.728 20.646 88.449 16.8 85.564C12.954 82.679 13.354 79.819 10.89 79.819C8 79.819 2 74 0 74V216H1280V74C1275.5 74.5 1269.5 83.5 1269.5 83.5Z" fill="#3A3F54"/>
</svg>
