<svg width="1280" height="241" fill="none" xmlns="http://www.w3.org/2000/svg"><g filter="url(#filter0_d_74_556)"><path d="M10.5 108.5C30.5 121 26 148 47 148c12.5 0 9 23 17 23 7 0 16.722 13.37 22.815 16.425a255.397 255.397 0 018.947 4.655c3.812 2.261 7.989 4.291 12.468 6.06 5.427-5.343 13.772-9.399 23.622-11.479 3.13-.614 6.248-1.216 9.351-1.806 12.651-2.424 24.594-4.678 32.791-7.878 3.482-1.358 7.469-2.667 11.7-4.061 8.096-2.667 16.496-5.43 20.767-8.485 6.842-4.848 13.967-12.521 13.846-14.982v-.533l.87-.085a64.931 64.931 0 014.858-.17c5.829 0 16.8.715 24.836 5.528 3.158 1.938 5.721 4.195 7.57 6.666 3.097 3.734 5.567 6.679 20.626 8.8 21.962 3.091 32.123 14.946 33.682 16.97 3.684.52 7.203 1.392 10.424 2.582 3.138-.303 22.448-2.291 30.888-4.994 9.129-2.921 23.561-14.109 23.703-14.23l.668-.51.81.425 48.113 25.454c.628.413 14.958 10.34 18.946 15.516 3.745 4.848 18.217 11.866 27.953 13.6 8.421 1.466 18.015 3.697 20.829 4.363 1.862-1.903 9.149-9.127 14.027-12.121l1.397-.824c5.829-3.479 16.719-9.964 21.091-16.606 4.878-7.382 8.096-10.74 19.047-11.831 2.703-.197 5.279-.799 7.49-1.75 2.211-.951 3.986-2.221 5.161-3.692l4.048-4.352c9.45-10.349 20.489-20.149 32.973-29.273l6.073-4.848c.36 1.284 1.115 2.517 2.226 3.636 7.753 7.867 18.44 15.843 29.026 15.625 10.586-.219 13.299-8.352 14.473-10.061 1.205-2.499 2.762-4.932 4.655-7.273 1.782-2.182 7.591-3.394 16.558-5.515 4.817-1.127 4.473-11.067 8.359-13.067 2.773-1.541 4.658-3.57 5.384-5.794.453-1.16 1.426-2.224 2.813-3.079 1.387-.854 3.137-1.466 5.061-1.769 0 0 17.003-3.249 21.982-24.837.871-3.636 6.721-14.412 13.967-18.024 0 0 .162 3.71 2.571 4.327 2.408.618 4.149-3.503 4.837-4.327 1.299-.927 2.804-1.743 4.474-2.424 0 0 1.032-2.715 1.052-2.812.23-1.43 1.028-2.806 2.328-4.013 2.368-2.266 6.457-6.303 6.7-7.466 0 0 2.348 2.303 3.623 3.297 7.003 5.527 19.108 2.582 32.285-5.406 12.772-7.746 13.177-2.946 14.168-6.194.992-3.249 5.526-5.055 5.789-5.515.264-.461 2.025-4.849 2.025-4.849s8.865-.933 9.128-4.642c.264-3.71 5.466-5.188 9.473-8.352 0 0 .992 11.867 5.344 16.91 3.664 4.278 18.217 9.417 22.61 13.333 4.392 3.915 8.096 9.575 13.824 10.982 7.227 1.818 1.923-1.697 10.465-1.697 10.364 0 5.425 2.327 19.756 4.109 13.845 1.72 11.254 0 18.217.533 5.89.497 18.318 16.97 18.318 16.97s3.947-2.425 16.537-.316c11.842 2.049 15.505-1.442 20.242.619 4.736 2.06 11.72 5.37 16.537 5.37 4.817 0 5.506.412 11.723 6.194 6.21 5.781 20.89 11.648 44.99 10.909 4.58-.146 14.33-1.867 21.68-3.285 3.05-.583 6.26-.796 9.45-.628 3.18.169 6.28.716 9.11 1.61 8.42 2.666 20.04 6.606 23.85 9.212 6.19 4.23 12.26-6.061 16.98-4.776 7.14 2.012 21.19 2.945 21.19 2.945s3.87 5.528 7.31 10.122c3.44 4.594 4.57 5.842 13.3 8.315 3.09.868 6.47 1.317 9.89 1.317 3.41 0 6.79-.449 9.88-1.317 2.03-.824 19.29-9.358 19.29-9.358s8.97-5.079 11.72-5.491c2.76-.412 7.57-2.897 9.64-4.133 2.06-1.236-1.38-8.667 10.34-6.194 11.72 2.473 17.81 6.194 21.66 3.309 3.85-2.885 3.45-5.745 5.91-5.745C1272 104.819 1278 99 1280 99v142H0V99c4.5.5 10.5 9.5 10.5 9.5z" fill="#fff"/></g><defs><filter id="filter0_d_74_556" x="-25" y="0" width="1330" height="266" filterUnits="userSpaceOnUse" color-interpolation-filters="sRGB"><feFlood flood-opacity="0" result="BackgroundImageFix"/><feColorMatrix in="SourceAlpha" values="0 0 0 0 0 0 0 0 0 0 0 0 0 0 0 0 0 0 127 0" result="hardAlpha"/><feOffset/><feGaussianBlur stdDeviation="12.5"/><feComposite in2="hardAlpha" operator="out"/><feColorMatrix values="0 0 0 0 0.1404 0 0 0 0 0.1503 0 0 0 0 0.2196 0 0 0 0.25 0"/><feBlend mode="darken" in2="BackgroundImageFix" result="effect1_dropShadow_74_556"/><feBlend in="SourceGraphic" in2="effect1_dropShadow_74_556" result="shape"/></filter></defs></svg>