<svg width="16" height="16" fill="none" xmlns="http://www.w3.org/2000/svg"><path d="M8 .25A7.749 7.749 0 00.25 8 7.749 7.749 0 008 15.75 7.749 7.749 0 0015.75 8 7.749 7.749 0 008 .25zm0 14A6.228 6.228 0 011.75 8 6.248 6.248 0 018 1.75c3.438 0 6.25 2.813 6.25 6.25A6.248 6.248 0 018 14.25z" fill="#40BF6A"/><path d="M7.786 9.716c-.174.057-.372.019-.48-.13a1.468 1.468 0 01-.27-.882 1.5 1.5 0 01.324-.95c.217-.285.455-.506.715-.662.269-.156.511-.342.728-.56.217-.216.325-.445.325-.688a.813.813 0 00-.325-.663c-.208-.182-.511-.273-.91-.273-.524 0-.989.165-1.395.494-.239.194-.597.208-.802-.021L5.5 5.16c-.164-.183-.173-.462.004-.633.665-.648 1.513-.972 2.545-.972.806 0 1.447.19 1.924.572.477.381.715.87.715 1.469 0 .355-.082.676-.247.962a2.27 2.27 0 01-.585.689c-.225.173-.45.338-.676.494a3.14 3.14 0 00-.585.52.884.884 0 00-.234.585c0 .296-.072.703-.353.796l-.222.073zm.822 2.524a.866.866 0 01-.637.26.91.91 0 01-.65-.26.91.91 0 01-.26-.65c0-.251.087-.464.26-.637a.888.888 0 01.65-.273c.251 0 .464.09.637.273a.846.846 0 01.273.637.888.888 0 01-.273.65z" fill="#40BF6A"/></svg>