<svg width="48" height="50" fill="none" xmlns="http://www.w3.org/2000/svg"><path fill-rule="evenodd" clip-rule="evenodd" d="M24 0c-7.66 0-13.87 6.265-13.87 13.994 0 4.537 2.14 8.57 5.458 11.127a23.986 23.986 0 00-8.559 5.556 24.228 24.228 0 00-5.202 7.855A24.401 24.401 0 000 47.8C0 49.014.977 50 2.182 50a2.192 2.192 0 002.182-2.201c0-2.602.508-5.178 1.494-7.582a19.825 19.825 0 014.257-6.427 19.626 19.626 0 016.37-4.294 19.486 19.486 0 0115.03 0 19.626 19.626 0 016.37 4.294 19.825 19.825 0 014.257 6.427 19.963 19.963 0 011.494 7.582c0 1.215.977 2.201 2.182 2.201A2.192 2.192 0 0048 47.799c0-3.18-.62-6.329-1.827-9.267a24.228 24.228 0 00-5.202-7.855 23.986 23.986 0 00-8.559-5.556 14.014 14.014 0 005.458-11.127C37.87 6.265 31.66 0 24 0zm-9.507 13.994c0-5.297 4.257-9.591 9.507-9.591s9.507 4.294 9.507 9.59c0 5.298-4.257 9.592-9.507 9.592s-9.507-4.294-9.507-9.591z" fill="#40BF6A"/></svg>