<svg width="56" height="55" fill="none" xmlns="http://www.w3.org/2000/svg"><path d="M22.893 25.74a1.02 1.02 0 001.02-1.02v-3.732c0-.153-.012-.302-.022-.451l.315.314a1.019 1.019 0 001.442 0l.33-.33c-.01.154-.023.31-.023.467v3.733c0 .564.458 1.02 1.02 1.02h3.733a6.478 6.478 0 006.47-6.47v-3.733a1.02 1.02 0 00-1.02-1.02h-3.732c-.845 0-1.65.167-2.39.463a6.467 6.467 0 00-1.748-5.92l-2.64-2.64a1.02 1.02 0 00-1.442 0l-2.64 2.64a6.465 6.465 0 00-1.75 5.912 6.414 6.414 0 00-2.373-.458h-3.732a1.02 1.02 0 00-1.02 1.021v3.733a6.478 6.478 0 006.47 6.47h3.732v.001zm12.244-9.183v2.713a4.434 4.434 0 01-4.43 4.43h-2.712v-2.713a4.434 4.434 0 014.43-4.43h2.712zm-12.13-6.054l1.919-1.918 1.918 1.918a4.436 4.436 0 010 6.265l-1.918 1.918-1.918-1.918a4.435 4.435 0 010-6.265zm-8.276 8.768v-2.714h2.712a4.435 4.435 0 014.43 4.43V23.7h-2.712a4.435 4.435 0 01-4.43-4.43zM27.995 33.67a3.065 3.065 0 00-3.062 3.06h2.041a1.021 1.021 0 012.04 0h2.041a3.064 3.064 0 00-3.06-3.06zm8.162 1.02a3.064 3.064 0 00-3.061 3.06h2.04a1.021 1.021 0 012.04 0h2.041a3.064 3.064 0 00-3.06-3.06z" fill="#40BF6A"/><path d="M43.824 30.81l3.521-13.202c.023-.086.035-.174.035-.263a2.043 2.043 0 00-2.04-2.04h-2.041c-.373 0-.72.105-1.02.28V1.02A1.02 1.02 0 0041.257 0H9.635L9.62.003 9.605 0H2.487a1.02 1.02 0 00-1.02 1.02v46.934c0 .407.243.776.617.937l7.118 3.061c.13.055.266.083.403.083l.018-.002.012.002H25.26A19.026 19.026 0 0035.455 55c10.568 0 19.167-8.598 19.167-19.166v-.106c0-3.046-6.3-4.364-10.798-4.917zm-.525-13.465h2.005L41.548 31.43v.002l-.001.003-.608 2.335a1.021 1.021 0 001.974.515l.385-1.478c6.964.821 9.283 2.433 9.283 2.922 0 1.003-5.826 3.36-17.126 3.36s-17.126-2.356-17.126-3.36c0-1.005 5.826-3.361 17.126-3.361.604 0 1.182.023 1.77.038l-.19.76a1.02 1.02 0 101.979.498l.5-1.986 3.752-14.07c.021-.086.033-.174.033-.263zM8.584 49.465L3.507 47.28V2.041h5.077v47.424zm13.966.53H10.655V2.04h29.583v18.996l-2.487 9.329a73.318 73.318 0 00-2.296-.04c-6.63 0-19.167 1.13-19.167 5.403v.105c0 .674.036 1.339.105 1.994.02.195.062.385.088.579.062.457.123.914.217 1.36.053.254.13.498.193.75.094.375.183.752.3 1.118.092.292.209.573.315.859.115.31.224.624.355.926.134.31.289.608.439.91.131.266.258.534.402.792.17.307.359.602.546.899.15.24.3.482.46.714.199.285.41.558.623.833.182.233.363.466.555.69.211.247.433.486.657.724.227.24.456.473.695.7.109.101.203.213.312.312zm12.906 2.964a17.02 17.02 0 01-9.44-2.85c-.13-.085-.254-.177-.38-.266a17.202 17.202 0 01-.857-.64c-.102-.08-.206-.16-.305-.243a16.757 16.757 0 01-1.05-.955c-.062-.062-.122-.126-.183-.189a16.692 16.692 0 01-.954-1.05l-.056-.064a16.976 16.976 0 01-1.026-1.39 17.158 17.158 0 01-1.467-2.696l-.101-.236c-.192-.46-.366-.93-.517-1.41-.02-.06-.035-.123-.053-.182a16.426 16.426 0 01-.343-1.331c-.02-.09-.042-.179-.06-.27-.048-.233-.072-.473-.11-.71 3.919 2.035 12.014 2.65 16.9 2.65 4.889 0 12.983-.615 16.9-2.65-1.276 8.19-8.356 14.482-16.898 14.482z" fill="#40BF6A"/></svg>