<svg width="38" height="38" fill="none" xmlns="http://www.w3.org/2000/svg"><g clip-path="url(#clip0)" fill="#40BF6A"><path d="M31.037 8.297C30.55 3.463 26.817.305 26.66.173a.742.742 0 00-.94-.007c-.04.031-3.885 3.183-4.364 8.12-.033.335-.049.675-.048 1.01 0 .41.333.741.742.741h.001a.74.74 0 00.74-.743 8.836 8.836 0 01.184-1.801l2.381 2.38a.743.743 0 00.1.084v1.807a.742.742 0 001.485 0v-3.83l2-2.001c.301.766.53 1.609.62 2.513.03.286.045.577.045.864 0 .41.333.74.742.74h.002a.74.74 0 00.74-.743c0-.336-.018-.676-.052-1.01zm-5.582-.688a.97.97 0 000 .034v.232l-1.998-1.999c.548-1.393 1.34-2.526 1.998-3.314v5.047zm1.485-1.775V2.6c.42.508.892 1.153 1.32 1.912l-1.32 1.32zm10.316 30.68h-.01a.742.742 0 000 1.484h.01a.742.742 0 000-1.484z"/><path d="M34.831 36.514h-7.89v-2.713l1.093-1.094a.742.742 0 00-1.05-1.05l-.044.045v-2.03a15.473 15.473 0 003.36-5.529.742.742 0 10-1.4-.49 13.968 13.968 0 01-1.96 3.708v-5.326l.92-.923c.547.43 1.45.96 2.617 1.009.06.003.121.004.181.004 1.361 0 2.702-.654 3.989-1.944 3.805-3.819 3.347-9.358 3.325-9.592a.742.742 0 00-.66-.67c-.056-.007-5.691-.56-9.575 3.336-.706.708-1.218 1.433-1.539 2.168-.32-.735-.833-1.46-1.539-2.168-3.883-3.896-9.518-3.343-9.575-3.336a.742.742 0 00-.66.67c-.021.234-.48 5.773 3.326 9.592 1.287 1.29 2.627 1.944 3.988 1.944.06 0 .12-.002.181-.004 1.168-.05 2.07-.58 2.617-1.009l.92.923v6.578l-.49-.49a.742.742 0 00-1.05 1.05l1.54 1.539v5.802H.743a.742.742 0 000 1.484H34.83a.742.742 0 000-1.484zm1.015-21.109h-2.298l2.907-2.916a12.896 12.896 0 01-.61 2.916zm-5.74-2.188c1.84-1.242 3.893-1.658 5.309-1.787l-5.309 5.326v-3.539zm1.962 3.673h3.15a9.05 9.05 0 01-1.623 2.243c-1.032 1.035-2.054 1.541-3.038 1.506-.693-.026-1.26-.32-1.639-.588l3.15-3.161zm-3.446-2.414v3.77l-.752.753c-.264-.376-.553-.94-.583-1.627-.04-.94.41-1.913 1.335-2.896zm-6.331-1.259v3.539l-5.31-5.326c1.416.129 3.47.545 5.31 1.787zm-6.349-.728l2.907 2.916H16.55a12.918 12.918 0 01-.609-2.916zm5.914 8.149c-.99.042-2.017-.465-3.055-1.505a9.036 9.036 0 01-1.622-2.243h3.15l2.179 2.186.97.975c-.374.266-.936.558-1.622.587zm3.254-3.282c-.025.694-.317 1.263-.584 1.643l-.751-.754v-3.77c.92.978 1.37 1.947 1.335 2.881zM20.22 4.115l-.008-.002a.742.742 0 00-.443 1.416l.016.005a.742.742 0 10.435-1.419z"/><path d="M24.407 25.469l-.78-.182A5.4 5.4 0 0017.44 28.4l-2.035 4.697a14.07 14.07 0 01-3.047-.37l-.935-3.121a5.018 5.018 0 012.611-5.97l.746-.364a2.65 2.65 0 001.369-1.61 2.649 2.649 0 00-.25-2.1 2.65 2.65 0 00-2.279-1.304h-1.77a1.427 1.427 0 01-1.292-.79 1.427 1.427 0 01.113-1.508l1.601-2.226a2.935 2.935 0 00-.127-3.592l-3.047-3.66A14.014 14.014 0 0115.585 4.9c.441 0 .886.02 1.324.06a.743.743 0 00.137-1.477 15.853 15.853 0 00-1.461-.068c-2.893 0-5.604.794-7.929 2.173a.74.74 0 00-.156.093C3.007 8.417 0 13.364 0 19c0 7.186 4.891 13.252 11.52 15.045a15.551 15.551 0 004.066.54 15.592 15.592 0 007.877-2.136.742.742 0 00-.751-1.28 14.06 14.06 0 01-5.658 1.853l1.747-4.032a3.917 3.917 0 014.488-2.258l.78.182a.742.742 0 00.338-1.445zm-22.923-6.47c0-4.9 2.513-9.224 6.318-11.752l3.201 3.845a1.45 1.45 0 01.063 1.775l-1.6 2.226a2.923 2.923 0 00-.23 3.053 2.923 2.923 0 002.612 1.596h1.771a1.16 1.16 0 011.108 1.491 1.145 1.145 0 01-.6.705l-.745.365A6.496 6.496 0 0010 30.033l.653 2.176c-5.35-2.004-9.169-7.17-9.169-13.21z"/></g><defs><clipPath id="clip0"><path fill="#fff" d="M0 0h38v38H0z"/></clipPath></defs></svg>