<svg width="50" height="50" fill="none" xmlns="http://www.w3.org/2000/svg"><g clip-path="url(#clip0)"><path d="M11.642 19.79c0-.433.342-.784.763-.784h.723c.42 0 .762.351.762.785a.774.774 0 01-.762.784h-.723a.774.774 0 01-.763-.784zm9.796-1.954c0-2.181 1.356-4.091 3.374-4.753.15-.05.312-.05.463 0 2.018.662 3.374 2.572 3.374 4.752 0 2.181-1.356 4.091-3.374 4.753a.743.743 0 01-.463 0c-2.018-.662-3.374-2.571-3.374-4.753zm1.524 0c0 1.41.827 2.654 2.081 3.172 1.255-.518 2.081-1.762 2.081-3.172 0-1.41-.827-2.655-2.08-3.173-1.255.518-2.082 1.762-2.082 3.172zm-6.884-6.161a.75.75 0 001.079 0 .8.8 0 000-1.11l-.511-.526a.747.747 0 00-1.079 0 .8.8 0 000 1.11l.511.526zm20.88 8.9h.723a.774.774 0 00.763-.784.774.774 0 00-.763-.785h-.722a.774.774 0 00-.763.785c0 .433.342.784.763.784zm-3.49-8.67a.75.75 0 00.54-.23l.51-.526a.8.8 0 000-1.11.747.747 0 00-1.078 0l-.51.526a.8.8 0 000 1.11.75.75 0 00.539.23zm-8.425-3.592a.774.774 0 00.762-.785v-.743A.774.774 0 0025.043 6a.774.774 0 00-.762.785v.743c0 .434.341.785.762.785zM25 41.953a.774.774 0 00-.762.784v.478c0 .434.34.785.762.785a.774.774 0 00.762-.785v-.478a.774.774 0 00-.762-.785zm6.31-3.313l-.402-.239a.75.75 0 00-1.042.287.797.797 0 00.28 1.072l.402.239c.12.071.251.105.38.105.264 0 .52-.14.661-.392a.797.797 0 00-.278-1.072zm-2.15 2.739a.75.75 0 00-1.04-.287.797.797 0 00-.28 1.072l.233.414a.759.759 0 00.661.393c.13 0 .26-.034.38-.106a.797.797 0 00.28-1.071l-.233-.415zM19.093 38.4l-.403.24a.797.797 0 00-.279 1.071.758.758 0 00.661.392c.13 0 .26-.034.38-.105l.404-.24a.797.797 0 00.279-1.071.75.75 0 00-1.042-.287zm15.69-10.535c-2.624-1.792-6.098-2.78-9.782-2.78s-7.158.988-9.782 2.78C12.498 29.725 11 32.228 11 34.916c0 .433.341.784.762.784H17.3c.253 0 .49-.13.631-.345a.804.804 0 00.076-.732l-.888-2.269a.755.755 0 00-.992-.435.792.792 0 00-.422 1.021l.466 1.191H12.58c.268-1.853 1.48-3.59 3.48-4.957 2.377-1.624 5.551-2.519 8.939-2.519 3.387 0 6.562.895 8.939 2.519 2 1.367 3.212 3.104 3.48 4.957H33.83l.466-1.19a.793.793 0 00-.422-1.022.755.755 0 00-.992.435l-.888 2.269a.804.804 0 00.075.732.757.757 0 00.632.345h5.537a.774.774 0 00.762-.784c0-2.688-1.498-5.191-4.218-7.05zM21.88 41.093a.75.75 0 00-1.041.287l-.233.415a.797.797 0 00.28 1.072c.12.07.25.105.38.105.263 0 .52-.141.66-.393l.233-.415a.797.797 0 00-.279-1.071zm6.989-4.793c0 2.975-1.946 4.53-3.87 4.53-1.922 0-3.868-1.555-3.868-4.53 0-2.248 1.485-5.278 3.382-6.898a.746.746 0 01.974 0c1.896 1.62 3.382 4.65 3.382 6.898zm-1.525 0c0-1.582-1.032-3.827-2.344-5.224-1.313 1.397-2.345 3.642-2.345 5.224 0 2.046 1.178 2.962 2.345 2.962 1.167 0 2.344-.916 2.344-2.962zm-2.54.598a.774.774 0 00-.76.788.774.774 0 00.762.781h.003c.918-.004 1.847-.774 1.847-2.238a.774.774 0 00-.762-.785.774.774 0 00-.763.785c0 .438-.165.668-.328.669z" fill="#40BF6A"/></g><defs><clipPath id="clip0"><path fill="#fff" transform="translate(11 6)" d="M0 0h28v38H0z"/></clipPath></defs></svg>