<svg width="50" height="38" fill="none" xmlns="http://www.w3.org/2000/svg"><path d="M49.267 36.535h-1.174l-12.91-24.59-.003-.005-3.87-7.37a.733.733 0 00-1.296 0l-2.542 4.842L22.414.578a.732.732 0 00-1.299 0L14.74 11.94a.501.501 0 01-.004.007L1.907 36.535H.733a.732.732 0 100 1.465h6.539a.732.732 0 100-1.465H3.559l12.014-23.028 3.247 3.246a.732.732 0 001.036 0l3.526-3.526 1.91 1.909a.732.732 0 001.035 0l1.629-1.63.064.125.003.005 4.066 7.792a.733.733 0 001.298-.678l-3.819-7.32.204-.203 1.909 1.909a.73.73 0 001.036 0l1.63-1.631 12.091 23.03H35.44v-1.771h2.503a.733.733 0 00.68-1.005l-1.216-3.04h.536a.733.733 0 00.67-1.03l-3.237-7.28a.733.733 0 00-1.338 0l-3.236 7.28a.733.733 0 00.67 1.03h.535l-1.216 3.04a.732.732 0 00.68 1.005h2.503v1.771H16.026v-1.771h2.503a.733.733 0 00.68-1.005l-1.216-3.04h.536a.732.732 0 00.67-1.03l-3.237-7.28a.733.733 0 00-1.338 0l-3.236 7.28a.733.733 0 00.67 1.03h.535l-1.216 3.04a.733.733 0 00.68 1.005h2.504v1.771h-4.363a.732.732 0 100 1.465h39.07a.732.732 0 100-1.465zM25.81 13.582l-1.91-1.909a.732.732 0 00-1.036 0L19.338 15.2l-3.054-3.054 5.48-9.646 5.482 9.646-1.437 1.436zm6.39 0l-1.91-1.909a.732.732 0 00-1.035 0l-.396.396-.064-.123-.004-.006-.494-.947 2.366-4.507 2.972 5.66-1.435 1.436zM13.14 33.299l1.217-3.04a.733.733 0 00-.68-1.004h-.491l2.108-4.745 2.109 4.745h-.49a.733.733 0 00-.681 1.004l1.216 3.04H13.14zm19.415 0l1.216-3.04a.733.733 0 00-.68-1.004H32.6l2.108-4.745 2.109 4.745h-.491a.733.733 0 00-.68 1.004l1.216 3.04h-4.307zM16.956 5.045a3.974 3.974 0 00-5.598-2.854A4.78 4.78 0 008.204 1a4.785 4.785 0 00-4.722 4.045h-1.75a.732.732 0 100 1.465h4.854a.732.732 0 100-1.465H4.974a3.318 3.318 0 013.23-2.58c.948 0 1.854.409 2.483 1.122a.732.732 0 00.962.12 2.489 2.489 0 011.408-.433c1.126 0 2.08.747 2.394 1.77h-.776a.732.732 0 100 1.466h1.581a.7.7 0 00.7-.7v-.765zm32.312 7.49h-2.572a3.974 3.974 0 00-5.6-2.854 4.779 4.779 0 00-5.461-.595c-.292.162-.384.525-.246.828.194.425.746.54 1.17.345a3.315 3.315 0 013.867.819.732.732 0 00.962.12 2.488 2.488 0 011.409-.434c1.125 0 2.08.747 2.393 1.771h-.776a.732.732 0 100 1.465h4.854a.732.732 0 100-1.465z" fill="#40BF6A"/></svg>