<svg width="44" height="50" fill="none" xmlns="http://www.w3.org/2000/svg"><path d="M33.518 28.014H10.482a.756.756 0 00-.768.765v3.062c0 .478.288.765.768.765h23.036a.756.756 0 00.768-.765v-3.062c0-.383-.384-.765-.768-.765zm5.375-26.98l-4.127 2.965-3.744-2.583a4.624 4.624 0 00-5.375 0L22 3.999l-3.743-2.583c-.768-.574-1.728-.861-2.688-.861-1.056 0-1.92.287-2.687.86L9.138 4 5.011 1.033C3.091-.307.5 1.033.5 3.33v43.342c0 2.2 2.592 3.635 4.511 2.296l4.127-3.062 3.744 2.68a4.625 4.625 0 005.375 0L22 45.904l3.647 2.68a4.625 4.625 0 005.375 0l3.744-2.68 4.127 3.062c1.92 1.34 4.607 0 4.607-2.296V3.329c0-2.296-2.688-3.635-4.607-2.296zm0 42.192l-4.127-2.966-6.431 4.593-6.431-4.593-6.335 4.593-6.43-4.593-4.032 2.966V6.774L9.138 9.74l6.431-4.593L22 9.74l6.335-4.593 6.43 4.593 4.128-2.966v36.452zm-5.375-25.928H10.482a.756.756 0 00-.768.766v3.061c0 .479.288.765.768.765h23.036a.756.756 0 00.768-.765v-3.061c0-.383-.384-.766-.768-.766z" fill="#40BF6A"/></svg>