<svg width="16" height="16" fill="none" xmlns="http://www.w3.org/2000/svg"><path d="M16 2a.75.75 0 00-.75-.75H9V.5c0-.25-.25-.5-.5-.5h-1c-.281 0-.5.25-.5.5v.75H.75a.75.75 0 000 1.5H7v.75c0 .281.219.5.5.5h1c.25 0 .5-.219.5-.5v-.75h6.25A.75.75 0 0016 2zm0 12a.75.75 0 00-.75-.75H5v-.75c0-.25-.25-.5-.5-.5h-1c-.281 0-.5.25-.5.5v.75H.75a.75.75 0 000 1.5H3v.75c0 .281.219.5.5.5h1c.25 0 .5-.219.5-.5v-.75h10.25A.75.75 0 0016 14zm0-6a.75.75 0 00-.75-.75H13V6.5c0-.25-.25-.5-.5-.5h-1c-.281 0-.5.25-.5.5v.75H.75a.75.75 0 000 1.5H11v.75c0 .281.219.5.5.5h1c.25 0 .5-.219.5-.5v-.75h2.25A.75.75 0 0016 8z" fill="#848AA5"/></svg>