<svg width="15" height="16" fill="none" xmlns="http://www.w3.org/2000/svg"><path d="M8.53 14.949A1 1 0 017.532 16h-.038a1 1 0 01-1-1.043l.244-5.69-4.77 3.107a1 1 0 01-1.411-.338l-.042-.072a1 1 0 01.413-1.392L5.988 8 .928 5.428a1 1 0 01-.413-1.392l.042-.071a1 1 0 011.412-.338l4.77 3.107-.244-5.691A1 1 0 017.494 0h.038a1 1 0 01.998 1.051l-.292 5.683 4.808-3.1a1 1 0 011.42.36l.03.055a1 1 0 01-.42 1.37L9.045 8l5.03 2.582a1 1 0 01.42 1.369l-.03.055a1 1 0 01-1.42.36l-4.808-3.1.292 5.683z" fill="#3C3F54"/></svg>