<svg width="54" height="54" fill="none" xmlns="http://www.w3.org/2000/svg"><path d="M53.1 16.2h-.9V6.3a.9.9 0 00-.9-.9H36V.9a.9.9 0 00-.9-.9H18.9a.9.9 0 00-.9.9v4.5H2.7a.9.9 0 00-.9.9v9.9H.9a.9.9 0 00-.9.9v3.6a.9.9 0 00.9.9h.9v31.5a.9.9 0 00.9.9h48.6a.9.9 0 00.9-.9V21.6h.9a.9.9 0 00.9-.9v-3.6a.9.9 0 00-.9-.9zM36 7.2h14.4v9H36v-9zM19.8 1.8h14.4v14.4H19.8V1.8zM3.6 7.2H18v9H3.6v-9zm40.5 45H32.4V45h11.7v7.2zm0-9H32.4v-9h11.7v9zm0-10.8H32.4v-4.5h11.7v4.5zm6.3 19.8h-4.5V27a.9.9 0 00-.9-.9H31.5a.9.9 0 00-.9.9v25.2h-27V21.6h46.8v30.6zm1.8-32.4H1.8V18h50.4v1.8z" fill="#282C32"/><path d="M9 45.9h16.2a.9.9 0 00.9-.9v-4.5a.9.9 0 00-.9-.9h-.9V27a.9.9 0 00-.9-.9H10.8a.9.9 0 00-.9.9v12.6H9a.9.9 0 00-.9.9V45a.9.9 0 00.9.9zm2.7-18h10.8v11.7H11.7V27.9zM9.9 41.4h14.4v2.7H9.9v-2.7zm31.5-1.8a.9.9 0 00.9-.9v-.9a.9.9 0 00-1.8 0v.9a.9.9 0 00.9.9zM31.5 6.3h-1.8V4.5a.9.9 0 00-.9-.9h-3.6a.9.9 0 00-.9.9v1.8h-1.8a.9.9 0 00-.9.9v3.6a.9.9 0 00.9.9h1.8v1.8a.9.9 0 00.9.9h3.6a.9.9 0 00.9-.9v-1.8h1.8a.9.9 0 00.9-.9V7.2a.9.9 0 00-.9-.9zm-.9 3.6h-1.8a.9.9 0 00-.9.9v1.8h-1.8v-1.8a.9.9 0 00-.9-.9h-1.8V8.1h1.8a.9.9 0 00.9-.9V5.4h1.8v1.8a.9.9 0 00.9.9h1.8v1.8z" fill="#282C32"/><path d="M15.037 33.936l2.7-2.7a.9.9 0 00-1.273-1.273l-2.7 2.7a.9.9 0 101.273 1.273zm4.126-2.172l-4.5 4.5a.9.9 0 101.273 1.272l4.5-4.5a.9.9 0 00-1.273-1.272z" fill="#282C32"/></svg>