<svg width="56" height="55" fill="none" xmlns="http://www.w3.org/2000/svg"><g clip-path="url(#clip0_3_66)" fill="#40BF6A"><path d="M54.583 16.5h-.916V6.417a.917.917 0 00-.917-.917H37.167V.917A.917.917 0 0036.25 0h-16.5a.917.917 0 00-.917.917V5.5H3.25a.917.917 0 00-.917.917V16.5h-.916a.917.917 0 00-.917.917v3.666c0 .507.41.917.917.917h.916v32.083c0 .507.41.917.917.917h49.5c.506 0 .917-.41.917-.917V22h.916c.507 0 .917-.41.917-.917v-3.666a.917.917 0 00-.917-.917zM37.167 7.333h14.666V16.5H37.167V7.333zm-16.5-5.5h14.666V16.5H20.667V1.833zm-16.5 5.5h14.666V16.5H4.167V7.333zm41.25 45.834H33.5v-7.334h11.917v7.334zm0-9.167H33.5v-9.167h11.917V44zm0-11H33.5v-4.583h11.917V33zm6.416 20.167H47.25V27.5a.917.917 0 00-.917-.917h-13.75a.917.917 0 00-.916.917v25.667h-27.5V22h47.666v31.167zm1.834-33H2.333v-1.834h51.334v1.834z"/><path d="M9.666 46.75h16.5c.506 0 .917-.41.917-.917V41.25a.917.917 0 00-.917-.917h-.916V27.5a.917.917 0 00-.917-.917H11.5a.917.917 0 00-.917.917v12.833h-.917a.917.917 0 00-.916.917v4.583c0 .507.41.917.916.917zm2.75-18.333h11v11.916h-11V28.417zm-1.833 13.75H25.25v2.75H10.583v-2.75zm32.084-1.834c.506 0 .916-.41.916-.916V38.5a.917.917 0 00-1.833 0v.917c0 .506.41.916.917.916zM32.583 6.417H30.75V4.583a.917.917 0 00-.917-.916h-3.667a.917.917 0 00-.916.916v1.834h-1.834a.917.917 0 00-.916.916V11c0 .506.41.917.916.917h1.834v1.833c0 .506.41.917.916.917h3.667c.506 0 .917-.41.917-.917v-1.833h1.833c.506 0 .917-.41.917-.917V7.333a.917.917 0 00-.917-.916zm-.917 3.666h-1.833a.917.917 0 00-.917.917v1.833h-1.833V11a.917.917 0 00-.917-.917h-1.833V8.25h1.833c.506 0 .917-.41.917-.917V5.5h1.833v1.833c0 .507.41.917.917.917h1.833v1.833z"/><path d="M15.815 34.565l2.75-2.75a.917.917 0 00-1.296-1.297l-2.75 2.75a.917.917 0 101.296 1.297zm4.203-2.213l-4.583 4.583a.917.917 0 101.296 1.296l4.583-4.583a.917.917 0 00-1.296-1.296z"/></g><defs><clipPath id="clip0_3_66"><path fill="#fff" transform="translate(.5)" d="M0 0h55v55H0z"/></clipPath></defs></svg>