<svg width="16" height="16" viewBox="0 0 16 16" fill="none" xmlns="http://www.w3.org/2000/svg">
<path d="M15.125 10.3125L11.9375 8.96875C11.7812 8.90625 11.5938 8.84375 11.375 8.84375C10.9375 8.84375 10.5312 9.0625 10.2812 9.375L9.25 10.625C7.59375 9.71875 6.28125 8.40625 5.375 6.75L6.625 5.71875C6.9375 5.46875 7.15625 5.0625 7.15625 4.625C7.15625 4.40625 7.09375 4.21875 7.03125 4.0625L5.6875 0.875C5.46875 0.375 4.9375 0 4.34375 0C4.25 0 4.15625 0.03125 4.03125 0.0625L1.09375 0.71875C0.46875 0.875 0 1.4375 0 2.125C0 9.8125 6.21875 16.0312 13.875 16C14.5625 16 15.125 15.5312 15.2812 14.9062L15.9375 11.9688C15.9688 11.8438 16 11.75 16 11.6562C16 11.0625 15.625 10.5312 15.125 10.3125ZM13.8125 14.5312C7.03125 14.5 1.53125 8.96875 1.5 2.1875L4.3125 1.53125L5.625 4.59375L3.5 6.34375C4.96875 9.4375 6.5625 11.0312 9.65625 12.5L11.4062 10.375L14.4688 11.6875L13.8125 14.5312Z" fill="white"/>
</svg>
