<svg width="28" height="31" fill="none" xmlns="http://www.w3.org/2000/svg"><path d="M23.59 7.806v-.209l-.148-.147L16.57.645 16.424.5H.5v29.195h23.09V7.805z" fill="#F7F8F9" stroke="#EAEBEC"/><path d="M5.91 12.18h12.272a.488.488 0 00.49-.486.488.488 0 00-.49-.486H5.909a.488.488 0 00-.49.486c0 .27.22.486.49.486zm0-3.888h4.908a.489.489 0 00.491-.486.488.488 0 00-.49-.487h-4.91a.488.488 0 00-.49.487c0 .268.22.486.49.486zm12.272 6.805H5.909a.488.488 0 00-.49.486c0 .27.22.487.49.487h12.273a.488.488 0 00.49-.487.488.488 0 00-.49-.486zm0 3.889H5.909a.488.488 0 00-.49.486c0 .269.22.486.49.486h12.273a.488.488 0 00.49-.486.488.488 0 00-.49-.486zm0 3.889H5.909a.488.488 0 00-.49.486c0 .269.22.486.49.486h12.273a.488.488 0 00.49-.486.488.488 0 00-.49-.486zM16.218 1v6.806h6.873L16.218 1z" fill="#EAEBEC"/><path d="M26 19.305h-6.8a2 2 0 00-2 2V28a2 2 0 002 2H26a2 2 0 002-2v-6.695a2 2 0 00-2-2z" fill="#40BF6A"/><path d="M23.091 27.419v-5.642a.49.49 0 00-.982 0v5.642a.49.49 0 10.982 0z" fill="#fff"/><path d="M22.6 28.26l-3.054-2.898a.499.499 0 11.686-.723l2.369 2.247 2.368-2.248a.499.499 0 01.686.723l-3.054 2.9z" fill="#fff"/></svg>