<svg width="52" height="52" fill="none" xmlns="http://www.w3.org/2000/svg"><path d="M30.508 24.742L22.96 22.54c-.944-.314-1.678-1.363-1.678-2.411 0-1.363 1.049-2.516 2.202-2.516h4.718c.733 0 1.467.21 2.096.629.63.42 1.468.314 1.992-.21l1.258-1.153c.84-.734.734-1.992-.21-2.62-1.467-1.05-3.145-1.574-4.822-1.574v-1.782c0-.838-.734-1.677-1.677-1.677H25.16c-.943 0-1.677.838-1.677 1.677v1.678c-3.984.104-7.13 3.46-7.13 7.548 0 3.25 2.098 6.29 5.138 7.13l7.548 2.305c.944.315 1.573 1.259 1.573 2.412 0 1.363-.944 2.411-2.202 2.411h-4.718c-.733 0-1.362-.105-1.991-.524-.734-.42-1.573-.315-2.097.21l-1.258 1.153c-.839.734-.63 1.992.21 2.62 1.467.944 3.145 1.573 4.927 1.573v1.678c0 .943.734 1.677 1.677 1.677h1.678c.838 0 1.677-.734 1.677-1.677v-1.678c3.88 0 7.13-3.354 7.13-7.443 0-3.25-2.098-6.29-5.138-7.234zM26 0C11.637 0 0 11.637 0 26s11.637 26 26 26 26-11.637 26-26S40.363 0 26 0zm0 46.968A20.895 20.895 0 015.032 26c0-11.532 9.33-20.968 20.968-20.968 11.532 0 20.968 9.436 20.968 20.968 0 11.637-9.436 20.968-20.968 20.968z" fill="#40BF6A"/></svg>