<svg width="24" height="24" fill="none" xmlns="http://www.w3.org/2000/svg"><path d="M18 5H5.969C5.437 5 5 5.469 5 6.031V18c0 .563.438 1 .969 1H18c.531 0 1-.438 1-1V6.031C19 5.47 18.531 5 18 5zM9.219 17H7.156v-6.656H9.22V17zM8.188 9.406c-.688 0-1.22-.531-1.22-1.187A1.22 1.22 0 018.189 7c.656 0 1.187.563 1.187 1.219 0 .656-.531 1.187-1.188 1.187zM17 17h-2.094v-3.25c0-.75 0-1.75-1.062-1.75-1.094 0-1.25.844-1.25 1.719V17H10.53v-6.656h1.97v.906h.031c.281-.531.969-1.094 1.969-1.094 2.094 0 2.5 1.406 2.5 3.188V17z" fill="#fff"/></svg>