<svg width="17" height="17" fill="none" xmlns="http://www.w3.org/2000/svg"><path fill-rule="evenodd" clip-rule="evenodd" d="M15.868.4c-.41 0-.74.337-.733.747l.061 3.2-.207-.321C13.576 1.838 11.102.401 8.34.433h-.002C3.933.434.368 4.094.4 8.534c0 4.473 3.565 8.067 7.97 8.067a8.002 8.002 0 005.33-2.053l.006-.006a.31.31 0 00-.005-.431l-.652-.662c-.08-.083-.243-.098-.373.004l-.005.004a6.365 6.365 0 01-4.301 1.646c-3.61 0-6.493-2.929-6.493-6.602 0-3.639 2.884-6.602 6.493-6.602 2.617 0 4.87 1.617 5.896 3.906l.073.164-3.816-.09a.725.725 0 10-.017 1.45H16.1a.5.5 0 00.5-.5V1.134A.732.732 0 0015.868.4z" fill="#40BF6A"/></svg>