<svg width="35" height="35" fill="none" xmlns="http://www.w3.org/2000/svg"><path d="M0 17.5C0 7.835 7.835 0 17.5 0S35 7.835 35 17.5 27.165 35 17.5 35 0 27.165 0 17.5z" fill="#fff"/><path d="M23.674 17.292v-1.456h-5.376V10.04h-1.596v5.796h-5.376v1.456h5.376v5.964h1.596v-5.964h5.376zM17.5 34C8.387 34 1 26.613 1 17.5h-2C-1 27.717 7.283 36 17.5 36v-2zM34 17.5C34 26.613 26.613 34 17.5 34v2C27.717 36 36 27.717 36 17.5h-2zM17.5 1C26.613 1 34 8.387 34 17.5h2C36 7.283 27.717-1 17.5-1v2zm0-2C7.283-1-1 7.283-1 17.5h2C1 8.387 8.387 1 17.5 1v-2z" fill="#40BF6A"/></svg>