<svg width="15" height="16" fill="none" xmlns="http://www.w3.org/2000/svg"><path d="M5.373 12.572H3.72V.79a.79.79 0 10-1.58 0v11.782H.433c-.217 0-.433.214-.433.428 0 .143.072.25.144.322l2.452 2.571c.072.071.18.107.289.107.144 0 .252-.036.324-.107l2.452-2.571a.403.403 0 00.108-.286c0-.25-.18-.429-.396-.464zm9.519-9.857L12.44.143C12.368.072 12.26 0 12.15 0a.459.459 0 00-.324.143L9.375 2.714A.403.403 0 009.267 3c0 .25.18.429.433.429h1.66V15.23a.77.77 0 101.54 0V3.43h1.703C14.82 3.429 15 3.25 15 3a.403.403 0 00-.108-.285z" fill="#848AA5"/></svg>