<svg width="52" height="52" fill="none" xmlns="http://www.w3.org/2000/svg"><path d="M26 0C11.637 0 0 11.637 0 26s11.637 26 26 26 26-11.637 26-26S40.363 0 26 0zm0 46.968A20.895 20.895 0 015.032 26c0-11.532 9.33-20.968 20.968-20.968 11.532 0 20.968 9.436 20.968 20.968 0 11.637-9.436 20.968-20.968 20.968z" fill="#40BF6A"/><path d="M25.283 31.756c-.585.192-1.25.063-1.61-.437-.607-.842-.91-1.828-.91-2.957a5.03 5.03 0 011.09-3.184c.727-.96 1.527-1.701 2.399-2.224a11.86 11.86 0 002.442-1.876c.727-.727 1.09-1.497 1.09-2.311 0-.902-.363-1.643-1.09-2.224-.697-.611-1.715-.916-3.053-.916-1.757 0-3.317.553-4.68 1.658-.8.65-2.004.698-2.692-.072l-.656-.735c-.55-.616-.58-1.55.012-2.127 2.232-2.173 5.078-3.26 8.54-3.26 2.704 0 4.855.64 6.455 1.919 1.599 1.28 2.398 2.922 2.398 4.928 0 1.192-.276 2.268-.828 3.228a7.613 7.613 0 01-1.963 2.311 55.967 55.967 0 01-2.268 1.657 10.382 10.382 0 00-1.962 1.745c-.524.61-.785 1.264-.785 1.962 0 .994-.242 2.359-1.186 2.67l-.743.245zm2.757 8.468c-.581.582-1.294.873-2.137.873s-1.57-.291-2.18-.873a3.053 3.053 0 01-.873-2.18c0-.843.29-1.556.872-2.137.611-.61 1.338-.916 2.181-.916s1.556.305 2.137.916c.61.581.916 1.294.916 2.137s-.305 1.57-.916 2.18z" fill="#40BF6A"/></svg>