<svg width="56" height="55" fill="none" xmlns="http://www.w3.org/2000/svg"><path d="M48.142 5.371A5.377 5.377 0 0042.77 0H17.526a5.377 5.377 0 00-5.37 5.371v5.918c.002.194.056.389.163.56l2.33 3.727-1.677 2.683a5.368 5.368 0 00-.817 2.846v1.439a1.075 1.075 0 002.148 0v-1.439c0-.605.17-1.194.49-1.708l1.717-2.747h27.277l1.716 2.747c.32.514.49 1.103.49 1.708v1.83H27.785c-.593 0-1.074.48-1.074 1.074v23.095c0 .594.48 1.075 1.074 1.075h18.208v1.45a3.235 3.235 0 01-3.222 3.223H17.524a5.342 5.342 0 001.077-3.223v-6.982a5.38 5.38 0 00-4.297-5.264v-5.171a1.075 1.075 0 00-2.149 0v5.171a5.38 5.38 0 00-4.297 5.264v6.982A5.377 5.377 0 0013.23 55c.764 0 1.49-.161 2.147-.45.02.01.04.02.06.028.662.28 1.365.422 2.09.422h25.245a5.35 5.35 0 003.797-1.574 5.35 5.35 0 001.574-3.797V21.105a5.365 5.365 0 00-.817-2.846l-1.676-2.683 2.33-3.727c.106-.171.16-.365.161-.56l.002-5.918zM10.007 42.647a3.226 3.226 0 013.222-3.223 3.226 3.226 0 013.223 3.223v2.416h-6.445v-2.416zm0 6.982v-2.417h6.445v2.417a3.226 3.226 0 01-3.223 3.223 3.226 3.226 0 01-3.222-3.223zm18.852-3.599V25.083h17.134V46.03H28.86zM14.304 5.371a3.226 3.226 0 013.222-3.223h25.245a3.226 3.226 0 013.222 3.223v4.834h-31.69V5.371zm2.206 9.131l-1.342-2.149h29.961l-1.343 2.149H16.51z" fill="#40BF6A"/><path d="M13.23 28.452a1.074 1.074 0 100-2.149 1.074 1.074 0 000 2.149zm29.523.91a1.074 1.074 0 00-2.149 0c0 .746-.09 1.405-.24 1.99a5.712 5.712 0 00-6.737.987c-.964.964-1.467 2.673-1.537 5.225a24.441 24.441 0 00.141 3.3c.06.49.446.875.935.935.045.006.826.1 1.907.136.25.008 1.19.011 1.393.005 2.552-.07 4.261-.573 5.225-1.536a5.71 5.71 0 00.456-7.548c.368-.97.606-2.125.606-3.494zm-2.581 9.523c-.868.868-3.717 1.023-5.89.864-.16-2.174-.005-5.022.864-5.89a3.56 3.56 0 014.352-.528c-.927 1.403-2.113 1.952-2.203 1.992a1.074 1.074 0 00.847 1.974c.106-.045 1.554-.683 2.8-2.285a3.56 3.56 0 01-.77 3.873z" fill="#40BF6A"/></svg>