<svg width="62" height="47" fill="none" xmlns="http://www.w3.org/2000/svg"><path d="M49.574 15.58h-3.777l1.138-13.587a.9.9 0 00.002-.073v-.006a.917.917 0 00-.53-.839l-.007-.004a.817.817 0 00-.06-.022l-.023-.009a.528.528 0 00-.05-.013l-.036-.01-.046-.007-.043-.006h-.007c-.015-.002-.03-.002-.046-.002L46.06 1H31.92c-.485 0-.879.41-.879.914 0 .503.394.914.88.914H45.1l-1.749 20.88v.005l-.441 5.268H12.37l.51-5.483h5.815c.486 0 .88-.409.88-.913 0-.505-.394-.914-.88-.914h-5.644l1.078-11.574h9.255c.485 0 .879-.41.879-.914 0-.505-.394-.914-.879-.914H14.3l.507-5.441h9.749c.484 0 .879-.411.879-.914 0-.505-.395-.914-.88-.914H14.01a.89.89 0 00-.859.721l-.002.01c-.005.022-.007.045-.01.069l-.003.021-.001.005-.6 6.443H1.879c-.486 0-.879.41-.879.914 0 .505.393.914.879.914h10.484L11.284 21.67H8.15c-.486 0-.88.409-.88.914 0 .504.394.913.88.913h2.965l-.587 6.302v.003l-.908 9.745v.003l-.001.003-.002.038-.002.05v.003l.003.07.001.022a.92.92 0 00.01.07l.004.02c.003.018.008.035.012.052l.01.036c0 .004.002.007.003.01a.921.921 0 00.209.358l.005.005c.009.01.02.019.03.028a.87.87 0 00.203.145c.016.008.03.017.047.024l.015.005c.022.01.044.018.067.026l.006.001a.91.91 0 00.08.021l.01.002c.025.005.05.01.077.012h.002a.827.827 0 00.085.005h3.914c.432 3.405 3.24 6.043 6.633 6.043 3.392 0 6.2-2.638 6.632-6.044H41.77c.432 3.406 3.24 6.044 6.632 6.044 3.392 0 6.2-2.638 6.633-6.044h3.915c.03 0 .058-.001.087-.004l.015-.002a.889.889 0 00.068-.011l.028-.007a.745.745 0 00.052-.014l.034-.011a.864.864 0 00.043-.017l.035-.016a1.053 1.053 0 00.142-.084.886.886 0 00.035-.027l.029-.024a.777.777 0 00.035-.033l.024-.024a1.15 1.15 0 00.035-.04l.019-.023.036-.05.012-.018a.997.997 0 00.04-.069l.003-.004a.975.975 0 00.036-.079l.008-.023a.902.902 0 00.02-.057c.005-.013.007-.026.01-.039a.345.345 0 00.012-.046l.007-.041.006-.037c.038-.31.726-6.052 1.033-9.764v-.01c.09-1.07.146-1.972.146-2.523 0-6.55-5.126-11.88-11.426-11.88zm-3.93 1.827h3.595l-.459 5.482h-3.596l.46-5.482zM21.04 44.772c-2.72 0-4.934-2.301-4.934-5.13 0-2.828 2.213-5.13 4.934-5.13 2.72 0 4.934 2.302 4.934 5.13 0 2.829-2.213 5.13-4.934 5.13zm27.362 0c-2.72 0-4.934-2.301-4.934-5.13 0-2.828 2.213-5.13 4.934-5.13 2.72 0 4.934 2.302 4.934 5.13 0 2.829-2.213 5.13-4.934 5.13zm9.77-6.044h-3.137c-.432-3.406-3.24-6.044-6.633-6.044-3.392 0-6.2 2.638-6.632 6.044H27.672c-.431-3.406-3.24-6.044-6.632-6.044-3.392 0-6.2 2.638-6.632 6.044H11.46l.738-7.92h31.516a.87.87 0 00.089-.004l.016-.003a.864.864 0 00.068-.01l.029-.008a.816.816 0 00.052-.014c.012-.003.023-.008.034-.012a.334.334 0 00.044-.017l.036-.016a.819.819 0 00.11-.063l.033-.024a1.201 1.201 0 00.097-.083l.026-.027a.862.862 0 00.127-.176l.017-.033c.008-.014.014-.029.02-.043l.016-.036.016-.044c.004-.013.009-.026.012-.04l.011-.042.01-.044.006-.044.006-.045.001-.006.44-5.258h4.543c2.693 0 3.907 1.451 5.193 2.987 1.061 1.267 2.245 2.681 4.259 3.026-.256 2.81-.67 6.42-.854 8zm1.004-9.83c-1.306-.277-2.11-1.232-3.083-2.395-1.218-1.454-2.704-3.228-5.553-3.559l.455-5.428c4.66.717 8.247 4.902 8.247 9.943 0 .342-.024.84-.066 1.439z" fill="#848AA5" stroke="#848AA5" stroke-width=".5"/></svg>