<svg width="16" height="14" fill="none" xmlns="http://www.w3.org/2000/svg"><path d="M14.344 3.56a6.952 6.952 0 001.625-1.688 6.151 6.151 0 01-1.875.5A3.206 3.206 0 0015.53.56a6.93 6.93 0 01-2.062.812A3.282 3.282 0 0011.063.341 3.28 3.28 0 007.78 3.622c0 .25.032.5.094.75A9.52 9.52 0 011.094.935 3.192 3.192 0 00.656 2.59a3.23 3.23 0 001.469 2.719c-.531-.031-1.063-.156-1.5-.406v.03a3.285 3.285 0 002.625 3.22c-.25.062-.563.124-.844.124-.219 0-.406-.03-.625-.062a3.266 3.266 0 003.063 2.281A6.597 6.597 0 01.78 11.903c-.281 0-.531-.03-.781-.062 1.438.938 3.156 1.469 5.031 1.469 6.032 0 9.313-4.969 9.313-9.313V3.56z" fill="#fff"/></svg>