<svg width="14" height="14" fill="none" xmlns="http://www.w3.org/2000/svg"><path d="M11.95 9.05a6.973 6.973 0 00-2.66-1.668A4.045 4.045 0 007 0a4.045 4.045 0 00-2.29 7.382A6.973 6.973 0 002.05 9.05a6.948 6.948 0 00-2.029 4.404.516.516 0 00.526.546c.302 0 .544-.246.572-.546A5.914 5.914 0 017 8.094a5.914 5.914 0 015.881 5.36c.028.3.27.546.572.546.302 0 .55-.245.526-.546a6.948 6.948 0 00-2.03-4.404zM7 7a2.956 2.956 0 01-2.953-2.953A2.956 2.956 0 017 1.094a2.956 2.956 0 012.953 2.953A2.956 2.956 0 017 7z" fill="#7F878B"/></svg>